<?xml version="1.0" encoding="utf-8"?>
<!-- Generator: Adobe Illustrator 21.1.0, SVG Export Plug-In . SVG Version: 6.00 Build 0)  -->
<svg version="1.1" xmlns="http://www.w3.org/2000/svg" xmlns:xlink="http://www.w3.org/1999/xlink" x="0px" y="0px"
	 viewBox="0 0 24 24" style="enable-background:new 0 0 24 24;" xml:space="preserve">
<style type="text/css">
	.st0{display:none;}
	.st1{display:inline;}
	.st2{clip-path:url(#SVGID_2_);}
	.st3{clip-path:url(#SVGID_5_);}
	.st4{clip-path:url(#SVGID_8_);}
	.st5{clip-path:url(#SVGID_10_);fill:#141415;}
	.st6{clip-path:url(#SVGID_12_);}
	.st7{clip-path:url(#SVGID_14_);fill:#141415;}
	.st8{clip-path:url(#SVGID_16_);}
	.st9{opacity:0;clip-path:url(#SVGID_18_);}
	.st10{opacity:0;}
	.st11{clip-path:url(#SVGID_18_);}
	.st12{fill:#FFFFFF;}
</style>
<g id="Layer_1" class="st0">
	<g class="st1">
		<defs>
			<path id="SVGID_1_" d="M-579.9-871.5l-15.4-15.4c4.4-4.9,7.1-11.4,7.1-18.5c0-15.3-12.4-27.6-27.6-27.6
				c-15.3,0-27.6,12.4-27.6,27.6c0,15.3,12.4,27.6,27.6,27.6c7.1,0,13.6-2.7,18.5-7.1l15.4,15.4c0.3,0.3,0.6,0.4,1,0.4
				c0.8,0,1.5-0.6,1.5-1.5C-579.5-870.9-579.6-871.2-579.9-871.5 M-615.8-880.6c-13.7,0-24.7-11.1-24.7-24.7
				c0-13.7,11.1-24.7,24.7-24.7c13.7,0,24.7,11.1,24.7,24.7C-591.1-891.7-602.2-880.6-615.8-880.6"/>
		</defs>
		<clipPath id="SVGID_2_">
			<use xlink:href="#SVGID_1_"  style="overflow:visible;"/>
		</clipPath>
		<g class="st2">
			<defs>
				<rect id="SVGID_3_" x="-653.5" y="-943" width="84" height="84"/>
			</defs>
			<defs>
				<rect id="SVGID_4_" x="-951.5" y="-1787" width="2880" height="4774"/>
			</defs>
			<clipPath id="SVGID_5_">
				<use xlink:href="#SVGID_3_"  style="overflow:visible;"/>
			</clipPath>
			<clipPath id="SVGID_6_" class="st3">
				<use xlink:href="#SVGID_4_"  style="overflow:visible;"/>
			</clipPath>
		</g>
	</g>
	<g id="Layer_2" class="st1">
		<g>
			<defs>
				<path id="SVGID_7_" d="M-579.9-871.5l-15.4-15.4c4.4-4.9,7.1-11.4,7.1-18.5c0-15.3-12.4-27.6-27.6-27.6
					c-15.3,0-27.6,12.4-27.6,27.6c0,15.3,12.4,27.6,27.6,27.6c7.1,0,13.6-2.7,18.5-7.1l15.4,15.4c0.3,0.3,0.6,0.4,1,0.4
					c0.8,0,1.5-0.6,1.5-1.5C-579.5-870.9-579.6-871.2-579.9-871.5 M-615.8-880.6c-13.7,0-24.7-11.1-24.7-24.7
					c0-13.7,11.1-24.7,24.7-24.7c13.7,0,24.7,11.1,24.7,24.7C-591.1-891.7-602.2-880.6-615.8-880.6"/>
			</defs>
			<clipPath id="SVGID_8_">
				<use xlink:href="#SVGID_7_"  style="overflow:visible;"/>
			</clipPath>
			<g class="st4">
				<defs>
					<rect id="SVGID_9_" x="-951.5" y="-1787" width="2880" height="4774"/>
				</defs>
				<clipPath id="SVGID_10_">
					<use xlink:href="#SVGID_9_"  style="overflow:visible;"/>
				</clipPath>
				<rect x="-653.5" y="-943" class="st5" width="84" height="84"/>
			</g>
		</g>
		<g>
			<defs>
				<path id="SVGID_11_" d="M-47.9,61.5l-15.4-15.4c4.4-4.9,7.1-11.4,7.1-18.5C-56.2,12.4-68.6,0-83.8,0
					c-15.3,0-27.6,12.4-27.6,27.6c0,15.3,12.4,27.6,27.6,27.6c7.1,0,13.6-2.7,18.5-7.1l15.4,15.4c0.3,0.3,0.6,0.4,1,0.4
					c0.8,0,1.5-0.6,1.5-1.5C-47.5,62.1-47.6,61.8-47.9,61.5 M-83.8,52.4c-13.7,0-24.7-11.1-24.7-24.7c0-13.7,11.1-24.7,24.7-24.7
					c13.7,0,24.7,11.1,24.7,24.7C-59.1,41.3-70.2,52.4-83.8,52.4"/>
			</defs>
			<clipPath id="SVGID_12_">
				<use xlink:href="#SVGID_11_"  style="overflow:visible;"/>
			</clipPath>
			<g class="st6">
				<defs>
					<rect id="SVGID_13_" x="-419.5" y="-854" width="2880" height="4774"/>
				</defs>
				<clipPath id="SVGID_14_">
					<use xlink:href="#SVGID_13_"  style="overflow:visible;"/>
				</clipPath>
				<rect x="-121.5" y="-10" class="st7" width="84" height="84"/>
			</g>
		</g>
	</g>
</g>
<g id="Layer_3" class="st0">
</g>
<g id="Layer_4">
	<g>
		<defs>
			<path id="SVGID_15_" d="M12,0L12,0c6.6,0,12,5.4,12,12s-5.4,12-12,12C5.4,24,0,18.6,0,12S5.4,0,12,0z"/>
		</defs>
		<clipPath id="SVGID_16_">
			<use xlink:href="#SVGID_15_"  style="overflow:visible;"/>
		</clipPath>
		<g class="st8">
			<defs>
				<rect id="SVGID_17_" x="0" width="24" height="30"/>
			</defs>
			<clipPath id="SVGID_18_">
				<use xlink:href="#SVGID_17_"  style="overflow:visible;"/>
			</clipPath>
			<g class="st9">
				<g class="st10">
					<g>
						<defs>
							<rect id="SVGID_19_" x="0" width="24" height="30"/>
						</defs>
						<clipPath id="SVGID_20_">
							<use xlink:href="#SVGID_19_"  style="overflow:visible;"/>
						</clipPath>
						<g style="clip-path:url(#SVGID_20_);">
							
								<image style="overflow:visible;" width="102" height="126" xlink:href="7ABDE3C7.jpg"  transform="matrix(0.24 0 0 0.24 -9.511965e-02 0)">
							</image>
						</g>
					</g>
				</g>
			</g>
			<g class="st11">
				<g>
					<defs>
						<rect id="SVGID_21_" x="0" width="24" height="30"/>
					</defs>
					<clipPath id="SVGID_22_">
						<use xlink:href="#SVGID_21_"  style="overflow:visible;"/>
					</clipPath>
					<g style="clip-path:url(#SVGID_22_);">
						
							<image style="overflow:visible;" width="102" height="126" xlink:href="7ABDE3C2.jpg"  transform="matrix(0.24 0 0 0.24 -9.511965e-02 0)">
						</image>
					</g>
				</g>
			</g>
		</g>
	</g>
	<path class="st12" d="M13.1,18.9c-1.1,0-2.1-0.3-3.1-0.8c-0.3-0.1-0.3-0.5-0.1-0.7c0.1-0.1,0.1-0.1,0.2-0.1c0.1,0,0.2,0,0.3,0
		c0.3,0,0.7,0.1,1,0.1c2.8,0,5.2-0.9,7.4-2.7c0.2-0.1,0.3-0.2,0.5-0.1c0.2,0.1,0.2,0.3,0.1,0.5c0,0.1-0.1,0.2-0.2,0.3
		c-1.1,1.7-2.6,2.8-4.5,3.3C14.2,18.8,13.6,18.9,13.1,18.9"/>
	<path class="st12" d="M3.6,13.7c0-3.2,1.8-5.9,4.3-7.1C8.4,6.3,9,6.1,9.6,6C9.8,6,9.9,6.1,10,6.3c0.1,0.2,0,0.4-0.2,0.5
		C9.1,7.2,8.5,7.7,7.9,8.2C6.1,9.8,5,11.9,4.4,14.3c0,0,0,0,0,0.1c-0.1,0.2-0.2,0.3-0.4,0.3c-0.2,0-0.3-0.2-0.3-0.4
		C3.6,14.1,3.6,13.8,3.6,13.7"/>
	<path class="st12" d="M18.6,10.2c0,2.1-0.7,3.8-2,5.3c-0.1,0.1-0.1,0.1-0.2,0.2c-0.2,0-0.3,0-0.4-0.1c-0.1-0.1-0.1-0.3-0.1-0.4
		c0-0.1,0.1-0.2,0.1-0.2c0.4-0.9,0.7-1.9,0.8-2.9c0.1-0.4,0.1-0.8,0.1-1.3c0-0.4,0-0.7,0-1.1c0-1.4-0.3-2.8-0.8-4.1
		c0-0.1-0.1-0.2,0-0.3c0-0.1,0.1-0.2,0.3-0.3c0.1,0,0.3,0,0.4,0.1c0.1,0.1,0.1,0.2,0.2,0.3c0.7,1,1.2,2.1,1.4,3.4
		C18.5,9.2,18.6,9.7,18.6,10.2"/>
	<path class="st12" d="M5.6,13.3c0-0.4,0-0.8,0.1-1.2c0-0.3,0.3-0.4,0.5-0.3c0.1,0.1,0.2,0.2,0.2,0.3c0,0.2,0.1,0.3,0.1,0.5
		c0.4,1.7,1.1,3.3,2.1,4.7c0.8,1.1,1.7,2,2.8,2.7c0.1,0.1,0.2,0.2,0.2,0.3c0,0.3-0.2,0.5-0.4,0.4c-0.2-0.1-0.5-0.1-0.7-0.2
		c-1.9-0.7-3.2-2-4.1-3.8C6,16,5.8,15.2,5.7,14.4C5.6,14,5.6,13.6,5.6,13.3"/>
	<path class="st12" d="M9.7,4c0.2,0,0.4,0,0.6,0c1.2,0.1,2.2,0.4,3.2,1c1.2,0.7,2.2,1.8,2.8,3.1c0.1,0.3,0,0.5-0.2,0.6
		c-0.1,0.1-0.3,0-0.4-0.1c-0.1-0.1-0.2-0.2-0.3-0.3C14,7,12.3,6.1,10.5,5.7C10,5.6,9.5,5.5,9,5.4c-0.6-0.1-1.1-0.1-1.7,0
		C7.2,5.4,7,5.3,7,5.1c0-0.2,0-0.4,0.2-0.5c0.2-0.1,0.5-0.2,0.8-0.3c0.5-0.2,1-0.3,1.5-0.3C9.5,4.1,9.6,4.1,9.7,4"/>
</g>
</svg>
