<?xml version="1.0" encoding="utf-8"?>
<!-- Generator: Adobe Illustrator 21.1.0, SVG Export Plug-In . SVG Version: 6.00 Build 0)  -->
<svg version="1.1" id="Layer_1" xmlns="http://www.w3.org/2000/svg" xmlns:xlink="http://www.w3.org/1999/xlink" x="0px" y="0px"
	 viewBox="0 0 91.1 91.5" style="enable-background:new 0 0 91.1 91.5;" xml:space="preserve">
<style type="text/css">
	.st0{clip-path:url(#SVGID_2_);}
	.st1{clip-path:url(#SVGID_4_);enable-background:new    ;}
	.st2{clip-path:url(#SVGID_6_);}
	.st3{clip-path:url(#SVGID_8_);}
	.st4{clip-path:url(#SVGID_10_);fill:#6CAA7F;}
	.st5{clip-path:url(#SVGID_12_);}
	.st6{clip-path:url(#SVGID_14_);fill:#6CAA7F;}
	.st7{display:none;}
	.st8{display:inline;}
	.st9{display:inline;clip-path:url(#SVGID_16_);}
	.st10{clip-path:url(#SVGID_18_);enable-background:new    ;}
	.st11{clip-path:url(#SVGID_20_);}
	.st12{clip-path:url(#SVGID_22_);}
	.st13{clip-path:url(#SVGID_24_);fill:#C4C6D0;}
	.st14{display:inline;clip-path:url(#SVGID_26_);}
	.st15{clip-path:url(#SVGID_28_);fill:#C4C6D0;}
</style>
<g>
	<defs>
		<rect id="SVGID_1_" width="91.1" height="91.1"/>
	</defs>
	<clipPath id="SVGID_2_">
		<use xlink:href="#SVGID_1_"  style="overflow:visible;"/>
	</clipPath>
	<g class="st0">
		<defs>
			<rect id="SVGID_3_" x="-1028" y="-444.9" width="2880" height="2690"/>
		</defs>
		<clipPath id="SVGID_4_">
			<use xlink:href="#SVGID_3_"  style="overflow:visible;"/>
		</clipPath>
		<g class="st1">
			<g>
				<defs>
					<rect id="SVGID_5_" y="-0.9" width="92" height="92"/>
				</defs>
				<clipPath id="SVGID_6_">
					<use xlink:href="#SVGID_5_"  style="overflow:visible;"/>
				</clipPath>
				<g class="st2">
					<defs>
						<path id="SVGID_7_" d="M45.6,0C20.4,0,0,20.4,0,45.6c0,25.2,20.4,45.6,45.6,45.6c25.2,0,45.6-20.4,45.6-45.6
							C91.1,20.4,70.7,0,45.6,0 M45.6,84.4C24.1,84.4,6.7,67,6.7,45.6c0-21.4,17.4-38.8,38.8-38.8c21.4,0,38.8,17.4,38.8,38.8
							C84.4,67,67,84.4,45.6,84.4"/>
					</defs>
					<clipPath id="SVGID_8_">
						<use xlink:href="#SVGID_7_"  style="overflow:visible;"/>
					</clipPath>
					<g class="st3">
						<defs>
							<rect id="SVGID_9_" y="-0.9" width="92" height="92"/>
						</defs>
						<clipPath id="SVGID_10_">
							<use xlink:href="#SVGID_9_"  style="overflow:visible;"/>
						</clipPath>
						<rect x="-10" y="-10" class="st4" width="111.1" height="111.1"/>
					</g>
				</g>
			</g>
		</g>
	</g>
</g>
<g>
	<defs>
		<path id="SVGID_11_" d="M61.6,31.5L40.3,51.5l-9.7-9.8c-1.3-1.3-3.5-1.4-4.8-0.1c-1.3,1.3-1.4,3.4-0.1,4.8l12.1,12.2
			c0.6,0.7,1.5,1,2.4,1c0.9,0,1.7-0.3,2.4-0.9l23.6-22.2c1.4-1.2,1.5-3.3,0.2-4.7C65.1,30.4,63,30.3,61.6,31.5"/>
	</defs>
	<clipPath id="SVGID_12_">
		<use xlink:href="#SVGID_11_"  style="overflow:visible;"/>
	</clipPath>
	<g class="st5">
		<defs>
			<rect id="SVGID_13_" x="-1028" y="-444.9" width="2880" height="2690"/>
		</defs>
		<clipPath id="SVGID_14_">
			<use xlink:href="#SVGID_13_"  style="overflow:visible;"/>
		</clipPath>
		<rect x="14.7" y="20.7" class="st6" width="62.6" height="48.8"/>
	</g>
</g>
<g class="st7">
	<defs>
		<rect id="SVGID_15_" x="0.4" width="91.1" height="91.1"/>
	</defs>
	<clipPath id="SVGID_16_" class="st8">
		<use xlink:href="#SVGID_15_"  style="overflow:visible;"/>
	</clipPath>
	<g class="st9">
		<defs>
			<rect id="SVGID_17_" x="-1403.6" y="-444.9" width="2880" height="2690"/>
		</defs>
		<clipPath id="SVGID_18_">
			<use xlink:href="#SVGID_17_"  style="overflow:visible;"/>
		</clipPath>
		<g class="st10">
			<g>
				<defs>
					<rect id="SVGID_19_" x="0.4" y="-0.9" width="92" height="92"/>
				</defs>
				<clipPath id="SVGID_20_">
					<use xlink:href="#SVGID_19_"  style="overflow:visible;"/>
				</clipPath>
				<g class="st11">
					<defs>
						<path id="SVGID_21_" d="M46,0C20.8,0,0.4,20.4,0.4,45.6c0,25.2,20.4,45.6,45.6,45.6c25.2,0,45.6-20.4,45.6-45.6
							C91.6,20.4,71.2,0,46,0 M46,84.4C24.6,84.4,7.2,67,7.2,45.6C7.2,24.1,24.6,6.7,46,6.7c21.4,0,38.8,17.4,38.8,38.8
							C84.8,67,67.4,84.4,46,84.4"/>
					</defs>
					<clipPath id="SVGID_22_">
						<use xlink:href="#SVGID_21_"  style="overflow:visible;"/>
					</clipPath>
					<g class="st12">
						<defs>
							<rect id="SVGID_23_" x="0.4" y="-0.9" width="92" height="92"/>
						</defs>
						<clipPath id="SVGID_24_">
							<use xlink:href="#SVGID_23_"  style="overflow:visible;"/>
						</clipPath>
						<rect x="-9.6" y="-10" class="st13" width="111.1" height="111.1"/>
					</g>
				</g>
			</g>
		</g>
	</g>
</g>
<g class="st7">
	<defs>
		<path id="SVGID_25_" d="M62,31.5L40.7,51.5L31,41.6c-1.3-1.3-3.5-1.4-4.8-0.1c-1.3,1.3-1.4,3.4-0.1,4.8l12.1,12.2
			c0.6,0.7,1.5,1,2.4,1c0.9,0,1.7-0.3,2.4-0.9l23.6-22.2c1.4-1.2,1.5-3.3,0.2-4.7C65.6,30.4,63.4,30.3,62,31.5"/>
	</defs>
	<clipPath id="SVGID_26_" class="st8">
		<use xlink:href="#SVGID_25_"  style="overflow:visible;"/>
	</clipPath>
	<g class="st14">
		<defs>
			<rect id="SVGID_27_" x="-1403.6" y="-444.9" width="2880" height="2690"/>
		</defs>
		<clipPath id="SVGID_28_">
			<use xlink:href="#SVGID_27_"  style="overflow:visible;"/>
		</clipPath>
		<rect x="15.2" y="20.7" class="st15" width="62.6" height="48.8"/>
	</g>
</g>
</svg>
