<?xml version="1.0" encoding="utf-8"?>
<!-- Generator: Adobe Illustrator 21.1.0, SVG Export Plug-In . SVG Version: 6.00 Build 0)  -->
<svg version="1.1" id="Layer_1" xmlns="http://www.w3.org/2000/svg" xmlns:xlink="http://www.w3.org/1999/xlink" x="0px" y="0px"
	 viewBox="0 0 45.6 45.6" style="enable-background:new 0 0 45.6 45.6;" xml:space="preserve">
<style type="text/css">
	.st0{display:none;}
	.st1{display:inline;}
	.st2{display:inline;clip-path:url(#SVGID_2_);}
	.st3{clip-path:url(#SVGID_4_);enable-background:new    ;}
	.st4{clip-path:url(#SVGID_6_);}
	.st5{clip-path:url(#SVGID_8_);}
	.st6{clip-path:url(#SVGID_10_);fill:#6CAA7F;}
	.st7{display:inline;clip-path:url(#SVGID_12_);}
	.st8{clip-path:url(#SVGID_14_);fill:#6CAA7F;}
	.st9{display:inline;clip-path:url(#SVGID_16_);}
	.st10{clip-path:url(#SVGID_18_);enable-background:new    ;}
	.st11{clip-path:url(#SVGID_20_);}
	.st12{clip-path:url(#SVGID_22_);}
	.st13{clip-path:url(#SVGID_24_);fill:#C4C6D0;}
	.st14{display:inline;clip-path:url(#SVGID_26_);}
	.st15{clip-path:url(#SVGID_28_);fill:#C4C6D0;}
	.st16{clip-path:url(#SVGID_30_);}
	.st17{clip-path:url(#SVGID_32_);enable-background:new    ;}
	.st18{clip-path:url(#SVGID_34_);}
	.st19{clip-path:url(#SVGID_36_);}
	.st20{clip-path:url(#SVGID_38_);fill:#272727;}
	.st21{clip-path:url(#SVGID_40_);}
	.st22{clip-path:url(#SVGID_42_);fill:#272727;}
	.st23{display:inline;clip-path:url(#SVGID_44_);}
	.st24{clip-path:url(#SVGID_46_);enable-background:new    ;}
	.st25{clip-path:url(#SVGID_48_);}
	.st26{clip-path:url(#SVGID_50_);}
	.st27{clip-path:url(#SVGID_52_);fill:#FF5531;}
	.st28{display:inline;clip-path:url(#SVGID_54_);}
	.st29{clip-path:url(#SVGID_56_);fill:#FF5531;}
</style>
<g class="st0">
	<defs>
		<rect id="SVGID_1_" width="91.1" height="91.1"/>
	</defs>
	<clipPath id="SVGID_2_" class="st1">
		<use xlink:href="#SVGID_1_"  style="overflow:visible;"/>
	</clipPath>
	<g class="st2">
		<defs>
			<rect id="SVGID_3_" x="-1028" y="-444.9" width="2880" height="2690"/>
		</defs>
		<clipPath id="SVGID_4_">
			<use xlink:href="#SVGID_3_"  style="overflow:visible;"/>
		</clipPath>
		<g class="st3">
			<g>
				<defs>
					<rect id="SVGID_5_" y="-0.9" width="92" height="92"/>
				</defs>
				<clipPath id="SVGID_6_">
					<use xlink:href="#SVGID_5_"  style="overflow:visible;"/>
				</clipPath>
				<g class="st4">
					<defs>
						<path id="SVGID_7_" d="M45.6,0C20.4,0,0,20.4,0,45.6c0,25.2,20.4,45.6,45.6,45.6c25.2,0,45.6-20.4,45.6-45.6
							C91.1,20.4,70.7,0,45.6,0 M45.6,84.4C24.1,84.4,6.7,67,6.7,45.6c0-21.4,17.4-38.8,38.8-38.8c21.4,0,38.8,17.4,38.8,38.8
							C84.4,67,67,84.4,45.6,84.4"/>
					</defs>
					<clipPath id="SVGID_8_">
						<use xlink:href="#SVGID_7_"  style="overflow:visible;"/>
					</clipPath>
					<g class="st5">
						<defs>
							<rect id="SVGID_9_" y="-0.9" width="92" height="92"/>
						</defs>
						<clipPath id="SVGID_10_">
							<use xlink:href="#SVGID_9_"  style="overflow:visible;"/>
						</clipPath>
						<rect x="-10" y="-10" class="st6" width="111.1" height="111.1"/>
					</g>
				</g>
			</g>
		</g>
	</g>
</g>
<g class="st0">
	<defs>
		<path id="SVGID_11_" d="M61.6,31.5L40.3,51.5l-9.7-9.8c-1.3-1.3-3.5-1.4-4.8-0.1c-1.3,1.3-1.4,3.4-0.1,4.8l12.1,12.2
			c0.6,0.7,1.5,1,2.4,1c0.9,0,1.7-0.3,2.4-0.9l23.6-22.2c1.4-1.2,1.5-3.3,0.2-4.7C65.1,30.4,63,30.3,61.6,31.5"/>
	</defs>
	<clipPath id="SVGID_12_" class="st1">
		<use xlink:href="#SVGID_11_"  style="overflow:visible;"/>
	</clipPath>
	<g class="st7">
		<defs>
			<rect id="SVGID_13_" x="-1028" y="-444.9" width="2880" height="2690"/>
		</defs>
		<clipPath id="SVGID_14_">
			<use xlink:href="#SVGID_13_"  style="overflow:visible;"/>
		</clipPath>
		<rect x="14.7" y="20.7" class="st8" width="62.6" height="48.8"/>
	</g>
</g>
<g class="st0">
	<defs>
		<rect id="SVGID_15_" x="0.4" width="91.1" height="91.1"/>
	</defs>
	<clipPath id="SVGID_16_" class="st1">
		<use xlink:href="#SVGID_15_"  style="overflow:visible;"/>
	</clipPath>
	<g class="st9">
		<defs>
			<rect id="SVGID_17_" x="-1403.6" y="-444.9" width="2880" height="2690"/>
		</defs>
		<clipPath id="SVGID_18_">
			<use xlink:href="#SVGID_17_"  style="overflow:visible;"/>
		</clipPath>
		<g class="st10">
			<g>
				<defs>
					<rect id="SVGID_19_" x="0.4" y="-0.9" width="92" height="92"/>
				</defs>
				<clipPath id="SVGID_20_">
					<use xlink:href="#SVGID_19_"  style="overflow:visible;"/>
				</clipPath>
				<g class="st11">
					<defs>
						<path id="SVGID_21_" d="M46,0C20.8,0,0.4,20.4,0.4,45.6c0,25.2,20.4,45.6,45.6,45.6c25.2,0,45.6-20.4,45.6-45.6
							C91.6,20.4,71.2,0,46,0 M46,84.4C24.6,84.4,7.2,67,7.2,45.6C7.2,24.1,24.6,6.7,46,6.7c21.4,0,38.8,17.4,38.8,38.8
							C84.8,67,67.4,84.4,46,84.4"/>
					</defs>
					<clipPath id="SVGID_22_">
						<use xlink:href="#SVGID_21_"  style="overflow:visible;"/>
					</clipPath>
					<g class="st12">
						<defs>
							<rect id="SVGID_23_" x="0.4" y="-0.9" width="92" height="92"/>
						</defs>
						<clipPath id="SVGID_24_">
							<use xlink:href="#SVGID_23_"  style="overflow:visible;"/>
						</clipPath>
						<rect x="-9.6" y="-10" class="st13" width="111.1" height="111.1"/>
					</g>
				</g>
			</g>
		</g>
	</g>
</g>
<g class="st0">
	<defs>
		<path id="SVGID_25_" d="M62,31.5L40.7,51.5L31,41.6c-1.3-1.3-3.5-1.4-4.8-0.1c-1.3,1.3-1.4,3.4-0.1,4.8l12.1,12.2
			c0.6,0.7,1.5,1,2.4,1c0.9,0,1.7-0.3,2.4-0.9l23.6-22.2c1.4-1.2,1.5-3.3,0.2-4.7C65.6,30.4,63.4,30.3,62,31.5"/>
	</defs>
	<clipPath id="SVGID_26_" class="st1">
		<use xlink:href="#SVGID_25_"  style="overflow:visible;"/>
	</clipPath>
	<g class="st14">
		<defs>
			<rect id="SVGID_27_" x="-1403.6" y="-444.9" width="2880" height="2690"/>
		</defs>
		<clipPath id="SVGID_28_">
			<use xlink:href="#SVGID_27_"  style="overflow:visible;"/>
		</clipPath>
		<rect x="15.2" y="20.7" class="st15" width="62.6" height="48.8"/>
	</g>
</g>
<g>
	<defs>
		<rect id="SVGID_29_" width="45.6" height="45.6"/>
	</defs>
	<clipPath id="SVGID_30_">
		<use xlink:href="#SVGID_29_"  style="overflow:visible;"/>
	</clipPath>
	<g class="st16">
		<defs>
			<rect id="SVGID_31_" x="-1292" y="-222.4" width="1440" height="1345"/>
		</defs>
		<clipPath id="SVGID_32_">
			<use xlink:href="#SVGID_31_"  style="overflow:visible;"/>
		</clipPath>
		<g class="st17">
			<g>
				<defs>
					<rect id="SVGID_33_" y="-0.4" width="46" height="46"/>
				</defs>
				<clipPath id="SVGID_34_">
					<use xlink:href="#SVGID_33_"  style="overflow:visible;"/>
				</clipPath>
				<g class="st18">
					<defs>
						<path id="SVGID_35_" d="M22.8,0C10.2,0,0,10.2,0,22.8c0,12.6,10.2,22.8,22.8,22.8c12.6,0,22.8-10.2,22.8-22.8
							C45.6,10.2,35.4,0,22.8,0 M22.8,42.2c-10.7,0-19.4-8.7-19.4-19.4c0-10.7,8.7-19.4,19.4-19.4c10.7,0,19.4,8.7,19.4,19.4
							C42.2,33.5,33.5,42.2,22.8,42.2"/>
					</defs>
					<clipPath id="SVGID_36_">
						<use xlink:href="#SVGID_35_"  style="overflow:visible;"/>
					</clipPath>
					<g class="st19">
						<defs>
							<rect id="SVGID_37_" y="-0.4" width="46" height="46"/>
						</defs>
						<clipPath id="SVGID_38_">
							<use xlink:href="#SVGID_37_"  style="overflow:visible;"/>
						</clipPath>
						<rect x="-5" y="-5" class="st20" width="55.6" height="55.6"/>
					</g>
				</g>
			</g>
		</g>
	</g>
</g>
<g>
	<defs>
		<path id="SVGID_39_" d="M30.8,15.8l-10.6,10l-4.9-4.9c-0.7-0.7-1.7-0.7-2.4,0c-0.7,0.6-0.7,1.7,0,2.4l6.1,6.1
			c0.3,0.3,0.7,0.5,1.2,0.5c0.4,0,0.9-0.2,1.2-0.4l11.8-11.1c0.7-0.6,0.7-1.7,0.1-2.3C32.6,15.2,31.5,15.2,30.8,15.8"/>
	</defs>
	<clipPath id="SVGID_40_">
		<use xlink:href="#SVGID_39_"  style="overflow:visible;"/>
	</clipPath>
	<g class="st21">
		<defs>
			<rect id="SVGID_41_" x="-1292" y="-222.4" width="1440" height="1345"/>
		</defs>
		<clipPath id="SVGID_42_">
			<use xlink:href="#SVGID_41_"  style="overflow:visible;"/>
		</clipPath>
		<rect x="7.4" y="10.3" class="st22" width="31.3" height="24.4"/>
	</g>
</g>
<g class="st0">
	<defs>
		<rect id="SVGID_43_" y="0" width="45.6" height="45.6"/>
	</defs>
	<clipPath id="SVGID_44_" class="st1">
		<use xlink:href="#SVGID_43_"  style="overflow:visible;"/>
	</clipPath>
	<g class="st23">
		<defs>
			<rect id="SVGID_45_" x="-1292" y="-342.4" width="1440" height="1345"/>
		</defs>
		<clipPath id="SVGID_46_">
			<use xlink:href="#SVGID_45_"  style="overflow:visible;"/>
		</clipPath>
		<g class="st24">
			<g>
				<defs>
					<rect id="SVGID_47_" y="-0.4" width="46" height="46"/>
				</defs>
				<clipPath id="SVGID_48_">
					<use xlink:href="#SVGID_47_"  style="overflow:visible;"/>
				</clipPath>
				<g class="st25">
					<defs>
						<path id="SVGID_49_" d="M22.8,0C10.2,0,0,10.2,0,22.8c0,12.6,10.2,22.8,22.8,22.8c12.6,0,22.8-10.2,22.8-22.8
							C45.6,10.2,35.4,0,22.8,0 M22.8,42.2c-10.7,0-19.4-8.7-19.4-19.4c0-10.7,8.7-19.4,19.4-19.4c10.7,0,19.4,8.7,19.4,19.4
							C42.2,33.5,33.5,42.2,22.8,42.2"/>
					</defs>
					<clipPath id="SVGID_50_">
						<use xlink:href="#SVGID_49_"  style="overflow:visible;"/>
					</clipPath>
					<g class="st26">
						<defs>
							<rect id="SVGID_51_" y="-0.4" width="46" height="46"/>
						</defs>
						<clipPath id="SVGID_52_">
							<use xlink:href="#SVGID_51_"  style="overflow:visible;"/>
						</clipPath>
						<rect x="-5" y="-5" class="st27" width="55.6" height="55.6"/>
					</g>
				</g>
			</g>
		</g>
	</g>
</g>
<g class="st0">
	<defs>
		<path id="SVGID_53_" d="M30.8,15.8l-10.6,10l-4.9-4.9c-0.7-0.7-1.7-0.7-2.4,0c-0.7,0.6-0.7,1.7,0,2.4l6.1,6.1
			c0.3,0.3,0.7,0.5,1.2,0.5c0.4,0,0.9-0.2,1.2-0.4l11.8-11.1c0.7-0.6,0.7-1.7,0.1-2.3C32.6,15.2,31.5,15.2,30.8,15.8"/>
	</defs>
	<clipPath id="SVGID_54_" class="st1">
		<use xlink:href="#SVGID_53_"  style="overflow:visible;"/>
	</clipPath>
	<g class="st28">
		<defs>
			<rect id="SVGID_55_" x="-1292" y="-342.4" width="1440" height="1345"/>
		</defs>
		<clipPath id="SVGID_56_">
			<use xlink:href="#SVGID_55_"  style="overflow:visible;"/>
		</clipPath>
		<rect x="7.4" y="10.3" class="st29" width="31.3" height="24.4"/>
	</g>
</g>
</svg>
