<?xml version="1.0" encoding="utf-8"?>
<!-- Generator: Adobe Illustrator 15.0.0, SVG Export Plug-In . SVG Version: 6.00 Build 0)  -->
<!DOCTYPE svg PUBLIC "-//W3C//DTD SVG 1.1//EN" "http://www.w3.org/Graphics/SVG/1.1/DTD/svg11.dtd">
<svg version="1.1" id="Layer_1" xmlns="http://www.w3.org/2000/svg" xmlns:xlink="http://www.w3.org/1999/xlink" x="0px" y="0px"
	 width="257.447px" height="48.228px" viewBox="0 0 257.447 48.228" enable-background="new 0 0 257.447 48.228"
	 xml:space="preserve">
<g>
	<defs>
		<path id="SVGID_1_" d="M142.892,0.331c0,0.112-0.007,0.223-0.007,0.335v45v0.402c0.459,0.102,8.194,0.085,8.548-0.015v-0.533
			c0-6.118,0.005-12.238,0-18.358c0-1.213,0.037-2.422,0.297-3.62c0.396-1.816,1.473-3.037,3.421-3.521
			c0.187-0.046,0.378-0.089,0.565-0.123c1.827-0.322,3.665-0.314,5.505-0.139c0.696,0.067,1.377,0.212,2.026,0.475
			c1.203,0.488,1.891,1.351,2.126,2.55c0.167,0.851,0.191,1.715,0.191,2.58c-0.003,6.733,0,13.468,0,20.2v0.54h8.551v-0.521V26.553
			c0-1.183,0.008-2.367-0.011-3.553c-0.016-1.034-0.167-2.057-0.451-3.056c-0.529-1.846-1.523-3.408-3.217-4.531
			c-0.87-0.573-1.804-1.022-2.799-1.366c-1.617-0.555-3.293-0.835-5.005-0.942c-2.087-0.127-4.165-0.089-6.219,0.28
			c-1.765,0.314-3.373,0.966-4.785,2.024c-0.042,0.029-0.094,0.05-0.196,0.098v-0.459c0-4.763,0-9.533,0.005-14.299
			c0-0.142,0.012-0.28,0.019-0.419H142.892z"/>
	</defs>
	<clipPath id="SVGID_2_">
		<use xlink:href="#SVGID_1_"  overflow="visible"/>
	</clipPath>
	<rect x="132.475" y="-10.079" clip-path="url(#SVGID_2_)" fill="#FFFFFF" width="52.053" height="66.626"/>
</g>
<g>
	<defs>
		<path id="SVGID_3_" d="M3.385,2.413v43.691h7.887V15.493l0.077-0.021c3.198,6.102,6.392,12.201,9.584,18.294h6.612
			c3.174-6.241,6.347-12.479,9.524-18.717c0.028,0.009,0.057,0.017,0.087,0.023v30.991c0.426,0.106,7.565,0.09,7.869-0.002V2.421
			h-8.761c-3.913,7.899-7.816,15.788-11.76,23.756C20.34,18.2,16.211,10.3,12.09,2.413H3.385z"/>
	</defs>
	<clipPath id="SVGID_4_">
		<use xlink:href="#SVGID_3_"  overflow="visible"/>
	</clipPath>
	<rect x="-7.025" y="-7.997" clip-path="url(#SVGID_4_)" fill="#FFFFFF" width="62.462" height="64.544"/>
</g>
<g>
	<defs>
		<path id="SVGID_5_" d="M188.553,26.703c0.136-0.011,0.257-0.03,0.377-0.03c3.228,0,6.457,0,9.688,0.007
			c1.005,0,1.998,0.103,2.979,0.325c2.052,0.467,3.249,1.728,3.583,3.783c0.273,1.693,0.282,3.395-0.056,5.087
			c-0.064,0.324-0.178,0.641-0.299,0.95c-0.354,0.896-0.981,1.531-1.86,1.927c-0.744,0.337-1.53,0.511-2.339,0.586
			c-0.635,0.062-1.274,0.094-1.914,0.096c-3.242,0.011-6.486,0.004-9.729,0.004h-0.431V26.703z M188.553,20.129V9.113h0.47h9.311
			c0.892,0,1.781,0.038,2.651,0.25c1.913,0.464,2.824,1.403,3.107,3.331c0.187,1.254,0.162,2.52-0.074,3.769
			c-0.345,1.86-1.462,2.994-3.313,3.41c-0.82,0.186-1.647,0.278-2.486,0.279c-3.116,0.006-6.233,0.006-9.353,0.006
			C188.774,20.159,188.678,20.145,188.553,20.129 M180.794,2.416c-0.139,0-0.272,0.01-0.431,0.018v43.705h0.536
			c5.958,0,11.916,0.002,17.872-0.002c1.505,0,3.009-0.066,4.496-0.3c1.756-0.276,3.449-0.749,5.033-1.569
			c2.013-1.037,3.529-2.536,4.403-4.642c0.464-1.125,0.74-2.296,0.854-3.5c0.15-1.577,0.159-3.159,0.008-4.735
			c-0.122-1.236-0.406-2.436-0.968-3.553c-1.107-2.219-2.896-3.683-5.205-4.542c-0.203-0.077-0.409-0.146-0.653-0.231
			c0.056-0.06,0.063-0.076,0.074-0.081c0.152-0.07,0.303-0.136,0.455-0.206c2.409-1.103,3.98-2.918,4.679-5.473
			c0.257-0.943,0.377-1.9,0.411-2.875c0.057-1.71-0.013-3.411-0.468-5.074c-0.729-2.667-2.33-4.595-4.91-5.669
			c-0.589-0.243-1.2-0.443-1.816-0.607c-1.936-0.519-3.921-0.661-5.913-0.662c-2.601-0.002-5.203-0.002-7.801-0.002
			C187.899,2.413,184.344,2.416,180.794,2.416"/>
	</defs>
	<clipPath id="SVGID_6_">
		<use xlink:href="#SVGID_5_"  overflow="visible"/>
	</clipPath>
	<rect x="169.953" y="-7.997" clip-path="url(#SVGID_6_)" fill="#FFFFFF" width="54.135" height="64.544"/>
</g>
<g>
	<defs>
		<path id="SVGID_7_" d="M217.418,2.509c4.538,6.852,9.068,13.694,13.606,20.542c-5.079,7.681-10.146,15.334-15.266,23.076h0.524
			c2.631,0,5.254-0.008,7.883,0.011c0.36,0.002,0.55-0.122,0.738-0.424c3.37-5.366,6.751-10.723,10.128-16.078
			c0.085-0.138,0.175-0.268,0.291-0.44c0.288,0.456,0.545,0.858,0.801,1.266c3.236,5.104,6.474,10.213,9.707,15.321
			c0.128,0.2,0.244,0.355,0.53,0.354c2.869-0.013,5.74-0.009,8.609-0.011c0.098,0,0.194-0.024,0.348-0.045
			c-5.156-7.702-10.281-15.355-15.417-23.029c4.604-6.86,9.199-13.707,13.823-20.6h-8.873c-3.034,4.872-6.06,9.735-9.117,14.651
			c-3.14-4.918-6.252-9.788-9.35-14.644c-0.329-0.031-1.688-0.046-3.251-0.046C220.639,2.413,217.618,2.451,217.418,2.509"/>
	</defs>
	<clipPath id="SVGID_8_">
		<use xlink:href="#SVGID_7_"  overflow="visible"/>
	</clipPath>
	<rect x="205.348" y="-7.997" clip-path="url(#SVGID_8_)" fill="#FFFFFF" width="60.381" height="64.544"/>
</g>
<g>
	<defs>
		<path id="SVGID_9_" d="M65.858,40.489c-0.776-0.004-1.546-0.118-2.296-0.332c-1.208-0.343-1.978-1.104-2.203-2.281
			c-0.237-1.226-0.235-2.474,0.042-3.7c0.233-1.035,0.896-1.714,1.963-2.035c0.829-0.246,1.683-0.371,2.544-0.392
			c1.327-0.025,2.655-0.025,3.981,0.002c0.875,0.023,1.754,0.108,2.584,0.39c0.356,0.123,0.706,0.284,1.02,0.479
			c0.695,0.435,0.952,1.114,1.045,1.863c0.048,0.374,0.077,0.753,0.08,1.13c0.01,1.513,0.008,3.026,0.005,4.536
			c0,0.106-0.014,0.21-0.022,0.332c-0.119,0.01-0.214,0.024-0.31,0.024C71.48,40.503,68.669,40.503,65.858,40.489 M66.25,14.906
			c-2.756,0.008-5.511,0.069-8.267,0.109c-0.125,0-0.248,0.02-0.385,0.031c-0.434,2.08-0.864,4.14-1.302,6.238
			c0.211,0,0.362,0.002,0.517,0c2.53-0.033,5.059-0.089,7.587-0.096c1.794-0.006,3.589,0.04,5.382,0.093
			c0.747,0.024,1.486,0.162,2.196,0.404c1.206,0.415,1.976,1.213,2.325,2.393c0.343,1.174,0.333,2.374,0.317,3.646
			c-0.37-0.167-0.678-0.323-1.001-0.45c-1.42-0.559-2.902-0.894-4.426-1.037c-2.501-0.236-4.997-0.225-7.482,0.148
			c-1.431,0.216-2.815,0.581-4.106,1.224c-1.547,0.772-2.692,1.903-3.394,3.436c-0.435,0.949-0.702,1.944-0.771,2.977
			c-0.069,1.033-0.077,2.076-0.083,3.115c-0.005,0.882,0.107,1.753,0.337,2.606c0.703,2.631,2.336,4.483,5.028,5.436
			c1.079,0.38,2.194,0.605,3.331,0.746c1.376,0.175,2.762,0.21,4.146,0.21c3.069,0.002,6.134,0.004,9.201,0
			c0.596,0,1.189-0.019,1.781-0.056c0.778-0.049,1.541-0.178,2.286-0.395c1.444-0.431,2.346-1.342,2.734-2.739
			c0.23-0.843,0.301-1.701,0.301-2.567c0.004-4.918,0.004-9.836,0-14.755c0-0.905-0.066-1.806-0.237-2.7
			c-0.597-3.115-2.363-5.346-5.434-6.605c-1.866-0.762-3.829-1.143-5.837-1.276c-1.504-0.098-3.018-0.137-4.53-0.137
			C66.391,14.906,66.321,14.906,66.25,14.906"/>
	</defs>
	<clipPath id="SVGID_10_">
		<use xlink:href="#SVGID_9_"  overflow="visible"/>
	</clipPath>
	<rect x="42.945" y="4.495" clip-path="url(#SVGID_10_)" fill="#FFFFFF" width="49.971" height="52.052"/>
</g>
<g>
	<defs>
		<path id="SVGID_11_" d="M90.833,7.833v0.511c0,8.607,0,17.216,0.002,25.823c0,0.538-0.006,1.081,0.019,1.618
			c0.059,1.391,0.188,2.772,0.522,4.131c0.281,1.147,0.742,2.221,1.545,3.152c1.007,1.173,2.356,1.872,3.9,2.293
			c1.878,0.513,3.815,0.686,5.763,0.725c2.287,0.046,4.572,0.038,6.863,0.053h0.445c0.463-2.147,0.914-4.243,1.379-6.394h-0.543
			c-1.722,0-3.446,0.017-5.171-0.005c-0.948-0.011-1.902-0.048-2.843-0.141c-1.815-0.18-2.734-0.932-3.069-2.559
			c-0.169-0.804-0.241-1.635-0.246-2.449c-0.027-4.252-0.019-8.501-0.019-12.751c0-0.117,0.019-0.234,0.031-0.385h10.876
			c0.453-2.134,0.932-4.236,1.367-6.394H99.382V6.577C96.521,6.998,93.712,7.408,90.833,7.833"/>
	</defs>
	<clipPath id="SVGID_12_">
		<use xlink:href="#SVGID_11_"  overflow="visible"/>
	</clipPath>
	<rect x="80.423" y="-3.833" clip-path="url(#SVGID_12_)" fill="#FFFFFF" width="41.642" height="60.38"/>
</g>
<g>
	<defs>
		<path id="SVGID_13_" d="M123.893,15.043c-1.587,0.125-3.154,0.363-4.677,0.819c-3.523,1.059-5.798,3.262-6.79,6.649
			c-0.433,1.488-0.688,3.003-0.729,4.542c-0.056,2.127-0.05,4.256-0.027,6.381c0.019,1.701,0.234,3.387,0.693,5.034
			c0.554,2.009,1.577,3.743,3.319,5.046c1.19,0.889,2.543,1.46,3.994,1.845c1.965,0.522,3.985,0.759,6.015,0.772
			c3.122,0.026,6.247-0.043,9.369-0.075c0.082,0,0.164-0.024,0.271-0.04c0.436-2.072,0.87-4.134,1.308-6.215
			c-0.249,0-0.446-0.003-0.642,0c-2.842,0.037-5.682,0.077-8.521,0.101c-1.265,0.01-2.527-0.048-3.771-0.282
			c-1.671-0.313-2.782-1.212-3.259-2.778c-0.027-0.093-0.059-0.183-0.081-0.276c-0.256-0.915-0.379-1.854-0.391-2.794
			c-0.032-2.182-0.043-4.365,0.003-6.545c0.017-0.87,0.153-1.745,0.327-2.603c0.354-1.757,1.479-2.849,3.347-3.171
			c0.781-0.135,1.576-0.227,2.367-0.248c2.795-0.068,5.592-0.015,8.386,0.115c0.255,0.012,0.508,0.002,0.799,0.002
			c0.436-2.054,0.866-4.106,1.313-6.222c-0.223-0.012-0.378-0.024-0.532-0.029c-0.708-0.019-1.418-0.039-2.129-0.053
			c-2.001-0.034-4.002-0.114-6.001-0.114C126.533,14.904,125.213,14.939,123.893,15.043"/>
	</defs>
	<clipPath id="SVGID_14_">
		<use xlink:href="#SVGID_13_"  overflow="visible"/>
	</clipPath>
	<rect x="101.244" y="4.495" clip-path="url(#SVGID_14_)" fill="#FFFFFF" width="45.806" height="52.052"/>
</g>
</svg>
