<?xml version="1.0" encoding="utf-8"?>
<!-- Generator: Adobe Illustrator 21.1.0, SVG Export Plug-In . SVG Version: 6.00 Build 0)  -->
<svg version="1.1" xmlns="http://www.w3.org/2000/svg" xmlns:xlink="http://www.w3.org/1999/xlink" x="0px" y="0px"
	 viewBox="0 0 110.2 80.5" style="enable-background:new 0 0 110.2 80.5;" xml:space="preserve">
<style type="text/css">
	.st0{display:none;}
	.st1{display:inline;}
	.st2{clip-path:url(#SVGID_2_);}
	.st3{clip-path:url(#SVGID_5_);}
	.st4{clip-path:url(#SVGID_8_);}
	.st5{clip-path:url(#SVGID_10_);fill:#141415;}
	.st6{clip-path:url(#SVGID_12_);}
	.st7{clip-path:url(#SVGID_14_);fill:#141415;}
	.st8{fill:#721229;}
	.st9{clip-path:url(#SVGID_16_);}
	.st10{opacity:0;clip-path:url(#SVGID_18_);}
	.st11{opacity:0;}
	.st12{clip-path:url(#SVGID_18_);}
	.st13{fill:#FFFFFF;}
	.st14{display:inline;fill:none;stroke:#FFFFFF;stroke-width:2;stroke-miterlimit:10;}
	.st15{clip-path:url(#SVGID_24_);}
	.st16{clip-path:url(#SVGID_26_);fill:#FFFFFF;}
	.st17{clip-path:url(#SVGID_28_);}
	.st18{opacity:0;clip-path:url(#SVGID_30_);}
	.st19{clip-path:url(#SVGID_30_);}
	.st20{display:inline;clip-path:url(#SVGID_36_);}
	.st21{clip-path:url(#SVGID_38_);fill:#FFFFFF;}
	.st22{clip-path:url(#SVGID_42_);}
	.st23{clip-path:url(#SVGID_44_);fill:#FFFFFF;}
	.st24{display:inline;clip-path:url(#SVGID_46_);}
	.st25{clip-path:url(#SVGID_48_);enable-background:new    ;}
	.st26{clip-path:url(#SVGID_50_);}
	.st27{clip-path:url(#SVGID_52_);fill:#D8D8D8;}
	.st28{clip-path:url(#SVGID_52_);}
	.st29{clip-path:url(#SVGID_56_);}
	.st30{clip-path:url(#SVGID_58_);enable-background:new    ;}
	.st31{clip-path:url(#SVGID_60_);}
	.st32{clip-path:url(#SVGID_62_);fill:#D8D8D8;}
	.st33{clip-path:url(#SVGID_62_);}
	.st34{display:inline;clip-path:url(#SVGID_66_);}
	.st35{clip-path:url(#SVGID_68_);enable-background:new    ;}
	.st36{clip-path:url(#SVGID_70_);}
	.st37{clip-path:url(#SVGID_72_);}
	.st38{opacity:0;clip-path:url(#SVGID_74_);}
	.st39{clip-path:url(#SVGID_74_);}
	.st40{display:inline;clip-path:url(#SVGID_80_);}
	.st41{opacity:0;clip-path:url(#SVGID_82_);}
	.st42{clip-path:url(#SVGID_82_);}
	.st43{display:inline;clip-path:url(#SVGID_88_);}
	.st44{opacity:0;clip-path:url(#SVGID_90_);}
	.st45{clip-path:url(#SVGID_90_);}
	.st46{display:inline;clip-path:url(#SVGID_96_);}
	.st47{opacity:0;clip-path:url(#SVGID_98_);}
	.st48{clip-path:url(#SVGID_98_);}
	.st49{display:inline;clip-path:url(#SVGID_104_);}
	.st50{opacity:0;clip-path:url(#SVGID_106_);}
	.st51{clip-path:url(#SVGID_106_);}
	.st52{clip-path:url(#SVGID_112_);}
	.st53{opacity:0;clip-path:url(#SVGID_114_);}
	.st54{clip-path:url(#SVGID_114_);}
	.st55{display:inline;clip-path:url(#SVGID_120_);}
	.st56{opacity:0;clip-path:url(#SVGID_122_);}
	.st57{clip-path:url(#SVGID_122_);}
	.st58{display:inline;clip-path:url(#SVGID_128_);}
	.st59{clip-path:url(#SVGID_130_);enable-background:new    ;}
	.st60{clip-path:url(#SVGID_132_);}
	.st61{clip-path:url(#SVGID_134_);}
	.st62{opacity:0;clip-path:url(#SVGID_136_);}
	.st63{clip-path:url(#SVGID_136_);}
</style>
<g id="Layer_1" class="st0">
	<g class="st1">
		<defs>
			<path id="SVGID_1_" d="M-468.4-879.5l-15.4-15.4c4.4-4.9,7.1-11.4,7.1-18.5c0-15.3-12.4-27.6-27.6-27.6
				c-15.3,0-27.6,12.4-27.6,27.6c0,15.3,12.4,27.6,27.6,27.6c7.1,0,13.6-2.7,18.5-7.1l15.4,15.4c0.3,0.3,0.6,0.4,1,0.4
				c0.8,0,1.5-0.6,1.5-1.5C-468-878.9-468.2-879.2-468.4-879.5 M-504.4-888.6c-13.7,0-24.7-11.1-24.7-24.7
				c0-13.7,11.1-24.7,24.7-24.7c13.7,0,24.7,11.1,24.7,24.7C-479.6-899.7-490.7-888.6-504.4-888.6"/>
		</defs>
		<clipPath id="SVGID_2_">
			<use xlink:href="#SVGID_1_"  style="overflow:visible;"/>
		</clipPath>
		<g class="st2">
			<defs>
				<rect id="SVGID_3_" x="-542" y="-951" width="84" height="84"/>
			</defs>
			<defs>
				<rect id="SVGID_4_" x="-840" y="-1795" width="2880" height="4774"/>
			</defs>
			<clipPath id="SVGID_5_">
				<use xlink:href="#SVGID_3_"  style="overflow:visible;"/>
			</clipPath>
			<clipPath id="SVGID_6_" class="st3">
				<use xlink:href="#SVGID_4_"  style="overflow:visible;"/>
			</clipPath>
		</g>
	</g>
	<g id="Layer_2" class="st1">
		<g>
			<defs>
				<path id="SVGID_7_" d="M-468.4-879.5l-15.4-15.4c4.4-4.9,7.1-11.4,7.1-18.5c0-15.3-12.4-27.6-27.6-27.6
					c-15.3,0-27.6,12.4-27.6,27.6c0,15.3,12.4,27.6,27.6,27.6c7.1,0,13.6-2.7,18.5-7.1l15.4,15.4c0.3,0.3,0.6,0.4,1,0.4
					c0.8,0,1.5-0.6,1.5-1.5C-468-878.9-468.2-879.2-468.4-879.5 M-504.4-888.6c-13.7,0-24.7-11.1-24.7-24.7
					c0-13.7,11.1-24.7,24.7-24.7c13.7,0,24.7,11.1,24.7,24.7C-479.6-899.7-490.7-888.6-504.4-888.6"/>
			</defs>
			<clipPath id="SVGID_8_">
				<use xlink:href="#SVGID_7_"  style="overflow:visible;"/>
			</clipPath>
			<g class="st4">
				<defs>
					<rect id="SVGID_9_" x="-840" y="-1795" width="2880" height="4774"/>
				</defs>
				<clipPath id="SVGID_10_">
					<use xlink:href="#SVGID_9_"  style="overflow:visible;"/>
				</clipPath>
				<rect x="-542" y="-951" class="st5" width="84" height="84"/>
			</g>
		</g>
		<g>
			<defs>
				<path id="SVGID_11_" d="M63.6,53.5L48.2,38.1c4.4-4.9,7.1-11.4,7.1-18.5C55.3,4.4,42.9-8,27.6-8C12.4-8,0,4.4,0,19.6
					c0,15.3,12.4,27.6,27.6,27.6c7.1,0,13.6-2.7,18.5-7.1l15.4,15.4c0.3,0.3,0.6,0.4,1,0.4c0.8,0,1.5-0.6,1.5-1.5
					C64,54.1,63.8,53.8,63.6,53.5 M27.6,44.4C14,44.4,2.9,33.3,2.9,19.6C2.9,6,14-5.1,27.6-5.1C41.3-5.1,52.4,6,52.4,19.6
					C52.4,33.3,41.3,44.4,27.6,44.4"/>
			</defs>
			<clipPath id="SVGID_12_">
				<use xlink:href="#SVGID_11_"  style="overflow:visible;"/>
			</clipPath>
			<g class="st6">
				<defs>
					<rect id="SVGID_13_" x="-308" y="-862" width="2880" height="4774"/>
				</defs>
				<clipPath id="SVGID_14_">
					<use xlink:href="#SVGID_13_"  style="overflow:visible;"/>
				</clipPath>
				<rect x="-10" y="-18" class="st7" width="84" height="84"/>
			</g>
		</g>
	</g>
</g>
<g id="Layer_3" class="st0">
</g>
<g id="Layer_6" class="st0">
	<g id="Layer_7" class="st1">
		<rect x="36.6" y="-8" class="st8" width="98.8" height="67.7"/>
	</g>
</g>
<g id="Layer_4" class="st0">
	<g class="st1">
		<defs>
			<path id="SVGID_15_" d="M123.5-8L123.5-8c6.6,0,12,5.4,12,12s-5.4,12-12,12c-6.6,0-12-5.4-12-12S116.8-8,123.5-8z"/>
		</defs>
		<clipPath id="SVGID_16_">
			<use xlink:href="#SVGID_15_"  style="overflow:visible;"/>
		</clipPath>
		<g class="st9">
			<defs>
				<rect id="SVGID_17_" x="111.5" y="-8" width="24" height="30"/>
			</defs>
			<clipPath id="SVGID_18_">
				<use xlink:href="#SVGID_17_"  style="overflow:visible;"/>
			</clipPath>
			<g class="st10">
				<g class="st11">
					<g>
						<defs>
							<rect id="SVGID_19_" x="111.5" y="-8" width="24" height="30"/>
						</defs>
						<clipPath id="SVGID_20_">
							<use xlink:href="#SVGID_19_"  style="overflow:visible;"/>
						</clipPath>
						<g style="clip-path:url(#SVGID_20_);">
							
								<image style="overflow:visible;" width="102" height="126" xlink:href="8F61C3AB.jpg"  transform="matrix(0.24 0 0 0.24 111.36 -8)">
							</image>
						</g>
					</g>
				</g>
			</g>
			<g class="st12">
				<g>
					<defs>
						<rect id="SVGID_21_" x="111.5" y="-8" width="24" height="30"/>
					</defs>
					<clipPath id="SVGID_22_">
						<use xlink:href="#SVGID_21_"  style="overflow:visible;"/>
					</clipPath>
					<g style="clip-path:url(#SVGID_22_);">
						
							<image style="overflow:visible;" width="102" height="126" xlink:href="8F61C3A9.jpg"  transform="matrix(0.24 0 0 0.24 111.36 -8)">
						</image>
					</g>
				</g>
			</g>
		</g>
	</g>
	<path class="st13" d="M124.5,10.9c-1.1,0-2.1-0.3-3.1-0.8c-0.3-0.1-0.3-0.5-0.1-0.7c0.1-0.1,0.1-0.1,0.2-0.1c0.1,0,0.2,0,0.3,0
		c0.3,0,0.7,0.1,1,0.1c2.8,0,5.2-0.9,7.4-2.7c0.2-0.1,0.3-0.2,0.5-0.1c0.2,0.1,0.2,0.3,0.1,0.5c0,0.1-0.1,0.2-0.2,0.3
		c-1.1,1.7-2.6,2.8-4.5,3.3C125.6,10.8,125.1,10.9,124.5,10.9"/>
	<path class="st13" d="M115,5.7c0-3.2,1.8-5.9,4.3-7.1c0.5-0.3,1.1-0.4,1.7-0.5c0.2,0,0.4,0.1,0.4,0.3c0.1,0.2,0,0.4-0.2,0.5
		c-0.7,0.4-1.3,0.9-1.9,1.4c-1.8,1.6-2.9,3.7-3.5,6.1c0,0,0,0,0,0.1c-0.1,0.2-0.2,0.3-0.4,0.3c-0.2,0-0.3-0.2-0.3-0.4
		C115.1,6.1,115,5.8,115,5.7"/>
	<path class="st13" d="M130,2.2c0,2.1-0.7,3.8-2,5.3c-0.1,0.1-0.1,0.1-0.2,0.2c-0.2,0-0.3,0-0.4-0.1c-0.1-0.1-0.1-0.3-0.1-0.4
		c0-0.1,0.1-0.2,0.1-0.2c0.4-0.9,0.7-1.9,0.8-2.9c0.1-0.4,0.1-0.8,0.1-1.3c0-0.4,0-0.7,0-1.1c0-1.4-0.3-2.8-0.8-4.1
		c0-0.1-0.1-0.2,0-0.3c0-0.1,0.1-0.2,0.3-0.3c0.1,0,0.3,0,0.4,0.1c0.1,0.1,0.1,0.2,0.2,0.3c0.7,1,1.2,2.1,1.4,3.4
		C130,1.2,130,1.7,130,2.2"/>
	<path class="st13" d="M117,5.3c0-0.4,0-0.8,0.1-1.2c0-0.3,0.3-0.4,0.5-0.3c0.1,0.1,0.2,0.2,0.2,0.3c0,0.2,0.1,0.3,0.1,0.5
		c0.4,1.7,1.1,3.3,2.1,4.7c0.8,1.1,1.7,2,2.8,2.7c0.1,0.1,0.2,0.2,0.2,0.3c0,0.3-0.2,0.5-0.4,0.4c-0.2-0.1-0.5-0.1-0.7-0.2
		c-1.9-0.7-3.2-2-4.1-3.8c-0.3-0.7-0.6-1.5-0.7-2.3C117.1,6,117,5.6,117,5.3"/>
	<path class="st13" d="M121.1-4c0.2,0,0.4,0,0.6,0c1.2,0.1,2.2,0.4,3.2,1c1.2,0.7,2.2,1.8,2.8,3.1c0.1,0.3,0,0.5-0.2,0.6
		c-0.1,0.1-0.3,0-0.4-0.1c-0.1-0.1-0.2-0.2-0.3-0.3c-1.4-1.3-3.1-2.2-4.9-2.7c-0.5-0.1-0.9-0.2-1.4-0.2c-0.6-0.1-1.1-0.1-1.7,0
		c-0.2,0-0.3-0.1-0.4-0.3c0-0.2,0-0.4,0.2-0.5c0.2-0.1,0.5-0.2,0.8-0.3c0.5-0.2,1-0.3,1.5-0.3C121-3.9,121-3.9,121.1-4"/>
</g>
<g id="Layer_5" class="st0">
	<circle class="st14" cx="120" cy="7" r="14"/>
	<g class="st1">
		<defs>
			<path id="SVGID_23_" d="M126.9,6.1c0-0.3-0.3-0.6-0.6-0.6h-3.7l-1.2-3.7c-0.1-0.2-0.3-0.4-0.5-0.4c-0.3,0-0.5,0.2-0.5,0.4
				l-1.2,3.7h-3.7c-0.3,0-0.6,0.3-0.6,0.6c0,0.2,0.1,0.4,0.2,0.5l3,2.3l-1.2,3.7c0,0.1,0,0.1,0,0.2c0,0.3,0.3,0.6,0.6,0.6
				c0.1,0,0.2,0,0.3-0.1h0l3-2.3l3,2.3h0c0.1,0.1,0.2,0.1,0.3,0.1c0.3,0,0.6-0.3,0.6-0.6c0-0.1,0-0.1,0-0.2l-1.2-3.7l3-2.3
				C126.8,6.4,126.9,6.3,126.9,6.1"/>
		</defs>
		<clipPath id="SVGID_24_">
			<use xlink:href="#SVGID_23_"  style="overflow:visible;"/>
		</clipPath>
		<g class="st15">
			<defs>
				<rect id="SVGID_25_" x="16.9" y="-318.7" width="1488" height="386"/>
			</defs>
			<clipPath id="SVGID_26_">
				<use xlink:href="#SVGID_25_"  style="overflow:visible;"/>
			</clipPath>
			<rect x="104.9" y="-8.7" class="st16" width="32" height="32"/>
		</g>
	</g>
	<g class="st1">
		<defs>
			<circle id="SVGID_27_" cx="119.9" cy="7" r="14"/>
		</defs>
		<clipPath id="SVGID_28_">
			<use xlink:href="#SVGID_27_"  style="overflow:visible;"/>
		</clipPath>
		<g class="st17">
			<defs>
				<rect id="SVGID_29_" x="15.9" y="-319" width="1488" height="386"/>
			</defs>
			<clipPath id="SVGID_30_">
				<use xlink:href="#SVGID_29_"  style="overflow:visible;"/>
			</clipPath>
			<g class="st18">
				<g class="st11">
					<g>
						<defs>
							<rect id="SVGID_31_" x="15.9" y="-319" width="1488" height="386"/>
						</defs>
						<clipPath id="SVGID_32_">
							<use xlink:href="#SVGID_31_"  style="overflow:visible;"/>
						</clipPath>
						<g transform="matrix(1 0 0 1 9.536743e-07 0)" style="clip-path:url(#SVGID_32_);">
							
								<image style="overflow:visible;" width="6201" height="1609" xlink:href="8F61C3AF.jpg"  transform="matrix(0.24 0 0 0.24 15.84 -319.04)">
							</image>
						</g>
					</g>
				</g>
			</g>
			<g class="st19">
				<g>
					<defs>
						<rect id="SVGID_33_" x="15.9" y="-319" width="1488" height="386"/>
					</defs>
					<clipPath id="SVGID_34_">
						<use xlink:href="#SVGID_33_"  style="overflow:visible;"/>
					</clipPath>
					<g transform="matrix(1 0 0 1 9.536743e-07 0)" style="clip-path:url(#SVGID_34_);">
						
							<image style="overflow:visible;" width="6201" height="1609" xlink:href="8F61C3A8.jpg"  transform="matrix(0.24 0 0 0.24 15.84 -319.04)">
						</image>
					</g>
				</g>
			</g>
		</g>
	</g>
</g>
<g id="Layer_8" class="st0">
	<g>
		<defs>
			<path id="SVGID_35_" d="M19-309h1464c4.4,0,8,3.6,8,8V61c0,4.4-3.6,8-8,8H19c-4.4,0-8-3.6-8-8v-362C11-305.4,14.6-309,19-309z"/>
		</defs>
		<clipPath id="SVGID_36_" class="st1">
			<use xlink:href="#SVGID_35_"  style="overflow:visible;"/>
		</clipPath>
		<g class="st20">
			<defs>
				<rect id="SVGID_37_" x="9" y="-311" width="1488" height="386"/>
			</defs>
			<clipPath id="SVGID_38_">
				<use xlink:href="#SVGID_37_"  style="overflow:visible;"/>
			</clipPath>
			<rect x="1" y="-319" class="st21" width="1500" height="398"/>
		</g>
	</g>
	<g class="st1">
		<defs>
			<rect id="SVGID_39_" x="14" y="-321" width="1488" height="386"/>
		</defs>
		<clipPath id="SVGID_40_">
			<use xlink:href="#SVGID_39_"  style="overflow:visible;"/>
		</clipPath>
	</g>
	
		<image style="display:inline;overflow:visible;" width="20" height="20" xlink:href="8F61C3AB.png"  transform="matrix(1 0 0 1 111 -3)">
	</image>
	<g class="st1">
		<defs>
			<path id="SVGID_41_" d="M125.9,4.7c0-0.3-0.3-0.6-0.6-0.6h-3.7l-1.2-3.7c-0.1-0.2-0.3-0.4-0.5-0.4c-0.3,0-0.5,0.2-0.5,0.4
				l-1.2,3.7h-3.7c-0.3,0-0.6,0.3-0.6,0.6c0,0.2,0.1,0.4,0.2,0.5l3,2.3l-1.2,3.7c0,0.1,0,0.1,0,0.2c0,0.3,0.3,0.6,0.6,0.6
				c0.1,0,0.2,0,0.3-0.1h0l3-2.3l3,2.3h0c0.1,0.1,0.2,0.1,0.3,0.1c0.3,0,0.6-0.3,0.6-0.6c0-0.1,0-0.1,0-0.2l-1.2-3.7l3-2.3
				C125.9,5.1,125.9,4.9,125.9,4.7"/>
		</defs>
		<clipPath id="SVGID_42_">
			<use xlink:href="#SVGID_41_"  style="overflow:visible;"/>
		</clipPath>
		<g class="st22">
			<defs>
				<rect id="SVGID_43_" x="15.9" y="-320" width="1488" height="386"/>
			</defs>
			<clipPath id="SVGID_44_">
				<use xlink:href="#SVGID_43_"  style="overflow:visible;"/>
			</clipPath>
			<rect x="103.9" y="-10" class="st23" width="32" height="32"/>
		</g>
	</g>
</g>
<g id="Layer_9" class="st0">
	<g id="Layer_10" class="st1">
		<g class="st0">
			<defs>
				<circle id="SVGID_45_" cx="38" cy="30" r="38"/>
			</defs>
			<clipPath id="SVGID_46_" class="st1">
				<use xlink:href="#SVGID_45_"  style="overflow:visible;"/>
			</clipPath>
			<g class="st24">
				<defs>
					<rect id="SVGID_47_" x="-40" y="-270" width="1488" height="386"/>
				</defs>
				<clipPath id="SVGID_48_">
					<use xlink:href="#SVGID_47_"  style="overflow:visible;"/>
				</clipPath>
				<g class="st25">
					<g>
						<defs>
							<rect id="SVGID_49_" y="-8" width="76" height="76"/>
						</defs>
						<clipPath id="SVGID_50_">
							<use xlink:href="#SVGID_49_"  style="overflow:visible;"/>
						</clipPath>
						<g class="st26">
							<defs>
								<rect id="SVGID_51_" y="-8" width="76" height="76"/>
							</defs>
							<clipPath id="SVGID_52_">
								<use xlink:href="#SVGID_51_"  style="overflow:visible;"/>
							</clipPath>
							<rect x="-10" y="-18" class="st27" width="96" height="96"/>
							<g class="st28">
								<defs>
									<rect id="SVGID_53_" x="-4" y="-10" width="86" height="86"/>
								</defs>
								<clipPath id="SVGID_54_">
									<use xlink:href="#SVGID_53_"  style="overflow:visible;"/>
								</clipPath>
								<g style="clip-path:url(#SVGID_54_);">
									
										<image style="overflow:visible;" width="512" height="512" xlink:href="8F61C3A7.jpg"  transform="matrix(0.168 0 0 0.168 -4 -10)">
									</image>
								</g>
							</g>
						</g>
					</g>
				</g>
			</g>
		</g>
		<g>
			<defs>
				<circle id="SVGID_55_" cx="38" cy="30" r="38"/>
			</defs>
			<clipPath id="SVGID_56_">
				<use xlink:href="#SVGID_55_"  style="overflow:visible;"/>
			</clipPath>
			<g class="st29">
				<defs>
					<rect id="SVGID_57_" x="-40" y="-270" width="1488" height="386"/>
				</defs>
				<clipPath id="SVGID_58_">
					<use xlink:href="#SVGID_57_"  style="overflow:visible;"/>
				</clipPath>
				<g class="st30">
					<g>
						<defs>
							<rect id="SVGID_59_" y="-8" width="76" height="76"/>
						</defs>
						<clipPath id="SVGID_60_">
							<use xlink:href="#SVGID_59_"  style="overflow:visible;"/>
						</clipPath>
						<g class="st31">
							<defs>
								<rect id="SVGID_61_" y="-8" width="76" height="76"/>
							</defs>
							<clipPath id="SVGID_62_">
								<use xlink:href="#SVGID_61_"  style="overflow:visible;"/>
							</clipPath>
							<rect x="-10" y="-18" class="st32" width="96" height="96"/>
							<g class="st33">
								<defs>
									<rect id="SVGID_63_" x="-4" y="-10" width="86" height="86"/>
								</defs>
								<clipPath id="SVGID_64_">
									<use xlink:href="#SVGID_63_"  style="overflow:visible;"/>
								</clipPath>
								<g style="clip-path:url(#SVGID_64_);">
									
										<image style="overflow:visible;" width="533" height="533" xlink:href="8F61C3B7.jpg"  transform="matrix(0.1614 0 0 0.1614 -4 -10)">
									</image>
								</g>
							</g>
						</g>
					</g>
				</g>
			</g>
		</g>
	</g>
</g>
<g id="Layer_11">
	<g id="Layer_12">
		<g class="st0">
			<defs>
				<rect id="SVGID_65_" x="0.7" y="-8" width="96" height="96"/>
			</defs>
			<clipPath id="SVGID_66_" class="st1">
				<use xlink:href="#SVGID_65_"  style="overflow:visible;"/>
			</clipPath>
			<g class="st34">
				<defs>
					<rect id="SVGID_67_" x="-1657.3" y="-8" width="2484" height="166"/>
				</defs>
				<clipPath id="SVGID_68_">
					<use xlink:href="#SVGID_67_"  style="overflow:visible;"/>
				</clipPath>
				<g class="st35">
					<g>
						<defs>
							<rect id="SVGID_69_" x="0.7" y="-8" width="96" height="96"/>
						</defs>
						<clipPath id="SVGID_70_">
							<use xlink:href="#SVGID_69_"  style="overflow:visible;"/>
						</clipPath>
						<g class="st36">
							<defs>
								<path id="SVGID_71_" d="M48.7-8c-26.5,0-48,21.5-48,48s21.5,48,48,48s48-21.5,48-48S75.2-8,48.7-8 M48.7,83.6
									C24.6,83.6,5,64.1,5,40C5,15.9,24.6-3.6,48.7-3.6c24.1,0,43.6,19.5,43.6,43.6C92.3,64.1,72.8,83.6,48.7,83.6 M56.8,28.3
									l1.4-5.6l-3.5-0.8l-1.4,5.4c-0.9-0.2-1.9-0.4-2.8-0.6l1.4-5.5l-3.5-0.8L47,26c-0.8-0.2-1.5-0.3-2.2-0.5l0,0L40,24.3L39,27.9
									c0,0,2.6,0.6,2.5,0.6c1.4,0.3,1.7,1.3,1.6,2l-1.6,6.4c0.1,0,0.2,0.1,0.4,0.1c-0.1,0-0.2-0.1-0.4-0.1l-2.3,8.9
									c-0.2,0.4-0.6,1-1.6,0.8c0,0.1-2.6-0.6-2.6-0.6l-1.7,3.9l4.6,1.1c0.8,0.2,1.7,0.4,2.5,0.6L39,57.3l3.5,0.8l1.4-5.6
									c1,0.3,1.9,0.5,2.8,0.7l-1.4,5.6l3.5,0.8l1.5-5.6c6,1.1,10.5,0.7,12.4-4.6c1.5-4.2-0.1-6.7-3.2-8.3c2.3-0.5,4-2,4.5-5
									C64.5,32,61.3,29.8,56.8,28.3 M55.8,47.1c-1.1,4.2-8.4,1.9-10.8,1.4l1.9-7.5C49.4,41.5,57,42.6,55.8,47.1 M56.9,36.1
									c-1,3.8-7.1,1.9-9.1,1.4l1.7-6.8C51.6,31.2,58,32.1,56.9,36.1"/>
							</defs>
							<clipPath id="SVGID_72_">
								<use xlink:href="#SVGID_71_"  style="overflow:visible;"/>
							</clipPath>
							<g class="st37">
								<defs>
									<rect id="SVGID_73_" x="0.7" y="-8" width="96" height="96"/>
								</defs>
								<clipPath id="SVGID_74_">
									<use xlink:href="#SVGID_73_"  style="overflow:visible;"/>
								</clipPath>
								<g class="st38">
									<g class="st11">
										<g>
											<defs>
												<rect id="SVGID_75_" x="0.7" y="-8" width="96" height="96"/>
											</defs>
											<clipPath id="SVGID_76_">
												<use xlink:href="#SVGID_75_"  style="overflow:visible;"/>
											</clipPath>
											<g style="clip-path:url(#SVGID_76_);">
												
													<image style="overflow:visible;" width="402" height="400" xlink:href="8F61C3B9.jpg"  transform="matrix(0.24 0 0 0.24 0.48 -8)">
												</image>
											</g>
										</g>
									</g>
								</g>
								<g class="st39">
									<g>
										<defs>
											<rect id="SVGID_77_" x="0.7" y="-8" width="96" height="96"/>
										</defs>
										<clipPath id="SVGID_78_">
											<use xlink:href="#SVGID_77_"  style="overflow:visible;"/>
										</clipPath>
										<g style="clip-path:url(#SVGID_78_);">
											
												<image style="overflow:visible;" width="402" height="400" xlink:href="8F61C3BB.jpg"  transform="matrix(0.24 0 0 0.24 0.48 -8)">
											</image>
										</g>
									</g>
								</g>
							</g>
						</g>
					</g>
				</g>
			</g>
		</g>
		<g class="st0">
			<defs>
				<path id="SVGID_79_" d="M87.9,20.4V-1.5C87.9-5.1,85-8,81.4-8c-3.6,0-6.5,2.9-6.5,6.5v1.6L11.6,18.8c-0.7-0.4-1.4-0.6-2.2-0.6H5
					c-2.4,0-4.4,2-4.4,4.4v21.8c0,2.4,2,4.4,4.4,4.4h4.4c0.8,0,1.6-0.2,2.2-0.6l2.6,0.8l8.3,37.4l0,0c0.2,1,1,1.7,2.1,1.7h17.5
					c1.2,0,2.2-1,2.2-2.2c0-0.2-0.1-0.3-0.1-0.5l0,0l-6.9-29.7l37.5,11v1.6c0,3.6,2.9,6.5,6.5,6.5c3.6,0,6.5-2.9,6.5-6.5V46.5
					c4.8,0,8.7-3.9,8.7-8.7v-8.7C96.7,24.3,92.8,20.4,87.9,20.4z M5,44.4h4.4V22.5H5V44.4z M39.4,83.6h-13l-1-4.4h12.9L39.4,83.6z
					 M37.3,74.9H24.5L19,50.3l13.5,4L37.3,74.9z M74.8,62.2l-61.1-18V22.7l61.1-18V62.2z M83.6,68.4c0,1.2-1,2.2-2.2,2.2
					c-1.2,0-2.2-1-2.2-2.2V-1.5c0-1.2,1-2.2,2.2-2.2c1.2,0,2.2,1,2.2,2.2V68.4z M92.3,37.8c0,2.4-2,4.4-4.4,4.4V24.7
					c2.4,0,4.4,2,4.4,4.4V37.8z"/>
			</defs>
			<clipPath id="SVGID_80_" class="st1">
				<use xlink:href="#SVGID_79_"  style="overflow:visible;"/>
			</clipPath>
			<g class="st40">
				<defs>
					<rect id="SVGID_81_" x="-113.3" y="-8" width="2484" height="166"/>
				</defs>
				<clipPath id="SVGID_82_">
					<use xlink:href="#SVGID_81_"  style="overflow:visible;"/>
				</clipPath>
				<g class="st41">
					<g class="st11">
						<g>
							<defs>
								<rect id="SVGID_83_" x="-113.3" y="-8" width="2484" height="166"/>
							</defs>
							<clipPath id="SVGID_84_">
								<use xlink:href="#SVGID_83_"  style="overflow:visible;"/>
							</clipPath>
							<g style="clip-path:url(#SVGID_84_);">
								
									<image style="overflow:visible;" width="10351" height="692" xlink:href="B92147C8.jpg"  transform="matrix(0.24 0 0 0.24 -113.52 -8)">
								</image>
							</g>
						</g>
					</g>
				</g>
				<g class="st42">
					<g>
						<defs>
							<rect id="SVGID_85_" x="-113.3" y="-8" width="2484" height="166"/>
						</defs>
						<clipPath id="SVGID_86_">
							<use xlink:href="#SVGID_85_"  style="overflow:visible;"/>
						</clipPath>
						<g style="clip-path:url(#SVGID_86_);">
							
								<image style="overflow:visible;" width="10351" height="692" xlink:href="B92147CF.jpg"  transform="matrix(0.24 0 0 0.24 -113.52 -8)">
							</image>
						</g>
					</g>
				</g>
			</g>
		</g>
		<g class="st0">
			<defs>
				<path id="SVGID_87_" d="M11.3,2.5c-1.2,0-2.1,1-2.1,2.1c0,1.2,1,2.1,2.1,2.1c1.2,0,2.1-1,2.1-2.1C13.5,3.5,12.5,2.5,11.3,2.5z
					 M19.9,2.5c-1.2,0-2.1,1-2.1,2.1c0,1.2,1,2.1,2.1,2.1c1.2,0,2.1-1,2.1-2.1C22,3.5,21.1,2.5,19.9,2.5z M28.4,2.5
					c-1.2,0-2.1,1-2.1,2.1c0,1.2,1,2.1,2.1,2.1c1.2,0,2.1-1,2.1-2.1C30.6,3.5,29.6,2.5,28.4,2.5z M86.1-6H9.2C4.5-6,0.7-2.2,0.7,2.5
					v76.9c0,4.7,3.8,8.5,8.5,8.5h76.9c4.7,0,8.5-3.8,8.5-8.5V2.5C94.7-2.2,90.8-6,86.1-6z M90.4,79.5c0,2.4-1.9,4.3-4.3,4.3H9.2
					c-2.4,0-4.3-1.9-4.3-4.3V15.4h85.5V79.5z M90.4,11.1H4.9V2.5c0-2.4,1.9-4.3,4.3-4.3h76.9c2.4,0,4.3,1.9,4.3,4.3V11.1z M84,2.5
					H37c-1.2,0-2.1,1-2.1,2.1c0,1.2,1,2.1,2.1,2.1h47c1.2,0,2.1-1,2.1-2.1C86.1,3.5,85.2,2.5,84,2.5z"/>
			</defs>
			<clipPath id="SVGID_88_" class="st1">
				<use xlink:href="#SVGID_87_"  style="overflow:visible;"/>
			</clipPath>
			<g class="st43">
				<defs>
					<rect id="SVGID_89_" x="-415.3" y="-8" width="2484" height="166"/>
				</defs>
				<clipPath id="SVGID_90_">
					<use xlink:href="#SVGID_89_"  style="overflow:visible;"/>
				</clipPath>
				<g class="st44">
					<g class="st11">
						<g>
							<defs>
								<rect id="SVGID_91_" x="-415.3" y="-8" width="2484" height="166"/>
							</defs>
							<clipPath id="SVGID_92_">
								<use xlink:href="#SVGID_91_"  style="overflow:visible;"/>
							</clipPath>
							<g style="clip-path:url(#SVGID_92_);">
								
									<image style="overflow:visible;" width="10351" height="692" xlink:href="B92147C9.jpg"  transform="matrix(0.24 0 0 0.24 -415.44 -8)">
								</image>
							</g>
						</g>
					</g>
				</g>
				<g class="st45">
					<g>
						<defs>
							<rect id="SVGID_93_" x="-415.3" y="-8" width="2484" height="166"/>
						</defs>
						<clipPath id="SVGID_94_">
							<use xlink:href="#SVGID_93_"  style="overflow:visible;"/>
						</clipPath>
						<g style="clip-path:url(#SVGID_94_);">
							
								<image style="overflow:visible;" width="10351" height="692" xlink:href="B92147CB.jpg"  transform="matrix(0.24 0 0 0.24 -415.44 -8)">
							</image>
						</g>
					</g>
				</g>
			</g>
		</g>
		<g class="st0">
			<defs>
				<path id="SVGID_95_" d="M24.2,64.5l18.2-3.1l49.1-49.1c1.9-1.9,3.1-4.6,3.1-7.6C94.7-1.2,89.9-6,84-6c-3,0-5.6,1.2-7.6,3.1
					L27.3,46.3L24.2,64.5z M79.5,0.2C80.6-1,82.2-1.7,84-1.7c3.5,0,6.4,2.9,6.4,6.4c0,1.8-0.7,3.4-1.9,4.5L85.8,12l-9.1-9.1
					L79.5,0.2z M73.7,5.9l9.1,9.1L43.4,54.3v-9.1h-9.1L73.7,5.9z M31.2,49.5h8v8l-9.6,1.6L31.2,49.5z M92.5,26c-1.2,0-2.1,1-2.1,2.1
					v47c0,4.7-3.8,8.5-8.5,8.5H13.5c-4.7,0-8.5-3.8-8.5-8.5V6.8c0-4.7,3.8-8.5,8.5-8.5h47c1.2,0,2.1-1,2.1-2.1c0-1.2-1-2.1-2.1-2.1
					h-47C6.4-6,0.7-0.3,0.7,6.8v68.4C0.7,82.3,6.4,88,13.5,88h68.4c7.1,0,12.8-5.7,12.8-12.8v-47C94.7,27,93.7,26,92.5,26z"/>
			</defs>
			<clipPath id="SVGID_96_" class="st1">
				<use xlink:href="#SVGID_95_"  style="overflow:visible;"/>
			</clipPath>
			<g class="st46">
				<defs>
					<rect id="SVGID_97_" x="-721.3" y="-8" width="2484" height="166"/>
				</defs>
				<clipPath id="SVGID_98_">
					<use xlink:href="#SVGID_97_"  style="overflow:visible;"/>
				</clipPath>
				<g class="st47">
					<g class="st11">
						<g>
							<defs>
								<rect id="SVGID_99_" x="-721.3" y="-8" width="2484" height="166"/>
							</defs>
							<clipPath id="SVGID_100_">
								<use xlink:href="#SVGID_99_"  style="overflow:visible;"/>
							</clipPath>
							<g style="clip-path:url(#SVGID_100_);">
								
									<image style="overflow:visible;" width="10351" height="692" xlink:href="B92147D6.jpg"  transform="matrix(0.24 0 0 0.24 -721.44 -8)">
								</image>
							</g>
						</g>
					</g>
				</g>
				<g class="st48">
					<g>
						<defs>
							<rect id="SVGID_101_" x="-721.3" y="-8" width="2484" height="166"/>
						</defs>
						<clipPath id="SVGID_102_">
							<use xlink:href="#SVGID_101_"  style="overflow:visible;"/>
						</clipPath>
						<g style="clip-path:url(#SVGID_102_);">
							
								<image style="overflow:visible;" width="10351" height="692" xlink:href="B92147D7.jpg"  transform="matrix(0.24 0 0 0.24 -721.44 -8)">
							</image>
						</g>
					</g>
				</g>
			</g>
		</g>
		<g class="st0">
			<defs>
				<path id="SVGID_103_" d="M19.9,19.6h25.6c1.2,0,2.1-1,2.1-2.1c0-1.2-1-2.1-2.1-2.1H19.9c-1.2,0-2.1,1-2.1,2.1
					C17.8,18.7,18.7,19.6,19.9,19.6z M19.9,32.5h55.5c1.2,0,2.1-1,2.1-2.1c0-1.2-1-2.1-2.1-2.1H19.9c-1.2,0-2.1,1-2.1,2.1
					C17.8,31.5,18.7,32.5,19.9,32.5z M90.4-6H4.9C2.6-6,0.7-4.1,0.7-1.7v68.4L22,88h68.4c2.4,0,4.3-1.9,4.3-4.3V-1.7
					C94.7-4.1,92.8-6,90.4-6z M22,81.6l-15-15h15V81.6z M90.4,83.7H26.3V64.5c0-1.2-1-2.1-2.1-2.1H4.9V-1.7h85.5V83.7z M19.9,45.3
					h42.7c1.2,0,2.1-1,2.1-2.1c0-1.2-1-2.1-2.1-2.1H19.9c-1.2,0-2.1,1-2.1,2.1C17.8,44.3,18.7,45.3,19.9,45.3z"/>
			</defs>
			<clipPath id="SVGID_104_" class="st1">
				<use xlink:href="#SVGID_103_"  style="overflow:visible;"/>
			</clipPath>
			<g class="st49">
				<defs>
					<rect id="SVGID_105_" x="-1027.3" y="-8" width="2484" height="166"/>
				</defs>
				<clipPath id="SVGID_106_">
					<use xlink:href="#SVGID_105_"  style="overflow:visible;"/>
				</clipPath>
				<g class="st50">
					<g class="st11">
						<g>
							<defs>
								<rect id="SVGID_107_" x="-1027.3" y="-8" width="2484" height="166"/>
							</defs>
							<clipPath id="SVGID_108_">
								<use xlink:href="#SVGID_107_"  style="overflow:visible;"/>
							</clipPath>
							<g style="clip-path:url(#SVGID_108_);">
								
									<image style="overflow:visible;" width="10351" height="692" xlink:href="B92147D8.jpg"  transform="matrix(0.24 0 0 0.24 -1027.4399 -8)">
								</image>
							</g>
						</g>
					</g>
				</g>
				<g class="st51">
					<g>
						<defs>
							<rect id="SVGID_109_" x="-1027.3" y="-8" width="2484" height="166"/>
						</defs>
						<clipPath id="SVGID_110_">
							<use xlink:href="#SVGID_109_"  style="overflow:visible;"/>
						</clipPath>
						<g style="clip-path:url(#SVGID_110_);">
							
								<image style="overflow:visible;" width="10351" height="692" xlink:href="B92147DB.jpg"  transform="matrix(0.24 0 0 0.24 -1027.4399 -8)">
							</image>
						</g>
					</g>
				</g>
			</g>
		</g>
		<g>
			<defs>
				<path id="SVGID_111_" d="M62.5,30h30c1.4,0,2.5-1.1,2.5-2.5c0-1.4-1.1-2.5-2.5-2.5h-30c-1.4,0-2.5,1.1-2.5,2.5
					C60,28.9,61.1,30,62.5,30z M62.5,50h30c1.4,0,2.5-1.1,2.5-2.5S93.9,45,92.5,45h-30c-1.4,0-2.5,1.1-2.5,2.5S61.1,50,62.5,50z
					 M62.5,40h20c1.4,0,2.5-1.1,2.5-2.5c0-1.4-1.1-2.5-2.5-2.5h-20c-1.4,0-2.5,1.1-2.5,2.5C60,38.9,61.1,40,62.5,40z M62.5,20h20
					c1.4,0,2.5-1.1,2.5-2.5c0-1.4-1.1-2.5-2.5-2.5h-20c-1.4,0-2.5,1.1-2.5,2.5C60,18.9,61.1,20,62.5,20z M17.5,50h20
					c1.4,0,2.5-1.1,2.5-2.5S38.9,45,37.5,45h-20c-1.4,0-2.5,1.1-2.5,2.5S16.1,50,17.5,50z M105,0H5C2.2,0,0,2.2,0,5v70
					c0,2.8,2.2,5,5,5h100c2.8,0,5-2.2,5-5V5C110,2.2,107.8,0,105,0z M105,75H80V65h5c1.4,0,2.5-1.1,2.5-2.5c0-1.4-1.1-2.5-2.5-2.5
					H70c-1.4,0-2.5,1.1-2.5,2.5c0,1.4,1.1,2.5,2.5,2.5h5v10H35V65h5c1.4,0,2.5-1.1,2.5-2.5c0-1.4-1.1-2.5-2.5-2.5H25
					c-1.4,0-2.5,1.1-2.5,2.5c0,1.4,1.1,2.5,2.5,2.5h5v10H5V5h100V75z M17.5,40h30c1.4,0,2.5-1.1,2.5-2.5c0-1.4-1.1-2.5-2.5-2.5h-30
					c-1.4,0-2.5,1.1-2.5,2.5C15,38.9,16.1,40,17.5,40z M17.5,30h20c1.4,0,2.5-1.1,2.5-2.5c0-1.4-1.1-2.5-2.5-2.5h-20
					c-1.4,0-2.5,1.1-2.5,2.5C15,28.9,16.1,30,17.5,30z M17.5,20h30c1.4,0,2.5-1.1,2.5-2.5c0-1.4-1.1-2.5-2.5-2.5h-30
					c-1.4,0-2.5,1.1-2.5,2.5C15,18.9,16.1,20,17.5,20z"/>
			</defs>
			<clipPath id="SVGID_112_">
				<use xlink:href="#SVGID_111_"  style="overflow:visible;"/>
			</clipPath>
			<g class="st52">
				<defs>
					<rect id="SVGID_113_" x="-1964" y="-8" width="2484" height="166"/>
				</defs>
				<clipPath id="SVGID_114_">
					<use xlink:href="#SVGID_113_"  style="overflow:visible;"/>
				</clipPath>
				<g class="st53">
					<g class="st11">
						<g>
							<defs>
								<rect id="SVGID_115_" x="-1964" y="-8" width="2484" height="166"/>
							</defs>
							<clipPath id="SVGID_116_">
								<use xlink:href="#SVGID_115_"  style="overflow:visible;"/>
							</clipPath>
							<g style="clip-path:url(#SVGID_116_);">
								
									<image style="overflow:visible;" width="10351" height="692" xlink:href="B92147D9.jpg"  transform="matrix(0.24 0 0 0.24 -1964.16 -8)">
								</image>
							</g>
						</g>
					</g>
				</g>
				<g class="st54">
					<g>
						<defs>
							<rect id="SVGID_117_" x="-1964" y="-8" width="2484" height="166"/>
						</defs>
						<clipPath id="SVGID_118_">
							<use xlink:href="#SVGID_117_"  style="overflow:visible;"/>
						</clipPath>
						<g style="clip-path:url(#SVGID_118_);">
							
								<image style="overflow:visible;" width="10351" height="692" xlink:href="B92147DF.jpg"  transform="matrix(0.24 0 0 0.24 -1964.16 -8)">
							</image>
						</g>
					</g>
				</g>
			</g>
		</g>
		<g class="st0">
			<defs>
				<path id="SVGID_119_" d="M87.9-8H9.4C4.6-8,0.7-4.1,0.7,0.7v65.5c0,4.8,3.9,8.7,8.7,8.7h30.5v8.7h-6.5c-1.2,0-2.2,1-2.2,2.2
					c0,1.2,1,2.2,2.2,2.2h30.5c1.2,0,2.2-1,2.2-2.2c0-1.2-1-2.2-2.2-2.2h-6.5v-8.7h30.5c4.8,0,8.7-3.9,8.7-8.7V0.7
					C96.7-4.1,92.8-8,87.9-8z M44.3,83.6H53v-8.7h-8.7V83.6z M92.3,66.2c0,2.4-2,4.4-4.4,4.4H9.4c-2.4,0-4.4-2-4.4-4.4v-4.4h87.3
					V66.2z M92.3,57.5H5V0.7c0-2.4,2-4.4,4.4-4.4h78.5c2.4,0,4.4,2,4.4,4.4V57.5z"/>
			</defs>
			<clipPath id="SVGID_120_" class="st1">
				<use xlink:href="#SVGID_119_"  style="overflow:visible;"/>
			</clipPath>
			<g class="st55">
				<defs>
					<rect id="SVGID_121_" x="-2275.3" y="-8" width="2484" height="166"/>
				</defs>
				<clipPath id="SVGID_122_">
					<use xlink:href="#SVGID_121_"  style="overflow:visible;"/>
				</clipPath>
				<g class="st56">
					<g class="st11">
						<g>
							<defs>
								<rect id="SVGID_123_" x="-2275.3" y="-8" width="2484" height="166"/>
							</defs>
							<clipPath id="SVGID_124_">
								<use xlink:href="#SVGID_123_"  style="overflow:visible;"/>
							</clipPath>
							<g style="clip-path:url(#SVGID_124_);">
								
									<image style="overflow:visible;" width="10352" height="692" xlink:href="B92147F3.jpg"  transform="matrix(0.24 0 0 0.24 -2275.4399 -8)">
								</image>
							</g>
						</g>
					</g>
				</g>
				<g class="st57">
					<g>
						<defs>
							<rect id="SVGID_125_" x="-2275.3" y="-8" width="2484" height="166"/>
						</defs>
						<clipPath id="SVGID_126_">
							<use xlink:href="#SVGID_125_"  style="overflow:visible;"/>
						</clipPath>
						<g style="clip-path:url(#SVGID_126_);">
							
								<image style="overflow:visible;" width="10352" height="692" xlink:href="B92147FD.jpg"  transform="matrix(0.24 0 0 0.24 -2275.4399 -8)">
							</image>
						</g>
					</g>
				</g>
			</g>
		</g>
		<g class="st0">
			<defs>
				<rect id="SVGID_127_" x="0.7" y="-4" width="96" height="87.3"/>
			</defs>
			<clipPath id="SVGID_128_" class="st1">
				<use xlink:href="#SVGID_127_"  style="overflow:visible;"/>
			</clipPath>
			<g class="st58">
				<defs>
					<rect id="SVGID_129_" x="-1341.3" y="-8" width="2484" height="166"/>
				</defs>
				<clipPath id="SVGID_130_">
					<use xlink:href="#SVGID_129_"  style="overflow:visible;"/>
				</clipPath>
				<g class="st59">
					<g>
						<defs>
							<rect id="SVGID_131_" x="0.7" y="-4" width="96" height="88"/>
						</defs>
						<clipPath id="SVGID_132_">
							<use xlink:href="#SVGID_131_"  style="overflow:visible;"/>
						</clipPath>
						<g class="st60">
							<defs>
								<path id="SVGID_133_" d="M80.8,59.7c0,0-8.1-1.9-8.1-10c0-7.2,3.9-9.7,5.1-11.4c0,0,2.6-2.2,0.9-9.4
									c2.9-3.9,3.6-10.9,0.4-18.3c-2-4.6-4.5-7.2-7.2-8.7c-2-1.1-4.2-1.5-6.4-1.5c-3.3,0-6.4,0.9-8.3,1.7c0.6,1.1,1.1,2.2,1.6,3.4
									c0.1,0.2,0.1,0.4,0.2,0.5c1.2-0.6,3.7-1.4,6.5-1.4c1.7,0,3.2,0.3,4.3,1c1.4,0.7,3.4,2.2,5.2,6.6c2.7,6.2,2,11.5,0.1,14
									c-0.8,1-1,2.4-0.7,3.6c0.9,3.6,0.3,5.1,0.2,5.4c-0.1,0.1-0.2,0.3-0.3,0.4c-0.1,0.1-0.4,0.4-0.6,0.7c-1.9,2-5.4,5.8-5.4,13.3
									c0,9,7.2,13.2,11.2,14.2c5.7,2,11.4,4.5,12.5,10.6H78.3c0.4,1.3,0.7,2.8,0.8,4.4h15.6c2,0,2-2,2-2
									C96.7,65.2,86,61.5,80.8,59.7z M57.5,62c0,0-8.9-2.1-8.9-11.1c0-8,3.6-10.8,5-12.7c0,0,2.9-2.5,1-10.5
									c3.2-4.4,3.8-12.1,0.3-20.4c-2.2-5.2-4.1-8-7.1-9.6c-2.2-1.2-4.6-1.7-7-1.7c-4.5,0-8.7,1.6-10.4,2.6
									C25.5,0.8,22.1,2.8,19,10.5c-2.5,6.2,0.5,13.4,2.1,16.9c-1.9,8,0.8,10.8,0.8,10.8c1.4,1.9,5,4.7,5,12.7
									C26.9,59.9,18,62,18,62c-5.6,2-17.4,6-17.4,19.1c0,0,0,2.2,2.2,2.2h69.8c2.2,0,2.2-2.2,2.2-2.2C74.8,68,63.1,64,57.5,62z
									 M5.2,78.9c1.1-7.5,7.7-10.5,14.1-12.8c4.3-1.1,12-5.6,12-15.3c0-8.3-3.4-12.4-5.3-14.5c-0.2-0.3-0.4-0.5-0.6-0.7
									c-0.1-0.1-0.1-0.1-0.2-0.2c-0.2-0.3-1-2.3,0.1-7c0.2-0.9,0.1-1.9-0.3-2.8c-1.1-2.4-4-8.7-2-13.4c2.6-6.4,4.9-7.6,9.1-9.5
									c0.2-0.1,0.4-0.2,0.6-0.3c1.1-0.7,4.5-1.9,8-1.9c1.9,0,3.6,0.4,4.9,1.1C47.3,2.3,48.8,4,50.9,9c3,7.1,2.3,13.2,0.2,16.1
									c-0.8,1-1,2.4-0.7,3.6c1.1,4.4,0.3,6.2,0.1,6.5c-0.1,0.1-0.3,0.3-0.4,0.4c-0.2,0.2-0.4,0.5-0.6,0.7
									c-1.8,2.2-5.3,6.2-5.3,14.5c0,9.7,7.7,14.2,12,15.3c6.3,2.2,13,5.3,14.1,12.8H5.2z"/>
							</defs>
							<clipPath id="SVGID_134_">
								<use xlink:href="#SVGID_133_"  style="overflow:visible;"/>
							</clipPath>
							<g class="st61">
								<defs>
									<rect id="SVGID_135_" x="0.7" y="-4" width="96" height="88"/>
								</defs>
								<clipPath id="SVGID_136_">
									<use xlink:href="#SVGID_135_"  style="overflow:visible;"/>
								</clipPath>
								<g class="st62">
									<g class="st11">
										<g>
											<defs>
												<rect id="SVGID_137_" x="0.7" y="-4" width="96" height="88"/>
											</defs>
											<clipPath id="SVGID_138_">
												<use xlink:href="#SVGID_137_"  style="overflow:visible;"/>
											</clipPath>
											<g style="clip-path:url(#SVGID_138_);">
												
													<image style="overflow:visible;" width="402" height="368" xlink:href="B92147FF.jpg"  transform="matrix(0.24 0 0 0.24 0.48 -4.16)">
												</image>
											</g>
										</g>
									</g>
								</g>
								<g class="st63">
									<g>
										<defs>
											<rect id="SVGID_139_" x="0.7" y="-4" width="96" height="88"/>
										</defs>
										<clipPath id="SVGID_140_">
											<use xlink:href="#SVGID_139_"  style="overflow:visible;"/>
										</clipPath>
										<g style="clip-path:url(#SVGID_140_);">
											
												<image style="overflow:visible;" width="402" height="368" xlink:href="B92147F2.jpg"  transform="matrix(0.24 0 0 0.24 0.48 -4.16)">
											</image>
										</g>
									</g>
								</g>
							</g>
						</g>
					</g>
				</g>
			</g>
		</g>
	</g>
</g>
</svg>
