<?xml version="1.0" encoding="utf-8"?>
<!-- Generator: Adobe Illustrator 15.0.0, SVG Export Plug-In . SVG Version: 6.00 Build 0)  -->
<!DOCTYPE svg PUBLIC "-//W3C//DTD SVG 1.1//EN" "http://www.w3.org/Graphics/SVG/1.1/DTD/svg11.dtd">
<svg version="1.1" id="Layer_1" xmlns="http://www.w3.org/2000/svg" xmlns:xlink="http://www.w3.org/1999/xlink" x="0px" y="0px"
	 width="36px" height="10px" viewBox="0 13.063 36 10" enable-background="new 0 13.063 36 10" xml:space="preserve">
<g id="Layer_1_1_">
	<g>
		<g>
			<g>
				<g>
					<defs>
						<path id="SVGID_1_" d="M19.986,13.252c0,0.014,0,0.028,0,0.042v6.294v0.057c0.07,0.014,1.146,0.014,1.188,0v-0.07
							c0-0.854,0-1.706,0-2.573c0-0.168,0-0.335,0.042-0.503c0.058-0.252,0.21-0.419,0.476-0.49c0.029,0,0.057-0.014,0.084-0.014
							c0.252-0.042,0.519-0.042,0.77-0.014c0.1,0.014,0.196,0.028,0.28,0.07c0.168,0.07,0.266,0.196,0.294,0.35
							c0.027,0.126,0.027,0.238,0.027,0.364c0,0.937,0,1.888,0,2.826v0.069h1.203V19.59v-2.66c0-0.168,0-0.336,0-0.503
							c0-0.14-0.027-0.294-0.07-0.434c-0.069-0.252-0.209-0.476-0.447-0.629c-0.126-0.084-0.252-0.14-0.393-0.196
							c-0.224-0.084-0.461-0.112-0.698-0.126c-0.294-0.014-0.587-0.014-0.867,0.042c-0.251,0.042-0.476,0.14-0.671,0.28
							c0,0-0.014,0.014-0.028,0.014v-0.07c0-0.671,0-1.329,0-2c0-0.014,0-0.042,0-0.056H19.986L19.986,13.252z"/>
					</defs>
					<clipPath id="SVGID_2_">
						<use xlink:href="#SVGID_1_"  overflow="visible"/>
					</clipPath>
					<rect x="18.531" y="11.797" clip-path="url(#SVGID_2_)" fill="#FFFFFF" width="7.287" height="9.314"/>
				</g>
			</g>
		</g>
	</g>
	<g>
		<g>
			<g>
				<g>
					<defs>
						<path id="SVGID_3_" d="M0.476,13.545v6.112h1.105v-4.28h0.014c0.448,0.854,0.895,1.707,1.343,2.56H3.86
							c0.447-0.867,0.881-1.748,1.329-2.615h0.014v4.335c0.056,0.015,1.063,0.015,1.105,0v-6.112h-1.23
							c-0.546,1.105-1.091,2.21-1.65,3.329c-0.587-1.119-1.161-2.224-1.734-3.329H0.476L0.476,13.545z"/>
					</defs>
					<clipPath id="SVGID_4_">
						<use xlink:href="#SVGID_3_"  overflow="visible"/>
					</clipPath>
					<rect x="-0.979" y="12.091" clip-path="url(#SVGID_4_)" fill="#FFFFFF" width="8.741" height="9.021"/>
				</g>
			</g>
		</g>
	</g>
	<g>
		<g>
			<g>
				<g>
					<defs>
						<path id="SVGID_5_" d="M26.377,16.944c0.016,0,0.043,0,0.057,0c0.447,0,0.909,0,1.356,0c0.14,0,0.28,0.014,0.42,0.042
							c0.294,0.07,0.447,0.238,0.503,0.532c0.043,0.238,0.043,0.476-0.014,0.713c-0.014,0.042-0.027,0.083-0.042,0.14
							c-0.056,0.126-0.14,0.209-0.267,0.266c-0.098,0.041-0.209,0.069-0.32,0.084c-0.084,0.014-0.182,0.014-0.266,0.014
							c-0.449,0-0.91,0-1.357,0h-0.057L26.377,16.944L26.377,16.944z M26.377,16.021v-1.539h0.07h1.301c0.126,0,0.252,0,0.378,0.042
							c0.267,0.07,0.392,0.196,0.435,0.461c0.027,0.182,0.027,0.35-0.016,0.532c-0.041,0.266-0.209,0.419-0.461,0.476
							c-0.111,0.028-0.225,0.042-0.35,0.042c-0.435,0-0.867,0-1.314,0C26.406,16.035,26.393,16.021,26.377,16.021 M25.287,13.545
							c-0.014,0-0.043,0-0.057,0v6.112H25.3c0.839,0,1.664,0,2.505,0c0.209,0,0.418-0.015,0.629-0.042
							c0.252-0.042,0.476-0.098,0.698-0.225c0.279-0.14,0.49-0.35,0.615-0.644c0.069-0.154,0.099-0.321,0.126-0.489
							c0.016-0.224,0.027-0.448,0-0.657c-0.014-0.168-0.057-0.336-0.141-0.504c-0.153-0.308-0.405-0.517-0.728-0.629
							c-0.028-0.014-0.056-0.014-0.098-0.028c0.014-0.014,0.014-0.014,0.014-0.014c0.028-0.014,0.042-0.014,0.07-0.028
							c0.335-0.154,0.56-0.405,0.657-0.769c0.041-0.126,0.056-0.266,0.056-0.406c0.015-0.238,0-0.476-0.069-0.713
							c-0.098-0.377-0.322-0.643-0.686-0.797c-0.084-0.028-0.168-0.056-0.252-0.084c-0.266-0.07-0.545-0.098-0.825-0.098
							c-0.363,0-0.728,0-1.091,0C26.279,13.545,25.775,13.545,25.287,13.545"/>
					</defs>
					<clipPath id="SVGID_6_">
						<use xlink:href="#SVGID_5_"  overflow="visible"/>
					</clipPath>
					<rect x="23.775" y="12.091" clip-path="url(#SVGID_6_)" fill="#FFFFFF" width="7.566" height="9.021"/>
				</g>
			</g>
		</g>
	</g>
	<g>
		<g>
			<g>
				<g>
					<defs>
						<path id="SVGID_7_" d="M30.406,13.56c0.629,0.965,1.271,1.916,1.9,2.867c-0.714,1.077-1.412,2.14-2.14,3.23h0.069
							c0.363,0,0.74,0,1.104,0c0.056,0,0.084-0.015,0.099-0.056c0.476-0.756,0.951-1.498,1.412-2.252
							c0.015-0.014,0.027-0.042,0.041-0.056c0.043,0.07,0.07,0.125,0.112,0.182c0.448,0.713,0.909,1.427,1.356,2.14
							c0.014,0.027,0.027,0.057,0.07,0.057c0.405,0,0.797,0,1.202,0c0.015,0,0.027,0,0.041,0c-0.727-1.078-1.438-2.154-2.153-3.217
							c0.645-0.965,1.287-1.916,1.932-2.881H34.21c-0.42,0.686-0.854,1.357-1.272,2.056c-0.434-0.686-0.881-1.371-1.313-2.042
							c-0.043,0-0.238,0-0.463,0C30.854,13.545,30.434,13.56,30.406,13.56"/>
					</defs>
					<clipPath id="SVGID_8_">
						<use xlink:href="#SVGID_7_"  overflow="visible"/>
					</clipPath>
					<rect x="28.713" y="12.091" clip-path="url(#SVGID_8_)" fill="#FFFFFF" width="8.447" height="9.021"/>
				</g>
			</g>
		</g>
	</g>
	<g>
		<g>
			<g>
				<g>
					<defs>
						<path id="SVGID_9_" d="M9.217,18.874c-0.112,0-0.21-0.015-0.322-0.042c-0.168-0.042-0.28-0.154-0.308-0.322
							c-0.028-0.167-0.028-0.349,0-0.517c0.028-0.14,0.126-0.238,0.28-0.28c0.112-0.028,0.238-0.056,0.35-0.056
							c0.182,0,0.377,0,0.56,0c0.126,0,0.251,0.014,0.363,0.056c0.056,0.014,0.098,0.042,0.14,0.07
							c0.098,0.056,0.14,0.154,0.14,0.266c0,0.056,0.014,0.112,0.014,0.154c0,0.21,0,0.42,0,0.629c0,0.014,0,0.027,0,0.042
							c-0.014,0-0.028,0-0.042,0C10,18.874,9.608,18.874,9.217,18.874 M9.273,15.294c-0.392,0-0.77,0.014-1.161,0.014
							c-0.014,0-0.028,0-0.056,0C8,15.602,7.93,15.881,7.874,16.175c0.028,0,0.056,0,0.07,0c0.35,0,0.713-0.014,1.063-0.014
							c0.252,0,0.504,0,0.755,0.014c0.098,0,0.21,0.028,0.308,0.056c0.168,0.056,0.28,0.167,0.322,0.335s0.042,0.336,0.042,0.503
							c-0.056-0.028-0.098-0.042-0.14-0.07c-0.196-0.084-0.406-0.126-0.616-0.14c-0.35-0.028-0.699-0.028-1.049,0.014
							c-0.196,0.028-0.392,0.084-0.573,0.168c-0.21,0.112-0.378,0.266-0.476,0.476c-0.056,0.126-0.098,0.266-0.112,0.419
							C7.454,18.09,7.454,18.23,7.454,18.37c0,0.126,0.014,0.252,0.042,0.364c0.098,0.363,0.322,0.629,0.699,0.755
							c0.154,0.056,0.308,0.084,0.461,0.099c0.196,0.027,0.392,0.027,0.574,0.027c0.434,0,0.853,0,1.287,0
							c0.084,0,0.168,0,0.251-0.014c0.112,0,0.21-0.028,0.322-0.058c0.196-0.056,0.322-0.183,0.378-0.377
							c0.028-0.11,0.042-0.237,0.042-0.362c0-0.687,0-1.372,0-2.071c0-0.126-0.014-0.252-0.028-0.378
							c-0.084-0.434-0.335-0.741-0.755-0.923c-0.238-0.042-0.517-0.098-0.797-0.126c-0.21-0.014-0.419-0.014-0.629-0.014
							C9.287,15.294,9.273,15.294,9.273,15.294"/>
					</defs>
					<clipPath id="SVGID_10_">
						<use xlink:href="#SVGID_9_"  overflow="visible"/>
					</clipPath>
					<rect x="6" y="13.839" clip-path="url(#SVGID_10_)" fill="#FFFFFF" width="6.993" height="7.287"/>
				</g>
			</g>
		</g>
	</g>
	<g>
		<g>
			<g>
				<g>
					<defs>
						<path id="SVGID_11_" d="M12.699,14.301v0.07c0,1.203,0,2.406,0,3.608c0,0.07,0,0.154,0,0.224
							c0.014,0.196,0.028,0.391,0.07,0.574c0.042,0.152,0.098,0.308,0.21,0.447c0.14,0.168,0.335,0.266,0.545,0.32
							c0.266,0.07,0.532,0.1,0.811,0.1c0.322,0,0.644,0,0.965,0.014h0.056c0.07-0.294,0.126-0.588,0.196-0.896h-0.07
							c-0.238,0-0.476,0-0.727,0c-0.126,0-0.266,0-0.392-0.014c-0.252-0.027-0.378-0.125-0.434-0.363
							c-0.028-0.112-0.028-0.224-0.028-0.336c0-0.601,0-1.188,0-1.79c0-0.014,0-0.028,0-0.056h1.524
							c0.07-0.293,0.125-0.587,0.196-0.895h-1.72v-1.175C13.497,14.189,13.105,14.245,12.699,14.301"/>
					</defs>
					<clipPath id="SVGID_12_">
						<use xlink:href="#SVGID_11_"  overflow="visible"/>
					</clipPath>
					<rect x="11.245" y="12.678" clip-path="url(#SVGID_12_)" fill="#FFFFFF" width="5.818" height="8.448"/>
				</g>
			</g>
		</g>
	</g>
	<g>
		<g>
			<g>
				<g>
					<defs>
						<path id="SVGID_13_" d="M17.329,15.308c-0.224,0.014-0.447,0.056-0.657,0.112c-0.49,0.154-0.811,0.461-0.951,0.923
							c-0.056,0.209-0.098,0.419-0.098,0.629c-0.014,0.293-0.014,0.601,0,0.895c0,0.238,0.028,0.476,0.098,0.699
							c0.084,0.279,0.224,0.518,0.461,0.699c0.168,0.125,0.35,0.209,0.56,0.252c0.28,0.069,0.56,0.11,0.839,0.11
							c0.434,0,0.867,0,1.313-0.014c0.016,0,0.028,0,0.043,0c0.057-0.294,0.125-0.573,0.183-0.867c-0.028,0-0.058,0-0.084,0
							c-0.392,0-0.797,0.014-1.189,0.014c-0.182,0-0.35,0-0.532-0.04c-0.237-0.044-0.392-0.169-0.461-0.393
							c0-0.014-0.014-0.028-0.014-0.042c-0.042-0.126-0.056-0.266-0.056-0.392c0-0.308,0-0.615,0-0.909
							c0-0.125,0.028-0.238,0.042-0.363c0.056-0.252,0.21-0.392,0.461-0.448c0.112-0.014,0.224-0.028,0.336-0.028
							c0.392-0.014,0.783,0,1.174,0.014c0.043,0,0.07,0,0.112,0c0.056-0.293,0.126-0.573,0.182-0.867c-0.028,0-0.056,0-0.069,0
							c-0.099,0-0.195,0-0.295-0.014c-0.278,0-0.559-0.014-0.837-0.014C17.692,15.294,17.511,15.294,17.329,15.308"/>
					</defs>
					<clipPath id="SVGID_14_">
						<use xlink:href="#SVGID_13_"  overflow="visible"/>
					</clipPath>
					<rect x="14.154" y="13.839" clip-path="url(#SVGID_14_)" fill="#FFFFFF" width="6.407" height="7.287"/>
				</g>
			</g>
		</g>
	</g>
</g>
<g id="Layer_3">
	<rect x="26.645" y="20.133" fill="none" width="9.355" height="4.825"/>
	<g enable-background="new    ">
		<path fill="#FFFFFF" d="M27.207,20.257h1.111c0.191,0,0.347,0.052,0.465,0.154c0.117,0.104,0.176,0.239,0.176,0.409
			c0,0.131-0.036,0.242-0.107,0.336c-0.07,0.095-0.162,0.158-0.274,0.195v0.014c0.137,0.031,0.245,0.096,0.325,0.193
			c0.08,0.1,0.121,0.229,0.121,0.391c0,0.205-0.064,0.357-0.192,0.46c-0.129,0.101-0.3,0.149-0.513,0.149h-1.11L27.207,20.257
			L27.207,20.257z M28.254,21.24c0.114,0,0.206-0.032,0.275-0.1c0.068-0.066,0.104-0.15,0.104-0.257
			c0-0.116-0.031-0.202-0.095-0.262s-0.147-0.087-0.259-0.087h-0.756v0.704L28.254,21.24L28.254,21.24z M28.313,22.281
			c0.256,0,0.386-0.124,0.386-0.373c0-0.26-0.138-0.389-0.409-0.389h-0.764v0.762H28.313z"/>
		<path fill="#FFFFFF" d="M29.445,20.257h1.771v0.279h-1.453v0.708h1.307v0.277h-1.307v0.76h1.475v0.277h-1.793V20.257z"/>
		<path fill="#FFFFFF" d="M32.285,20.536h-0.792v-0.279h1.903v0.279h-0.793v2.022h-0.318V20.536z"/>
		<path fill="#FFFFFF" d="M34.139,20.257h0.406l0.893,2.304H35.1l-0.232-0.615H33.8l-0.225,0.615h-0.329L34.139,20.257z
			 M34.764,21.667l-0.27-0.719l-0.154-0.416h-0.017l-0.151,0.409l-0.27,0.726H34.764z"/>
	</g>
</g>
</svg>
