<?xml version="1.0" encoding="utf-8"?>
<!-- Generator: Adobe Illustrator 21.1.0, SVG Export Plug-In . SVG Version: 6.00 Build 0)  -->
<svg version="1.1" id="Layer_1" xmlns="http://www.w3.org/2000/svg" xmlns:xlink="http://www.w3.org/1999/xlink" x="0px" y="0px"
	 viewBox="0 0 36.7 36" style="enable-background:new 0 0 36.7 36;" xml:space="preserve">
<style type="text/css">
	.st0{display:none;}
	.st1{display:inline;}
	.st2{display:inline;clip-path:url(#SVGID_2_);}
	.st3{clip-path:url(#SVGID_4_);fill:#1F2136;}
	.st4{display:inline;clip-path:url(#SVGID_6_);}
	.st5{clip-path:url(#SVGID_8_);fill:#00C6A3;}
	.st6{display:inline;clip-path:url(#SVGID_10_);}
	.st7{clip-path:url(#SVGID_12_);fill:#F3F3F3;}
	.st8{display:inline;clip-path:url(#SVGID_14_);}
	.st9{clip-path:url(#SVGID_16_);fill:#F3F3F3;}
	.st10{display:inline;clip-path:url(#SVGID_18_);}
	.st11{clip-path:url(#SVGID_20_);fill:#F3F3F3;}
	.st12{display:inline;clip-path:url(#SVGID_22_);}
	.st13{clip-path:url(#SVGID_24_);fill:#F3F3F3;}
	.st14{display:inline;clip-path:url(#SVGID_26_);}
	.st15{clip-path:url(#SVGID_28_);fill:#F3F3F3;}
	.st16{display:inline;clip-path:url(#SVGID_30_);}
	.st17{clip-path:url(#SVGID_32_);fill:#F3F3F3;}
	.st18{display:inline;clip-path:url(#SVGID_34_);}
	.st19{clip-path:url(#SVGID_36_);fill:#F3F3F3;}
	.st20{display:inline;clip-path:url(#SVGID_38_);}
	.st21{clip-path:url(#SVGID_40_);fill:#F3F3F3;}
	.st22{display:inline;clip-path:url(#SVGID_44_);fill-rule:evenodd;clip-rule:evenodd;fill:#FFFFFF;}
	.st23{display:inline;clip-path:url(#SVGID_46_);}
	.st24{clip-path:url(#SVGID_48_);fill:#FFFFFF;}
	.st25{display:inline;clip-path:url(#SVGID_50_);}
	.st26{clip-path:url(#SVGID_52_);fill:#00C6A3;}
	.st27{display:inline;clip-path:url(#SVGID_60_);fill-rule:evenodd;clip-rule:evenodd;fill:#FFFFFF;}
	.st28{display:inline;clip-path:url(#SVGID_62_);}
	.st29{clip-path:url(#SVGID_64_);fill:#F9F9F9;}
	.st30{display:inline;clip-path:url(#SVGID_66_);}
	.st31{clip-path:url(#SVGID_68_);fill:none;stroke:#B3B3B3;stroke-width:2;stroke-miterlimit:10;}
	.st32{display:inline;clip-path:url(#SVGID_74_);fill-rule:evenodd;clip-rule:evenodd;fill:#FFFFFF;}
	.st33{display:inline;clip-path:url(#SVGID_76_);}
	.st34{clip-path:url(#SVGID_78_);fill:#F9F9F9;}
	.st35{display:inline;clip-path:url(#SVGID_80_);}
	.st36{clip-path:url(#SVGID_82_);fill:none;stroke:#B3B3B3;stroke-width:2;stroke-miterlimit:10;}
	.st37{display:inline;clip-path:url(#SVGID_90_);}
	.st38{clip-path:url(#SVGID_92_);fill:#00C6A3;}
	.st39{display:inline;clip-path:url(#SVGID_94_);}
	.st40{opacity:0.471;clip-path:url(#SVGID_96_);fill:#272727;}
	.st41{display:inline;clip-path:url(#SVGID_100_);fill-rule:evenodd;clip-rule:evenodd;fill:#FFFFFF;}
	.st42{display:inline;clip-path:url(#SVGID_102_);}
	.st43{clip-path:url(#SVGID_104_);fill:#FFFFFF;}
	.st44{display:inline;clip-path:url(#SVGID_106_);fill:none;stroke:#DEDEDE;stroke-linecap:square;stroke-miterlimit:10;}
	.st45{clip-path:url(#SVGID_108_);}
	.st46{clip-path:url(#SVGID_110_);enable-background:new    ;}
	.st47{clip-path:url(#SVGID_112_);}
	.st48{clip-path:url(#SVGID_114_);}
	.st49{clip-path:url(#SVGID_116_);fill:#FFFFFF;}
	.st50{display:inline;clip-path:url(#SVGID_118_);}
	.st51{clip-path:url(#SVGID_120_);fill:#00C6A3;}
	.st52{display:inline;clip-path:url(#SVGID_126_);fill-rule:evenodd;clip-rule:evenodd;fill:#FFFFFF;}
	.st53{display:inline;clip-path:url(#SVGID_128_);}
	.st54{clip-path:url(#SVGID_130_);fill:#F9F9F9;}
	.st55{display:inline;clip-path:url(#SVGID_132_);}
	.st56{clip-path:url(#SVGID_134_);fill:none;stroke:#B3B3B3;stroke-width:2;stroke-miterlimit:10;}
</style>
<g class="st0">
	<defs>
		<rect id="SVGID_1_" width="1440" height="77"/>
	</defs>
	<clipPath id="SVGID_2_" class="st1">
		<use xlink:href="#SVGID_1_"  style="overflow:visible;"/>
	</clipPath>
	<g class="st2">
		<defs>
			<rect id="SVGID_3_" width="1440" height="77"/>
		</defs>
		<clipPath id="SVGID_4_">
			<use xlink:href="#SVGID_3_"  style="overflow:visible;"/>
		</clipPath>
		<rect x="-5" y="-5" class="st3" width="1450" height="87"/>
	</g>
</g>
<g class="st0">
	<defs>
		<path id="SVGID_5_" d="M607.1,28.4c1.9,0,4.6-1.1,6.3-2.1l0.2-0.1L605.1,52c-0.5,1.7-2.3,2.9-4.1,2.9h-8l8.8-26.6L607.1,28.4
			L607.1,28.4z M617.4,44.7c-1.9,0-4.7,1-6.4,2l-0.2,0.1l8.4-25.8c0.5-1.7,2.3-2.9,4.1-2.9l8,0L623,44.7L617.4,44.7L617.4,44.7z"/>
	</defs>
	<clipPath id="SVGID_6_" class="st1">
		<use xlink:href="#SVGID_5_"  style="overflow:visible;"/>
	</clipPath>
	<g class="st4">
		<defs>
			<rect id="SVGID_7_" width="1440" height="77"/>
		</defs>
		<clipPath id="SVGID_8_">
			<use xlink:href="#SVGID_7_"  style="overflow:visible;"/>
		</clipPath>
		<rect x="588" y="13" class="st5" width="48.4" height="46.9"/>
	</g>
</g>
<g class="st0">
	<defs>
		<path id="SVGID_9_" d="M837.2,41.4c2.9,4.5,5.9,9,8.8,13.6c-0.1,0-0.1,0-0.2,0c-2.2,0-4.4,0-6.6,0c-0.2,0-0.3-0.1-0.3-0.2
			c-1.4-2.3-2.8-4.6-4.2-6.9c-0.5-0.8-1-1.6-1.4-2.4c0-0.1-0.1-0.1-0.2-0.3c-1.9,3.3-3.8,6.5-5.8,9.7h-6.5c0,0,0,0,0,0c0,0,0,0,0,0
			c0,0,0,0,0,0c0,0,0,0,0,0c2.9-4.4,5.8-8.8,8.7-13.3c0,0,0,0,0,0c0,0,0,0,0,0c-2.8-4.4-5.7-8.7-8.5-13.1c0.1,0,0.1,0,0.2,0
			c2.2,0,4.4,0,6.6,0c0.2,0,0.3,0.1,0.3,0.2c1.5,2.5,3,5,4.6,7.5c0.3,0.4,0.5,0.9,0.8,1.3c0,0.1,0.1,0.1,0.2,0.2
			c0.1-0.1,0.1-0.2,0.2-0.2c1.7-2.9,3.4-5.8,5.2-8.7c0-0.1,0.1-0.1,0.1-0.2c0-0.1,0.1-0.1,0.2-0.1c0,0,0.1,0,0.1,0c2,0,4,0,6.1,0
			c0.1,0,0.1,0,0.2,0c-0.4,0.6-0.8,1.3-1.2,1.9c-0.4,0.6-0.8,1.2-1.2,1.9c-0.4,0.6-0.8,1.2-1.2,1.9c-0.4,0.6-0.8,1.2-1.2,1.8
			c-0.4,0.6-0.8,1.2-1.2,1.9c-0.4,0.6-0.8,1.2-1.2,1.9C838.1,40.2,837.7,40.8,837.2,41.4"/>
	</defs>
	<clipPath id="SVGID_10_" class="st1">
		<use xlink:href="#SVGID_9_"  style="overflow:visible;"/>
	</clipPath>
	<g class="st6">
		<defs>
			<rect id="SVGID_11_" width="1440" height="77"/>
		</defs>
		<clipPath id="SVGID_12_">
			<use xlink:href="#SVGID_11_"  style="overflow:visible;"/>
		</clipPath>
		<rect x="815.9" y="23.4" class="st7" width="35.2" height="36.6"/>
	</g>
</g>
<g class="st0">
	<defs>
		<path id="SVGID_13_" d="M794.3,55V28.4c0.2-0.1,18.8-0.1,19.1,0c0,0.2,0.1,4.5,0,4.9c-0.1,0-0.2,0-0.3,0c-4.2,0-8.4,0-12.6,0h-0.4
			v5.9h10.3v4.6h-10.2c-0.1,0.2-0.1,6,0,6.3h13.4V55L794.3,55L794.3,55z"/>
	</defs>
	<clipPath id="SVGID_14_" class="st1">
		<use xlink:href="#SVGID_13_"  style="overflow:visible;"/>
	</clipPath>
	<g class="st8">
		<defs>
			<rect id="SVGID_15_" width="1440" height="77"/>
		</defs>
		<clipPath id="SVGID_16_">
			<use xlink:href="#SVGID_15_"  style="overflow:visible;"/>
		</clipPath>
		<rect x="789.3" y="23.4" class="st9" width="29.2" height="36.6"/>
	</g>
</g>
<g class="st0">
	<defs>
		<path id="SVGID_17_" d="M764.7,55l0-26.6c0.1,0,0.2,0,0.2,0c3.5,0,7.1,0,10.6,0c1.5,0,3.1,0.2,4.5,0.7c1.7,0.5,3.2,1.4,4.4,2.7
			c1,1.2,1.7,2.5,2,4c0.2,0.9,0.4,1.9,0.4,2.8c0,2.2,0,4.4,0,6.6c0,1.4-0.3,2.8-0.8,4.1c-0.9,2.2-2.6,3.8-4.8,4.7
			c-1.2,0.5-2.4,0.8-3.7,0.9c-0.9,0.1-1.8,0.1-2.6,0.1c-3.3,0-6.6,0-9.9,0L764.7,55L764.7,55z M770.7,33.1v17.1c0.1,0,0.2,0,0.2,0
			c1.4,0,2.7,0,4.1,0c0.6,0,1.1-0.1,1.7-0.2c1.4-0.3,2.5-1,3.2-2.2c0.2-0.4,0.4-0.8,0.5-1.2c0.2-0.8,0.3-1.6,0.3-2.4
			c0-1.6,0-3.2,0-4.8c0-0.4,0-0.8,0-1.2c-0.1-0.8-0.2-1.5-0.5-2.2c-0.6-1.4-1.7-2.3-3.2-2.7c-0.7-0.2-1.4-0.2-2.1-0.2
			c-1.3,0-2.7,0-4,0L770.7,33.1L770.7,33.1z"/>
	</defs>
	<clipPath id="SVGID_18_" class="st1">
		<use xlink:href="#SVGID_17_"  style="overflow:visible;"/>
	</clipPath>
	<g class="st10">
		<defs>
			<rect id="SVGID_19_" width="1440" height="77"/>
		</defs>
		<clipPath id="SVGID_20_">
			<use xlink:href="#SVGID_19_"  style="overflow:visible;"/>
		</clipPath>
		<rect x="759.7" y="23.4" class="st11" width="32.2" height="36.6"/>
	</g>
</g>
<g class="st0">
	<defs>
		<path id="SVGID_21_" d="M738.5,50c-0.6,1.7-1.1,3.3-1.7,5h-6.2c3.3-8.9,6.5-17.8,9.7-26.6h7.1c3.2,8.9,6.5,17.7,9.7,26.6h-6.5
			c-0.6-1.7-1.1-3.3-1.7-5L738.5,50L738.5,50z M747.6,45.6c-0.1-0.4-3.6-10.7-3.8-10.9c-0.3,0.9-0.6,1.8-0.9,2.7
			c-0.3,0.9-0.6,1.8-0.9,2.7c-0.3,0.9-0.6,1.8-0.9,2.7c-0.3,0.9-0.6,1.8-0.9,2.7H747.6z"/>
	</defs>
	<clipPath id="SVGID_22_" class="st1">
		<use xlink:href="#SVGID_21_"  style="overflow:visible;"/>
	</clipPath>
	<g class="st12">
		<defs>
			<rect id="SVGID_23_" width="1440" height="77"/>
		</defs>
		<clipPath id="SVGID_24_">
			<use xlink:href="#SVGID_23_"  style="overflow:visible;"/>
		</clipPath>
		<rect x="725.6" y="23.4" class="st13" width="36.6" height="36.6"/>
	</g>
</g>
<g class="st0">
	<defs>
		<path id="SVGID_25_" d="M726.2,55h-0.3c-2,0-4,0-5.9,0c-0.2,0-0.3-0.1-0.4-0.2c-1.7-3.1-3.5-6.1-5.2-9.2c0-0.1-0.1-0.1-0.1-0.2
			c0-0.1-0.1-0.1-0.2-0.1c0,0-0.1,0-0.1,0c-1.2,0-2.4,0-3.6,0H710c0,0.3,0,0.5,0,0.8c0,0.3,0,0.5,0,0.8v0.8v0.8v0.8v0.8v0.8v0.8v0.8
			v0.8v0.8V55h-6c0,0,0,0,0,0c0,0,0,0,0,0c0-0.1,0-0.1,0-0.2c0-8.8,0-17.6,0-26.3c0,0,0,0,0-0.1c0.1,0,0.2,0,0.2,0c4,0,8,0,12,0
			c1.4,0,2.7,0.1,4,0.6c1.7,0.5,3.1,1.5,4,3c0.5,0.8,0.8,1.8,0.9,2.7c0.1,0.6,0.1,1.2,0.1,1.8c0,0.5,0,1.1,0,1.6
			c-0.1,3-1.7,5.1-4.6,6.3c-0.2,0.1-0.3,0.1-0.5,0.2C722.2,48.1,724.2,51.5,726.2,55L726.2,55z M710,40.9h0.3c1.5,0,2.9,0,4.4,0
			c0.4,0,0.8,0,1.2,0c0.5,0,1-0.1,1.4-0.3c1.2-0.5,1.8-1.3,1.9-2.5c0.1-0.8,0.1-1.6,0-2.3c-0.1-1.1-0.7-2.2-2.2-2.6
			c-0.6-0.2-1.2-0.2-1.8-0.2c-1.7,0-3.3,0-5,0c-0.1,0-0.1,0-0.2,0L710,40.9L710,40.9z"/>
	</defs>
	<clipPath id="SVGID_26_" class="st1">
		<use xlink:href="#SVGID_25_"  style="overflow:visible;"/>
	</clipPath>
	<g class="st14">
		<defs>
			<rect id="SVGID_27_" width="1440" height="77"/>
		</defs>
		<clipPath id="SVGID_28_">
			<use xlink:href="#SVGID_27_"  style="overflow:visible;"/>
		</clipPath>
		<rect x="699" y="23.4" class="st15" width="32.2" height="36.6"/>
	</g>
</g>
<g class="st0">
	<defs>
		<path id="SVGID_29_" d="M696.6,55h-6.5c0-0.1-0.1-0.2-0.1-0.2c-0.5-1.5-1-3-1.5-4.5c-0.1-0.2-0.1-0.2-0.4-0.2c-3.3,0-6.7,0-10,0
			h-0.3c-0.6,1.7-1.1,3.3-1.7,5H670c0,0,0,0,0,0c0,0,0,0,0,0c0,0,0-0.1,0-0.1c3.2-8.8,6.5-17.6,9.7-26.4c0,0,0,0,0.1-0.1h7.1
			C690.1,37.2,693.3,46.1,696.6,55 M683.1,34.8c-0.1,0.1-3.7,10.6-3.8,10.8h7.5C685.6,42,684.4,38.4,683.1,34.8
			C683.2,34.8,683.1,34.8,683.1,34.8"/>
	</defs>
	<clipPath id="SVGID_30_" class="st1">
		<use xlink:href="#SVGID_29_"  style="overflow:visible;"/>
	</clipPath>
	<g class="st16">
		<defs>
			<rect id="SVGID_31_" width="1440" height="77"/>
		</defs>
		<clipPath id="SVGID_32_">
			<use xlink:href="#SVGID_31_"  style="overflow:visible;"/>
		</clipPath>
		<rect x="665" y="23.4" class="st17" width="36.6" height="36.6"/>
	</g>
</g>
<g class="st0">
	<defs>
		<path id="SVGID_33_" d="M652.4,45.4V49v3c0,1,0,2,0,3h-6c-0.3-1,0.1-27.4,0-26.6c0.1,0,0.1,0,0.2,0c3.8,0,7.6,0,11.5,0
			c1.4,0,2.7,0.2,4,0.6c1.7,0.6,3.1,1.6,4,3.1c0.5,0.9,0.8,1.7,0.9,2.7c0.1,1.3,0.1,2.2,0,3.5c0,1-0.2,2-0.7,2.9
			c-0.8,1.7-2.2,2.9-4.1,3.6c-0.9,0.3-1.8,0.5-2.7,0.6c-0.7,0-1.3,0.1-2,0.1c-1.6,0-3.2,0-4.8,0L652.4,45.4L652.4,45.4z M652.4,40.8
			c0.1,0,0.1,0,0.2,0c1.5,0,3,0,4.4,0c0.5,0,1-0.1,1.5-0.2c1.1-0.3,1.9-0.9,2.2-2c0.1-0.4,0.2-0.7,0.2-1.1c0-0.6,0-0.8,0-1.4
			c0-0.2,0-0.5-0.1-0.7c-0.2-1.2-0.9-1.9-2.3-2.3c-0.6-0.2-1.2-0.2-1.8-0.2c-1.4,0-2.8,0-4.2,0c-0.1,0-0.1,0-0.2,0L652.4,40.8
			L652.4,40.8z"/>
	</defs>
	<clipPath id="SVGID_34_" class="st1">
		<use xlink:href="#SVGID_33_"  style="overflow:visible;"/>
	</clipPath>
	<g class="st18">
		<defs>
			<rect id="SVGID_35_" width="1440" height="77"/>
		</defs>
		<clipPath id="SVGID_36_">
			<use xlink:href="#SVGID_35_"  style="overflow:visible;"/>
		</clipPath>
		<rect x="641.3" y="23.4" class="st19" width="30.7" height="36.6"/>
	</g>
</g>
<g class="st0">
	<defs>
		<rect id="SVGID_37_" y="77" width="1440" height="947"/>
	</defs>
	<clipPath id="SVGID_38_" class="st1">
		<use xlink:href="#SVGID_37_"  style="overflow:visible;"/>
	</clipPath>
	<g class="st20">
		<defs>
			<rect id="SVGID_39_" width="1440" height="1024"/>
		</defs>
		<clipPath id="SVGID_40_">
			<use xlink:href="#SVGID_39_"  style="overflow:visible;"/>
		</clipPath>
		<rect x="-5" y="72" class="st21" width="1450" height="957"/>
	</g>
</g>
<g class="st0">
	<defs>
		<rect id="SVGID_41_" x="24576" y="259" width="504" height="377"/>
	</defs>
	<clipPath id="SVGID_42_" class="st1">
		<use xlink:href="#SVGID_41_"  style="overflow:visible;"/>
	</clipPath>
	<g style="display:inline;clip-path:url(#SVGID_42_);">
		<image style="overflow:visible;" width="504" height="377" xlink:href="F56E0B49.png"  transform="matrix(1 0 0 1 24576 259)">
		</image>
	</g>
</g>
<g class="st0">
	<defs>
		<rect id="SVGID_43_" x="470" y="259" width="504" height="377"/>
	</defs>
	<clipPath id="SVGID_44_" class="st1">
		<use xlink:href="#SVGID_43_"  style="overflow:visible;"/>
	</clipPath>
	<rect x="-536" y="259" class="st22" width="500" height="373"/>
</g>
<g class="st0">
	<defs>
		<rect id="SVGID_45_" x="470" y="259" width="500" height="373"/>
	</defs>
	<clipPath id="SVGID_46_" class="st1">
		<use xlink:href="#SVGID_45_"  style="overflow:visible;"/>
	</clipPath>
	<g class="st23">
		<defs>
			<rect id="SVGID_47_" width="1440" height="1024"/>
		</defs>
		<clipPath id="SVGID_48_">
			<use xlink:href="#SVGID_47_"  style="overflow:visible;"/>
		</clipPath>
		<rect x="465" y="254" class="st24" width="510" height="383"/>
	</g>
</g>
<g class="st0">
	<defs>
		<rect id="SVGID_49_" x="500" y="516" width="440" height="52"/>
	</defs>
	<clipPath id="SVGID_50_" class="st1">
		<use xlink:href="#SVGID_49_"  style="overflow:visible;"/>
	</clipPath>
	<g class="st25">
		<defs>
			<rect id="SVGID_51_" x="500" y="516" width="440" height="52"/>
		</defs>
		<clipPath id="SVGID_52_">
			<use xlink:href="#SVGID_51_"  style="overflow:visible;"/>
		</clipPath>
		<rect x="495" y="511" class="st26" width="450" height="62"/>
	</g>
</g>
<g class="st0">
	<defs>
		<rect id="SVGID_53_" x="500" y="516" width="440" height="52"/>
	</defs>
	<clipPath id="SVGID_54_" class="st1">
		<use xlink:href="#SVGID_53_"  style="overflow:visible;"/>
	</clipPath>
	<g style="display:inline;clip-path:url(#SVGID_54_);">
		<text transform="matrix(1 0 0 1 673.0269 549)"><tspan x="0" y="0" style="fill:#FFFFFF; font-family:'.SFNSText'; font-size:18px;">!</tspan><tspan x="3.7" y="0" style="fill:#FFFFFF; font-family:'.SFNSText'; font-size:18px;">&quot;#</tspan><tspan x="17.9" y="0" style="fill:#FFFFFF; font-family:'.SFNSText'; font-size:18px;">$%&amp;$</tspan><tspan x="59.8" y="0" style="fill:#FFFFFF; font-family:'.SFNSText'; font-size:18px;">&quot;</tspan><tspan x="65.5" y="0" style="fill:#FFFFFF; font-family:'.SFNSText'; font-size:18px;">&apos;</tspan></text>
	</g>
</g>
<g class="st0">
	<defs>
		<rect id="SVGID_55_" width="1440" height="1024"/>
	</defs>
	<clipPath id="SVGID_56_" class="st1">
		<use xlink:href="#SVGID_55_"  style="overflow:visible;"/>
	</clipPath>
	<g style="display:inline;clip-path:url(#SVGID_56_);">
		<text transform="matrix(1 0 0 1 613.2944 599)"><tspan x="0" y="0" style="fill:#616161; font-family:'.SFNSText'; font-size:14px;">()*</tspan><tspan x="13.3" y="0" style="fill:#616161; font-family:'.SFNSText'; font-size:14px;">+</tspan><tspan x="21.5" y="0" style="fill:#616161; font-family:'.SFNSText'; font-size:14px;">,%-./0%.*%.</tspan><tspan x="86.9" y="0" style="fill:#616161; font-family:'.SFNSText'; font-size:14px;">11</tspan><tspan x="101" y="0" style="fill:#616161; font-family:'.SFNSText'; font-size:14px;">)2*,</tspan><tspan x="120.3" y="0" style="fill:#616161; font-family:'.SFNSText'; font-size:14px;">3</tspan></text>
	</g>
	<g style="display:inline;clip-path:url(#SVGID_56_);">
		<text transform="matrix(1 0 0 1 765.4556 599)" style="fill:#362FD9; font-family:'.SFNSText'; font-size:14px;">%</text>
	</g>
	<g style="display:inline;clip-path:url(#SVGID_56_);">
		<text transform="matrix(1 0 0 1 769.2563 599)"><tspan x="0" y="0" style="fill:#00C6A3; font-family:'.SFNSText'; font-size:14px;">4)5*%*)</tspan><tspan x="44" y="0" style="fill:#00C6A3; font-family:'.SFNSText'; font-size:14px;">6</tspan></text>
	</g>
	<g style="display:inline;clip-path:url(#SVGID_56_);">
		<text transform="matrix(1 0 0 1 501.3203 491)"><tspan x="0" y="0" style="fill:#15BD9E; font-family:'.SFNSText'; font-size:14px;">7080,%9</tspan><tspan x="48.9" y="0" style="fill:#15BD9E; font-family:'.SFNSText'; font-size:14px;">.</tspan><tspan x="51.7" y="0" style="fill:#15BD9E; font-family:'.SFNSText'; font-size:14px;">886</tspan><tspan x="72.8" y="0" style="fill:#15BD9E; font-family:'.SFNSText'; font-size:14px;">):</tspan><tspan x="79.3" y="0" style="fill:#15BD9E; font-family:'.SFNSText'; font-size:14px;">;</tspan></text>
	</g>
</g>
<g class="st0">
	<defs>
		<rect id="SVGID_57_" x="24576" y="313" width="446" height="58"/>
	</defs>
	<clipPath id="SVGID_58_" class="st1">
		<use xlink:href="#SVGID_57_"  style="overflow:visible;"/>
	</clipPath>
	<g style="display:inline;clip-path:url(#SVGID_58_);">
		<image style="overflow:visible;" width="446" height="58" xlink:href="F56E0B4B.png"  transform="matrix(1 0 0 1 24576 313)">
		</image>
	</g>
</g>
<g class="st0">
	<defs>
		<rect id="SVGID_59_" x="496" y="313" width="446" height="58"/>
	</defs>
	<clipPath id="SVGID_60_" class="st1">
		<use xlink:href="#SVGID_59_"  style="overflow:visible;"/>
	</clipPath>
	<rect x="-393" y="314" class="st27" width="440" height="52"/>
</g>
<g class="st0">
	<defs>
		<rect id="SVGID_61_" x="499" y="314" width="440" height="52"/>
	</defs>
	<clipPath id="SVGID_62_" class="st1">
		<use xlink:href="#SVGID_61_"  style="overflow:visible;"/>
	</clipPath>
	<g class="st28">
		<defs>
			<rect id="SVGID_63_" x="496" y="287" width="446" height="84"/>
		</defs>
		<clipPath id="SVGID_64_">
			<use xlink:href="#SVGID_63_"  style="overflow:visible;"/>
		</clipPath>
		<rect x="499" y="314" class="st29" width="440" height="52"/>
	</g>
</g>
<g class="st0">
	<defs>
		<rect id="SVGID_65_" x="499" y="314" width="440" height="52"/>
	</defs>
	<clipPath id="SVGID_66_" class="st1">
		<use xlink:href="#SVGID_65_"  style="overflow:visible;"/>
	</clipPath>
	<g class="st30">
		<defs>
			<rect id="SVGID_67_" x="496" y="287" width="446" height="84"/>
		</defs>
		<clipPath id="SVGID_68_">
			<use xlink:href="#SVGID_67_"  style="overflow:visible;"/>
		</clipPath>
		<rect x="499" y="314" class="st31" width="440" height="52"/>
	</g>
</g>
<g class="st0">
	<defs>
		<rect id="SVGID_69_" x="496" y="287" width="446" height="84"/>
	</defs>
	<clipPath id="SVGID_70_" class="st1">
		<use xlink:href="#SVGID_69_"  style="overflow:visible;"/>
	</clipPath>
	<g style="display:inline;clip-path:url(#SVGID_70_);">
		<text transform="matrix(1 0 0 1 512 346)"><tspan x="0" y="0" style="fill:#272727; font-family:'.SFNSText'; font-size:16px;">;)&lt;=&gt;&lt;</tspan><tspan x="44.2" y="0" style="fill:#272727; font-family:'.SFNSText'; font-size:16px;">.</tspan><tspan x="47.2" y="0" style="fill:#272727; font-family:'.SFNSText'; font-size:16px;">5?</tspan><tspan x="61.3" y="0" style="fill:#272727; font-family:'.SFNSText'; font-size:16px;">@</tspan><tspan x="72.4" y="0" style="fill:#272727; font-family:'.SFNSText'; font-size:16px;">1)</tspan><tspan x="84.6" y="0" style="fill:#272727; font-family:'.SFNSText'; font-size:16px;">&lt;</tspan></text>
	</g>
	<g style="display:inline;clip-path:url(#SVGID_70_);">
		<text transform="matrix(1 0 0 1 500 305)"><tspan x="0" y="0" style="fill:#616161; font-family:'.SFNSText'; font-size:14px;">&quot;ABCD</tspan><tspan x="42.5" y="0" style="fill:#616161; font-family:'.SFNSText'; font-size:14px;">%</tspan><tspan x="54.5" y="0" style="fill:#616161; font-family:'.SFNSText'; font-size:14px;">B((</tspan><tspan x="72.5" y="0" style="fill:#616161; font-family:'.SFNSText'; font-size:14px;">7</tspan><tspan x="80.6" y="0" style="fill:#616161; font-family:'.SFNSText'; font-size:14px;">&quot;</tspan><tspan x="86.1" y="0" style="fill:#616161; font-family:'.SFNSText'; font-size:14px;">&amp;</tspan><tspan x="95.4" y="0" style="fill:#616161; font-family:'.SFNSText'; font-size:14px;">&amp;</tspan></text>
	</g>
</g>
<g class="st0">
	<defs>
		<rect id="SVGID_71_" x="24576" y="413" width="446" height="58"/>
	</defs>
	<clipPath id="SVGID_72_" class="st1">
		<use xlink:href="#SVGID_71_"  style="overflow:visible;"/>
	</clipPath>
	<g style="display:inline;clip-path:url(#SVGID_72_);">
		<image style="overflow:visible;" width="446" height="58" xlink:href="F56E0B4E.png"  transform="matrix(1 0 0 1 24576 413)">
		</image>
	</g>
</g>
<g class="st0">
	<defs>
		<rect id="SVGID_73_" x="496" y="413" width="446" height="58"/>
	</defs>
	<clipPath id="SVGID_74_" class="st1">
		<use xlink:href="#SVGID_73_"  style="overflow:visible;"/>
	</clipPath>
	<rect x="-393" y="414" class="st32" width="440" height="52"/>
</g>
<g class="st0">
	<defs>
		<rect id="SVGID_75_" x="499" y="414" width="440" height="52"/>
	</defs>
	<clipPath id="SVGID_76_" class="st1">
		<use xlink:href="#SVGID_75_"  style="overflow:visible;"/>
	</clipPath>
	<g class="st33">
		<defs>
			<rect id="SVGID_77_" x="496" y="387" width="446" height="84"/>
		</defs>
		<clipPath id="SVGID_78_">
			<use xlink:href="#SVGID_77_"  style="overflow:visible;"/>
		</clipPath>
		<rect x="499" y="414" class="st34" width="440" height="52"/>
	</g>
</g>
<g class="st0">
	<defs>
		<rect id="SVGID_79_" x="499" y="414" width="440" height="52"/>
	</defs>
	<clipPath id="SVGID_80_" class="st1">
		<use xlink:href="#SVGID_79_"  style="overflow:visible;"/>
	</clipPath>
	<g class="st35">
		<defs>
			<rect id="SVGID_81_" x="496" y="387" width="446" height="84"/>
		</defs>
		<clipPath id="SVGID_82_">
			<use xlink:href="#SVGID_81_"  style="overflow:visible;"/>
		</clipPath>
		<rect x="499" y="414" class="st36" width="440" height="52"/>
	</g>
</g>
<g class="st0">
	<defs>
		<rect id="SVGID_83_" x="496" y="387" width="446" height="84"/>
	</defs>
	<clipPath id="SVGID_84_" class="st1">
		<use xlink:href="#SVGID_83_"  style="overflow:visible;"/>
	</clipPath>
	<g style="display:inline;clip-path:url(#SVGID_84_);">
		<text transform="matrix(1 0 0 1 512 446)"><tspan x="0" y="0" style="fill:#272727; font-family:'.SFNSText'; font-size:16px;">EEEEEEE</tspan><tspan x="53" y="0" style="fill:#272727; font-family:'.SFNSText'; font-size:16px;">E</tspan></text>
	</g>
	<g style="display:inline;clip-path:url(#SVGID_84_);">
		<text transform="matrix(1 0 0 1 500 405)"><tspan x="0" y="0" style="fill:#616161; font-family:'.SFNSText'; font-size:14px;">&apos;</tspan><tspan x="2.9" y="0" style="fill:#616161; font-family:'.SFNSText'; font-size:14px;">B</tspan><tspan x="11.3" y="0" style="fill:#616161; font-family:'.SFNSText'; font-size:14px;">&amp;</tspan><tspan x="20.6" y="0" style="fill:#616161; font-family:'.SFNSText'; font-size:14px;">&amp;</tspan><tspan x="29.8" y="0" style="fill:#616161; font-family:'.SFNSText'; font-size:14px;">F</tspan><tspan x="37" y="0" style="fill:#616161; font-family:'.SFNSText'; font-size:14px;">G7</tspan><tspan x="54.9" y="0" style="fill:#616161; font-family:'.SFNSText'; font-size:14px;">(</tspan></text>
	</g>
</g>
<g class="st0">
	<defs>
		<rect id="SVGID_85_" x="463" y="181" width="515" height="45"/>
	</defs>
	<clipPath id="SVGID_86_" class="st1">
		<use xlink:href="#SVGID_85_"  style="overflow:visible;"/>
	</clipPath>
	<g style="display:inline;clip-path:url(#SVGID_86_);">
		<text transform="matrix(1 0 0 1 488.9194 200)"><tspan x="0" y="0" style="fill:#848484; font-family:'.SFNSText'; font-size:18px;">D</tspan><tspan x="11.4" y="0" style="fill:#848484; font-family:'.SFNSText'; font-size:18px;">)</tspan><tspan x="16.4" y="0" style="fill:#848484; font-family:'.SFNSText'; font-size:18px;">:</tspan><tspan x="19.8" y="0" style="fill:#848484; font-family:'.SFNSText'; font-size:18px;">0</tspan><tspan x="28.9" y="0" style="fill:#848484; font-family:'.SFNSText'; font-size:18px;">&lt;</tspan><tspan x="39.5" y="0" style="fill:#848484; font-family:'.SFNSText'; font-size:18px;">%</tspan><tspan x="53.6" y="0" style="fill:#848484; font-family:'.SFNSText'; font-size:18px;">5</tspan><tspan x="62.7" y="0" style="fill:#848484; font-family:'.SFNSText'; font-size:18px;">98</tspan><tspan x="81" y="0" style="fill:#848484; font-family:'.SFNSText'; font-size:18px;">2&lt;</tspan><tspan x="100.7" y="0" style="fill:#848484; font-family:'.SFNSText'; font-size:18px;">%;)</tspan><tspan x="123.4" y="0" style="fill:#848484; font-family:'.SFNSText'; font-size:18px;">?</tspan><tspan x="130.6" y="0" style="fill:#848484; font-family:'.SFNSText'; font-size:18px;">):%8</tspan><tspan x="162.4" y="0" style="fill:#848484; font-family:'.SFNSText'; font-size:18px;">5</tspan><tspan x="171.6" y="0" style="fill:#848484; font-family:'.SFNSText'; font-size:18px;">,%.</tspan><tspan x="192.9" y="0" style="fill:#848484; font-family:'.SFNSText'; font-size:18px;">&lt;</tspan><tspan x="203.5" y="0" style="fill:#848484; font-family:'.SFNSText'; font-size:18px;">0,H%1)*80</tspan><tspan x="281.6" y="0" style="fill:#848484; font-family:'.SFNSText'; font-size:18px;">1</tspan><tspan x="290.9" y="0" style="fill:#848484; font-family:'.SFNSText'; font-size:18px;">,</tspan><tspan x="294.4" y="0" style="fill:#848484; font-family:'.SFNSText'; font-size:18px;">0,</tspan><tspan x="307.1" y="0" style="fill:#848484; font-family:'.SFNSText'; font-size:18px;">2</tspan><tspan x="316.2" y="0" style="fill:#848484; font-family:'.SFNSText'; font-size:18px;">:%.;</tspan><tspan x="341.1" y="0" style="fill:#848484; font-family:'.SFNSText'; font-size:18px;">5</tspan><tspan x="350.3" y="0" style="fill:#848484; font-family:'.SFNSText'; font-size:18px;">9</tspan><tspan x="359.4" y="0" style="fill:#848484; font-family:'.SFNSText'; font-size:18px;">5</tspan><tspan x="368.5" y="0" style="fill:#848484; font-family:'.SFNSText'; font-size:18px;">81</tspan><tspan x="386.7" y="0" style="fill:#848484; font-family:'.SFNSText'; font-size:18px;">5</tspan><tspan x="395.8" y="0" style="fill:#848484; font-family:'.SFNSText'; font-size:18px;">*&gt;%0</tspan><tspan x="437" y="0" style="fill:#848484; font-family:'.SFNSText'; font-size:18px;">?5</tspan><tspan x="453.3" y="0" style="fill:#848484; font-family:'.SFNSText'; font-size:18px;">,@</tspan><tspan x="470.1" y="0" style="fill:#848484; font-family:'.SFNSText'; font-size:18px;">%</tspan></text>
	</g>
	<g style="display:inline;clip-path:url(#SVGID_86_);">
		<text transform="matrix(1 0 0 1 525.6768 225)"><tspan x="0" y="0" style="fill:#848484; font-family:'.SFNSText'; font-size:18px;">I5</tspan><tspan x="13.3" y="0" style="fill:#848484; font-family:'.SFNSText'; font-size:18px;">/</tspan><tspan x="19" y="0" style="fill:#848484; font-family:'.SFNSText'; font-size:18px;">.&lt;2</tspan><tspan x="42.3" y="0" style="fill:#848484; font-family:'.SFNSText'; font-size:18px;">8</tspan><tspan x="51.4" y="0" style="fill:#848484; font-family:'.SFNSText'; font-size:18px;">%</tspan><tspan x="65.6" y="0" style="fill:#848484; font-family:'.SFNSText'; font-size:18px;">/</tspan><tspan x="71.3" y="0" style="fill:#848484; font-family:'.SFNSText'; font-size:18px;">.</tspan><tspan x="74.9" y="0" style="fill:#848484; font-family:'.SFNSText'; font-size:18px;">:</tspan><tspan x="78.6" y="0" style="fill:#848484; font-family:'.SFNSText'; font-size:18px;">52</tspan><tspan x="96.8" y="0" style="fill:#848484; font-family:'.SFNSText'; font-size:18px;">8</tspan><tspan x="106" y="0" style="fill:#848484; font-family:'.SFNSText'; font-size:18px;">%?0)%</tspan><tspan x="155.5" y="0" style="fill:#848484; font-family:'.SFNSText'; font-size:18px;">*</tspan><tspan x="162.9" y="0" style="fill:#848484; font-family:'.SFNSText'; font-size:18px;">0</tspan><tspan x="172" y="0" style="fill:#848484; font-family:'.SFNSText'; font-size:18px;">1</tspan><tspan x="181.1" y="0" style="fill:#848484; font-family:'.SFNSText'; font-size:18px;">%&lt;.</tspan><tspan x="209.4" y="0" style="fill:#848484; font-family:'.SFNSText'; font-size:18px;">8</tspan><tspan x="218.4" y="0" style="fill:#848484; font-family:'.SFNSText'; font-size:18px;">8</tspan><tspan x="227.5" y="0" style="fill:#848484; font-family:'.SFNSText'; font-size:18px;">.%&lt;.,,5</tspan><tspan x="275.7" y="0" style="fill:#848484; font-family:'.SFNSText'; font-size:18px;">8</tspan><tspan x="284.9" y="0" style="fill:#848484; font-family:'.SFNSText'; font-size:18px;">%,5</tspan><tspan x="311.7" y="0" style="fill:#848484; font-family:'.SFNSText'; font-size:18px;">*1</tspan><tspan x="328.2" y="0" style="fill:#848484; font-family:'.SFNSText'; font-size:18px;">5;2</tspan><tspan x="350" y="0" style="fill:#848484; font-family:'.SFNSText'; font-size:18px;">*</tspan><tspan x="357.4" y="0" style="fill:#848484; font-family:'.SFNSText'; font-size:18px;">,</tspan><tspan x="361" y="0" style="fill:#848484; font-family:'.SFNSText'; font-size:18px;">@</tspan></text>
	</g>
</g>
<g class="st0">
	<defs>
		<rect id="SVGID_87_" x="463" y="118" width="515" height="108"/>
	</defs>
	<clipPath id="SVGID_88_" class="st1">
		<use xlink:href="#SVGID_87_"  style="overflow:visible;"/>
	</clipPath>
	<g style="display:inline;clip-path:url(#SVGID_88_);">
		<text transform="matrix(1 0 0 1 662.9253 162)"><tspan x="0" y="0" style="fill:#272727; font-family:'.SFNSDisplay'; font-size:46px;">!</tspan><tspan x="11" y="0" style="fill:#272727; font-family:'.SFNSDisplay'; font-size:46px; letter-spacing:1;">&quot;#$</tspan><tspan x="76.3" y="0" style="fill:#272727; font-family:'.SFNSDisplay'; font-size:46px;">%</tspan></text>
	</g>
</g>
<g class="st0">
	<defs>
		<rect id="SVGID_89_" y="77" width="324" height="12"/>
	</defs>
	<clipPath id="SVGID_90_" class="st1">
		<use xlink:href="#SVGID_89_"  style="overflow:visible;"/>
	</clipPath>
	<g class="st37">
		<defs>
			<rect id="SVGID_91_" width="1440" height="1024"/>
		</defs>
		<clipPath id="SVGID_92_">
			<use xlink:href="#SVGID_91_"  style="overflow:visible;"/>
		</clipPath>
		<rect x="-5" y="72" class="st38" width="334" height="22"/>
	</g>
</g>
<g class="st0">
	<defs>
		<rect id="SVGID_93_" width="1440" height="1024"/>
	</defs>
	<clipPath id="SVGID_94_" class="st1">
		<use xlink:href="#SVGID_93_"  style="overflow:visible;"/>
	</clipPath>
	<g class="st39">
		<defs>
			<rect id="SVGID_95_" width="1440" height="1024"/>
		</defs>
		<clipPath id="SVGID_96_">
			<use xlink:href="#SVGID_95_"  style="overflow:visible;"/>
		</clipPath>
		<rect x="-5" y="-5" class="st40" width="1450" height="1034"/>
	</g>
</g>
<g class="st0">
	<defs>
		<rect id="SVGID_97_" x="24576" y="109" width="416" height="288"/>
	</defs>
	<clipPath id="SVGID_98_" class="st1">
		<use xlink:href="#SVGID_97_"  style="overflow:visible;"/>
	</clipPath>
	<g style="display:inline;clip-path:url(#SVGID_98_);">
		<image style="overflow:visible;" width="416" height="288" xlink:href="F56E0B4F.png"  transform="matrix(1 0 0 1 24576 109)">
		</image>
	</g>
</g>
<g class="st0">
	<defs>
		<rect id="SVGID_99_" x="516" y="109" width="416" height="288"/>
	</defs>
	<clipPath id="SVGID_100_" class="st1">
		<use xlink:href="#SVGID_99_"  style="overflow:visible;"/>
	</clipPath>
	<path class="st41" d="M-306,113H90c1.1,0,2,0.9,2,2v268c0,1.1-0.9,2-2,2h-396c-1.1,0-2-0.9-2-2V115C-308,113.9-307.1,113-306,113z"
		/>
</g>
<g class="st0">
	<defs>
		<path id="SVGID_101_" d="M522,113h396c1.1,0,2,0.9,2,2v268c0,1.1-0.9,2-2,2H522c-1.1,0-2-0.9-2-2V115C520,113.9,520.9,113,522,113
			z"/>
	</defs>
	<clipPath id="SVGID_102_" class="st1">
		<use xlink:href="#SVGID_101_"  style="overflow:visible;"/>
	</clipPath>
	<g class="st42">
		<defs>
			<rect id="SVGID_103_" width="1440" height="1024"/>
		</defs>
		<clipPath id="SVGID_104_">
			<use xlink:href="#SVGID_103_"  style="overflow:visible;"/>
		</clipPath>
		<rect x="515" y="108" class="st43" width="410" height="282"/>
	</g>
</g>
<g class="st0">
	<defs>
		<rect id="SVGID_105_" width="1440" height="1024"/>
	</defs>
	<clipPath id="SVGID_106_" class="st1">
		<use xlink:href="#SVGID_105_"  style="overflow:visible;"/>
	</clipPath>
	<line class="st44" x1="520" y1="173" x2="920" y2="173"/>
	<g style="display:inline;clip-path:url(#SVGID_106_);">
		<text transform="matrix(1 0 0 1 625.9707 151)"><tspan x="0" y="0" style="fill:#272727; font-family:'.SFNSDisplay'; font-size:24px;">&amp;</tspan><tspan x="14.9" y="0" style="fill:#272727; font-family:'.SFNSDisplay'; font-size:24px;">&apos;</tspan><tspan x="19.7" y="0" style="fill:#272727; font-family:'.SFNSDisplay'; font-size:24px;">()*+,</tspan><tspan x="64.3" y="0" style="fill:#272727; font-family:'.SFNSDisplay'; font-size:24px;">&apos;</tspan><tspan x="69.1" y="0" style="fill:#272727; font-family:'.SFNSDisplay'; font-size:24px;">)--.</tspan><tspan x="97" y="0" style="fill:#272727; font-family:'.SFNSDisplay'; font-size:24px;">&quot;/</tspan><tspan x="114" y="0" style="fill:#272727; font-family:'.SFNSDisplay'; font-size:24px;">(</tspan></text>
	</g>
</g>
<g>
	<defs>
		<rect id="SVGID_107_" x="0.4" width="36" height="36"/>
	</defs>
	<clipPath id="SVGID_108_">
		<use xlink:href="#SVGID_107_"  style="overflow:visible;"/>
	</clipPath>
	<g class="st45">
		<defs>
			<rect id="SVGID_109_" x="-882.6" y="-68" width="1440" height="1024"/>
		</defs>
		<clipPath id="SVGID_110_">
			<use xlink:href="#SVGID_109_"  style="overflow:visible;"/>
		</clipPath>
		<g class="st46">
			<g>
				<defs>
					<rect id="SVGID_111_" x="0.4" width="36" height="36"/>
				</defs>
				<clipPath id="SVGID_112_">
					<use xlink:href="#SVGID_111_"  style="overflow:visible;"/>
				</clipPath>
				<g class="st47">
					<defs>
						<path id="SVGID_113_" d="M19.8,18L36.1,1.7c0.2-0.2,0.3-0.4,0.3-0.7c0-0.6-0.4-1-1-1c-0.3,0-0.5,0.1-0.7,0.3L18.4,16.6
							L2.1,0.3C1.9,0.1,1.7,0,1.4,0c-0.6,0-1,0.4-1,1c0,0.3,0.1,0.5,0.3,0.7L17,18L0.7,34.3c-0.2,0.2-0.3,0.4-0.3,0.7
							c0,0.6,0.4,1,1,1c0.3,0,0.5-0.1,0.7-0.3l16.3-16.3l16.3,16.3c0.2,0.2,0.4,0.3,0.7,0.3c0.6,0,1-0.4,1-1c0-0.3-0.1-0.5-0.3-0.7
							L19.8,18z"/>
					</defs>
					<clipPath id="SVGID_114_">
						<use xlink:href="#SVGID_113_"  style="overflow:visible;"/>
					</clipPath>
					<g class="st48">
						<defs>
							<rect id="SVGID_115_" x="0.4" width="36" height="36"/>
						</defs>
						<clipPath id="SVGID_116_">
							<use xlink:href="#SVGID_115_"  style="overflow:visible;"/>
						</clipPath>
						<rect x="-4.6" y="-5" class="st49" width="46" height="46"/>
					</g>
				</g>
			</g>
		</g>
	</g>
</g>
<g class="st0">
	<defs>
		<rect id="SVGID_117_" x="538" y="292" width="365" height="52"/>
	</defs>
	<clipPath id="SVGID_118_" class="st1">
		<use xlink:href="#SVGID_117_"  style="overflow:visible;"/>
	</clipPath>
	<g class="st50">
		<defs>
			<rect id="SVGID_119_" x="538" y="292" width="365" height="52"/>
		</defs>
		<clipPath id="SVGID_120_">
			<use xlink:href="#SVGID_119_"  style="overflow:visible;"/>
		</clipPath>
		<rect x="533" y="287" class="st51" width="375" height="62"/>
	</g>
</g>
<g class="st0">
	<defs>
		<rect id="SVGID_121_" x="538" y="292" width="365" height="52"/>
	</defs>
	<clipPath id="SVGID_122_" class="st1">
		<use xlink:href="#SVGID_121_"  style="overflow:visible;"/>
	</clipPath>
	<g style="display:inline;clip-path:url(#SVGID_122_);">
		<text transform="matrix(1 0 0 1 687.4662 325)"><tspan x="0" y="0" style="fill:#FFFFFF; font-family:'.SFNSText'; font-size:18px;">&amp;JKA</tspan><tspan x="36.7" y="0" style="fill:#FFFFFF; font-family:'.SFNSText'; font-size:18px;">C</tspan><tspan x="46.7" y="0" style="fill:#FFFFFF; font-family:'.SFNSText'; font-size:18px;">$</tspan></text>
	</g>
</g>
<g class="st0">
	<defs>
		<rect id="SVGID_123_" x="24832" y="215" width="371" height="58"/>
	</defs>
	<clipPath id="SVGID_124_" class="st1">
		<use xlink:href="#SVGID_123_"  style="overflow:visible;"/>
	</clipPath>
	<g style="display:inline;clip-path:url(#SVGID_124_);">
		<image style="overflow:visible;" width="371" height="58" xlink:href="F56E0B4A.png"  transform="matrix(1 0 0 1 24832 215)">
		</image>
	</g>
</g>
<g class="st0">
	<defs>
		<rect id="SVGID_125_" x="533" y="215" width="371" height="58"/>
	</defs>
	<clipPath id="SVGID_126_" class="st1">
		<use xlink:href="#SVGID_125_"  style="overflow:visible;"/>
	</clipPath>
	<rect x="-206" y="216" class="st52" width="365" height="52"/>
</g>
<g class="st0">
	<defs>
		<rect id="SVGID_127_" x="536" y="216" width="365" height="52"/>
	</defs>
	<clipPath id="SVGID_128_" class="st1">
		<use xlink:href="#SVGID_127_"  style="overflow:visible;"/>
	</clipPath>
	<g class="st53">
		<defs>
			<rect id="SVGID_129_" x="533" y="189" width="371" height="84"/>
		</defs>
		<clipPath id="SVGID_130_">
			<use xlink:href="#SVGID_129_"  style="overflow:visible;"/>
		</clipPath>
		<rect x="536" y="216" class="st54" width="365" height="52"/>
	</g>
</g>
<g class="st0">
	<defs>
		<rect id="SVGID_131_" x="536" y="216" width="365" height="52"/>
	</defs>
	<clipPath id="SVGID_132_" class="st1">
		<use xlink:href="#SVGID_131_"  style="overflow:visible;"/>
	</clipPath>
	<g class="st55">
		<defs>
			<rect id="SVGID_133_" x="533" y="189" width="371" height="84"/>
		</defs>
		<clipPath id="SVGID_134_">
			<use xlink:href="#SVGID_133_"  style="overflow:visible;"/>
		</clipPath>
		<rect x="536" y="216" class="st56" width="365" height="52"/>
	</g>
</g>
<g class="st0">
	<defs>
		<rect id="SVGID_135_" x="533" y="189" width="371" height="84"/>
	</defs>
	<clipPath id="SVGID_136_" class="st1">
		<use xlink:href="#SVGID_135_"  style="overflow:visible;"/>
	</clipPath>
	<g style="display:inline;clip-path:url(#SVGID_136_);">
		<text transform="matrix(1 0 0 1 549 248)"><tspan x="0" y="0" style="fill:#272727; font-family:'.SFNSText'; font-size:16px;">EEEEEEEE</tspan><tspan x="60.5" y="0" style="fill:#272727; font-family:'.SFNSText'; font-size:16px;">E</tspan></text>
	</g>
	<g style="display:inline;clip-path:url(#SVGID_136_);">
		<text transform="matrix(1 0 0 1 536.8295 207)"><tspan x="0" y="0" style="fill:#616161; font-family:'.SFNSText'; font-size:14px;">&quot;ABCD</tspan><tspan x="42.5" y="0" style="fill:#616161; font-family:'.SFNSText'; font-size:14px;">%</tspan><tspan x="54.5" y="0" style="fill:#616161; font-family:'.SFNSText'; font-size:14px;">B((</tspan><tspan x="72.5" y="0" style="fill:#616161; font-family:'.SFNSText'; font-size:14px;">7</tspan><tspan x="80.6" y="0" style="fill:#616161; font-family:'.SFNSText'; font-size:14px;">&quot;</tspan><tspan x="86.1" y="0" style="fill:#616161; font-family:'.SFNSText'; font-size:14px;">&amp;</tspan><tspan x="95.4" y="0" style="fill:#616161; font-family:'.SFNSText'; font-size:14px;">&amp;</tspan></text>
	</g>
</g>
</svg>
