<?xml version="1.0" encoding="utf-8"?>
<!-- Generator: Adobe Illustrator 21.1.0, SVG Export Plug-In . SVG Version: 6.00 Build 0)  -->
<svg version="1.1" xmlns="http://www.w3.org/2000/svg" xmlns:xlink="http://www.w3.org/1999/xlink" x="0px" y="0px"
	 viewBox="0 0 30.1 30" style="enable-background:new 0 0 30.1 30;" xml:space="preserve">
<style type="text/css">
	.st0{display:none;}
	.st1{display:inline;}
	.st2{clip-path:url(#SVGID_2_);}
	.st3{clip-path:url(#SVGID_5_);}
	.st4{clip-path:url(#SVGID_8_);}
	.st5{clip-path:url(#SVGID_10_);fill:#141415;}
	.st6{clip-path:url(#SVGID_12_);}
	.st7{clip-path:url(#SVGID_14_);fill:#141415;}
	.st8{fill:#721229;}
	.st9{clip-path:url(#SVGID_16_);}
	.st10{opacity:0;clip-path:url(#SVGID_18_);}
	.st11{opacity:0;}
	.st12{clip-path:url(#SVGID_18_);}
	.st13{fill:#FFFFFF;}
	.st14{fill:none;stroke:#FFFFFF;stroke-width:2;stroke-miterlimit:10;}
	.st15{clip-path:url(#SVGID_24_);}
	.st16{clip-path:url(#SVGID_26_);fill:#FFFFFF;}
	.st17{clip-path:url(#SVGID_28_);}
	.st18{opacity:0;clip-path:url(#SVGID_30_);}
	.st19{clip-path:url(#SVGID_30_);}
	.st20{display:inline;clip-path:url(#SVGID_36_);}
	.st21{clip-path:url(#SVGID_38_);fill:#FFFFFF;}
	.st22{clip-path:url(#SVGID_42_);}
	.st23{clip-path:url(#SVGID_44_);fill:#FFFFFF;}
</style>
<g id="Layer_1" class="st0">
	<g class="st1">
		<defs>
			<path id="SVGID_1_" d="M-573.4-871.5l-15.4-15.4c4.4-4.9,7.1-11.4,7.1-18.5c0-15.3-12.4-27.6-27.6-27.6
				c-15.3,0-27.6,12.4-27.6,27.6c0,15.3,12.4,27.6,27.6,27.6c7.1,0,13.6-2.7,18.5-7.1l15.4,15.4c0.3,0.3,0.6,0.4,1,0.4
				c0.8,0,1.5-0.6,1.5-1.5C-573-870.9-573.1-871.2-573.4-871.5 M-609.3-880.6c-13.7,0-24.7-11.1-24.7-24.7
				c0-13.7,11.1-24.7,24.7-24.7c13.7,0,24.7,11.1,24.7,24.7C-584.6-891.7-595.7-880.6-609.3-880.6"/>
		</defs>
		<clipPath id="SVGID_2_">
			<use xlink:href="#SVGID_1_"  style="overflow:visible;"/>
		</clipPath>
		<g class="st2">
			<defs>
				<rect id="SVGID_3_" x="-647" y="-943" width="84" height="84"/>
			</defs>
			<defs>
				<rect id="SVGID_4_" x="-945" y="-1787" width="2880" height="4774"/>
			</defs>
			<clipPath id="SVGID_5_">
				<use xlink:href="#SVGID_3_"  style="overflow:visible;"/>
			</clipPath>
			<clipPath id="SVGID_6_" class="st3">
				<use xlink:href="#SVGID_4_"  style="overflow:visible;"/>
			</clipPath>
		</g>
	</g>
	<g id="Layer_2" class="st1">
		<g>
			<defs>
				<path id="SVGID_7_" d="M-573.4-871.5l-15.4-15.4c4.4-4.9,7.1-11.4,7.1-18.5c0-15.3-12.4-27.6-27.6-27.6
					c-15.3,0-27.6,12.4-27.6,27.6c0,15.3,12.4,27.6,27.6,27.6c7.1,0,13.6-2.7,18.5-7.1l15.4,15.4c0.3,0.3,0.6,0.4,1,0.4
					c0.8,0,1.5-0.6,1.5-1.5C-573-870.9-573.1-871.2-573.4-871.5 M-609.3-880.6c-13.7,0-24.7-11.1-24.7-24.7
					c0-13.7,11.1-24.7,24.7-24.7c13.7,0,24.7,11.1,24.7,24.7C-584.6-891.7-595.7-880.6-609.3-880.6"/>
			</defs>
			<clipPath id="SVGID_8_">
				<use xlink:href="#SVGID_7_"  style="overflow:visible;"/>
			</clipPath>
			<g class="st4">
				<defs>
					<rect id="SVGID_9_" x="-945" y="-1787" width="2880" height="4774"/>
				</defs>
				<clipPath id="SVGID_10_">
					<use xlink:href="#SVGID_9_"  style="overflow:visible;"/>
				</clipPath>
				<rect x="-647" y="-943" class="st5" width="84" height="84"/>
			</g>
		</g>
		<g>
			<defs>
				<path id="SVGID_11_" d="M-41.4,61.5l-15.4-15.4c4.4-4.9,7.1-11.4,7.1-18.5C-49.7,12.4-62.1,0-77.3,0C-92.6,0-105,12.4-105,27.6
					c0,15.3,12.4,27.6,27.6,27.6c7.1,0,13.6-2.7,18.5-7.1l15.4,15.4c0.3,0.3,0.6,0.4,1,0.4c0.8,0,1.5-0.6,1.5-1.5
					C-41,62.1-41.1,61.8-41.4,61.5 M-77.3,52.4c-13.7,0-24.7-11.1-24.7-24.7C-102.1,14-91,2.9-77.3,2.9c13.7,0,24.7,11.1,24.7,24.7
					C-52.6,41.3-63.7,52.4-77.3,52.4"/>
			</defs>
			<clipPath id="SVGID_12_">
				<use xlink:href="#SVGID_11_"  style="overflow:visible;"/>
			</clipPath>
			<g class="st6">
				<defs>
					<rect id="SVGID_13_" x="-413" y="-854" width="2880" height="4774"/>
				</defs>
				<clipPath id="SVGID_14_">
					<use xlink:href="#SVGID_13_"  style="overflow:visible;"/>
				</clipPath>
				<rect x="-115" y="-10" class="st7" width="84" height="84"/>
			</g>
		</g>
	</g>
</g>
<g id="Layer_3" class="st0">
</g>
<g id="Layer_6" class="st0">
	<g id="Layer_7" class="st1">
		<rect x="-68.3" class="st8" width="98.8" height="67.7"/>
	</g>
</g>
<g id="Layer_4" class="st0">
	<g class="st1">
		<defs>
			<path id="SVGID_15_" d="M18.5,0L18.5,0c6.6,0,12,5.4,12,12s-5.4,12-12,12c-6.6,0-12-5.4-12-12S11.9,0,18.5,0z"/>
		</defs>
		<clipPath id="SVGID_16_">
			<use xlink:href="#SVGID_15_"  style="overflow:visible;"/>
		</clipPath>
		<g class="st9">
			<defs>
				<rect id="SVGID_17_" x="6.5" width="24" height="30"/>
			</defs>
			<clipPath id="SVGID_18_">
				<use xlink:href="#SVGID_17_"  style="overflow:visible;"/>
			</clipPath>
			<g class="st10">
				<g class="st11">
					<g>
						<defs>
							<rect id="SVGID_19_" x="6.5" width="24" height="30"/>
						</defs>
						<clipPath id="SVGID_20_">
							<use xlink:href="#SVGID_19_"  style="overflow:visible;"/>
						</clipPath>
						<g style="clip-path:url(#SVGID_20_);">
							
								<image style="overflow:visible;" width="102" height="126" xlink:href="4F8ECC6B.jpg"  transform="matrix(0.24 0 0 0.24 6.3913 0)">
							</image>
						</g>
					</g>
				</g>
			</g>
			<g class="st12">
				<g>
					<defs>
						<rect id="SVGID_21_" x="6.5" width="24" height="30"/>
					</defs>
					<clipPath id="SVGID_22_">
						<use xlink:href="#SVGID_21_"  style="overflow:visible;"/>
					</clipPath>
					<g style="clip-path:url(#SVGID_22_);">
						
							<image style="overflow:visible;" width="102" height="126" xlink:href="4F8ECC69.jpg"  transform="matrix(0.24 0 0 0.24 6.3913 0)">
						</image>
					</g>
				</g>
			</g>
		</g>
	</g>
	<path class="st13" d="M19.6,18.9c-1.1,0-2.1-0.3-3.1-0.8c-0.3-0.1-0.3-0.5-0.1-0.7c0.1-0.1,0.1-0.1,0.2-0.1c0.1,0,0.2,0,0.3,0
		c0.3,0,0.7,0.1,1,0.1c2.8,0,5.2-0.9,7.4-2.7c0.2-0.1,0.3-0.2,0.5-0.1c0.2,0.1,0.2,0.3,0.1,0.5c0,0.1-0.1,0.2-0.2,0.3
		c-1.1,1.7-2.6,2.8-4.5,3.3C20.7,18.8,20.1,18.9,19.6,18.9"/>
	<path class="st13" d="M10.1,13.7c0-3.2,1.8-5.9,4.3-7.1c0.5-0.3,1.1-0.4,1.7-0.5c0.2,0,0.4,0.1,0.4,0.3c0.1,0.2,0,0.4-0.2,0.5
		c-0.7,0.4-1.3,0.9-1.9,1.4c-1.8,1.6-2.9,3.7-3.5,6.1c0,0,0,0,0,0.1c-0.1,0.2-0.2,0.3-0.4,0.3c-0.2,0-0.3-0.2-0.3-0.4
		C10.1,14.1,10.1,13.8,10.1,13.7"/>
	<path class="st13" d="M25.1,10.2c0,2.1-0.7,3.8-2,5.3c-0.1,0.1-0.1,0.1-0.2,0.2c-0.2,0-0.3,0-0.4-0.1c-0.1-0.1-0.1-0.3-0.1-0.4
		c0-0.1,0.1-0.2,0.1-0.2c0.4-0.9,0.7-1.9,0.8-2.9c0.1-0.4,0.1-0.8,0.1-1.3c0-0.4,0-0.7,0-1.1c0-1.4-0.3-2.8-0.8-4.1
		c0-0.1-0.1-0.2,0-0.3c0-0.1,0.1-0.2,0.3-0.3c0.1,0,0.3,0,0.4,0.1c0.1,0.1,0.1,0.2,0.2,0.3c0.7,1,1.2,2.1,1.4,3.4
		C25,9.2,25.1,9.7,25.1,10.2"/>
	<path class="st13" d="M12.1,13.3c0-0.4,0-0.8,0.1-1.2c0-0.3,0.3-0.4,0.5-0.3c0.1,0.1,0.2,0.2,0.2,0.3c0,0.2,0.1,0.3,0.1,0.5
		c0.4,1.7,1.1,3.3,2.1,4.7c0.8,1.1,1.7,2,2.8,2.7c0.1,0.1,0.2,0.2,0.2,0.3c0,0.3-0.2,0.5-0.4,0.4c-0.2-0.1-0.5-0.1-0.7-0.2
		c-1.9-0.7-3.2-2-4.1-3.8c-0.3-0.7-0.6-1.5-0.7-2.3C12.1,14,12.1,13.6,12.1,13.3"/>
	<path class="st13" d="M16.1,4c0.2,0,0.4,0,0.6,0C17.9,4.1,19,4.4,20,5c1.2,0.7,2.2,1.8,2.8,3.1c0.1,0.3,0,0.5-0.2,0.6
		c-0.1,0.1-0.3,0-0.4-0.1c-0.1-0.1-0.2-0.2-0.3-0.3C20.5,7,18.8,6.1,17,5.7c-0.5-0.1-0.9-0.2-1.4-0.2c-0.6-0.1-1.1-0.1-1.7,0
		c-0.2,0-0.3-0.1-0.4-0.3c0-0.2,0-0.4,0.2-0.5c0.2-0.1,0.5-0.2,0.8-0.3c0.5-0.2,1-0.3,1.5-0.3C16,4.1,16.1,4.1,16.1,4"/>
</g>
<g id="Layer_5">
	<circle class="st14" cx="15" cy="15" r="14"/>
	<g>
		<defs>
			<path id="SVGID_23_" d="M21.9,14.1c0-0.3-0.3-0.6-0.6-0.6h-3.7l-1.2-3.7c-0.1-0.2-0.3-0.4-0.5-0.4c-0.3,0-0.5,0.2-0.5,0.4
				l-1.2,3.7h-3.7c-0.3,0-0.6,0.3-0.6,0.6c0,0.2,0.1,0.4,0.2,0.5l3,2.3L12,20.6c0,0.1,0,0.1,0,0.2c0,0.3,0.3,0.6,0.6,0.6
				c0.1,0,0.2,0,0.3-0.1h0l3-2.3l3,2.3h0c0.1,0.1,0.2,0.1,0.3,0.1c0.3,0,0.6-0.3,0.6-0.6c0-0.1,0-0.1,0-0.2l-1.2-3.7l3-2.3
				C21.9,14.4,21.9,14.3,21.9,14.1"/>
		</defs>
		<clipPath id="SVGID_24_">
			<use xlink:href="#SVGID_23_"  style="overflow:visible;"/>
		</clipPath>
		<g class="st15">
			<defs>
				<rect id="SVGID_25_" x="-88.1" y="-310.7" width="1488" height="386"/>
			</defs>
			<clipPath id="SVGID_26_">
				<use xlink:href="#SVGID_25_"  style="overflow:visible;"/>
			</clipPath>
			<rect x="-0.1" y="-0.7" class="st16" width="32" height="32"/>
		</g>
	</g>
	<g>
		<defs>
			<circle id="SVGID_27_" cx="14.9" cy="15" r="14"/>
		</defs>
		<clipPath id="SVGID_28_">
			<use xlink:href="#SVGID_27_"  style="overflow:visible;"/>
		</clipPath>
		<g class="st17">
			<defs>
				<rect id="SVGID_29_" x="-89.1" y="-311" width="1488" height="386"/>
			</defs>
			<clipPath id="SVGID_30_">
				<use xlink:href="#SVGID_29_"  style="overflow:visible;"/>
			</clipPath>
			<g class="st18">
				<g class="st11">
					<g>
						<defs>
							<rect id="SVGID_31_" x="-89.1" y="-311" width="1488" height="386"/>
						</defs>
						<clipPath id="SVGID_32_">
							<use xlink:href="#SVGID_31_"  style="overflow:visible;"/>
						</clipPath>
						<g style="clip-path:url(#SVGID_32_);">
							
								<image style="overflow:visible;" width="6201" height="1609" xlink:href="4F8ECC6F.jpg"  transform="matrix(0.24 0 0 0.24 -89.1288 -311.04)">
							</image>
						</g>
					</g>
				</g>
			</g>
			<g class="st19">
				<g>
					<defs>
						<rect id="SVGID_33_" x="-89.1" y="-311" width="1488" height="386"/>
					</defs>
					<clipPath id="SVGID_34_">
						<use xlink:href="#SVGID_33_"  style="overflow:visible;"/>
					</clipPath>
					<g style="clip-path:url(#SVGID_34_);">
						
							<image style="overflow:visible;" width="6201" height="1609" xlink:href="4F8ECC68.jpg"  transform="matrix(0.24 0 0 0.24 -89.1288 -311.04)">
						</image>
					</g>
				</g>
			</g>
		</g>
	</g>
</g>
<g id="Layer_8">
	<g class="st0">
		<defs>
			<path id="SVGID_35_" d="M-86-301h1464c4.4,0,8,3.6,8,8V69c0,4.4-3.6,8-8,8H-86c-4.4,0-8-3.6-8-8v-362C-94-297.4-90.4-301-86-301z
				"/>
		</defs>
		<clipPath id="SVGID_36_" class="st1">
			<use xlink:href="#SVGID_35_"  style="overflow:visible;"/>
		</clipPath>
		<g class="st20">
			<defs>
				<rect id="SVGID_37_" x="-96" y="-303" width="1488" height="386"/>
			</defs>
			<clipPath id="SVGID_38_">
				<use xlink:href="#SVGID_37_"  style="overflow:visible;"/>
			</clipPath>
			<rect x="-104" y="-311" class="st21" width="1500" height="398"/>
		</g>
	</g>
	<g>
		<defs>
			<rect id="SVGID_39_" x="-91" y="-313" width="1488" height="386"/>
		</defs>
		<clipPath id="SVGID_40_">
			<use xlink:href="#SVGID_39_"  style="overflow:visible;"/>
		</clipPath>
	</g>
	<image style="overflow:visible;" width="20" height="20" xlink:href="4F8ECC6B.png"  transform="matrix(1 0 0 1 6.0313 5)">
	</image>
	<g>
		<defs>
			<path id="SVGID_41_" d="M21,12.7c0-0.3-0.3-0.6-0.6-0.6h-3.7l-1.2-3.7C15.4,8.1,15.2,8,15,8c-0.3,0-0.5,0.2-0.5,0.4l-1.2,3.7H9.5
				c-0.3,0-0.6,0.3-0.6,0.6c0,0.2,0.1,0.4,0.2,0.5l3,2.3l-1.2,3.7c0,0.1,0,0.1,0,0.2c0,0.3,0.3,0.6,0.6,0.6c0.1,0,0.2,0,0.3-0.1h0
				l3-2.3l3,2.3h0c0.1,0.1,0.2,0.1,0.3,0.1c0.3,0,0.6-0.3,0.6-0.6c0-0.1,0-0.1,0-0.2l-1.2-3.7l3-2.3C20.9,13.1,21,12.9,21,12.7"/>
		</defs>
		<clipPath id="SVGID_42_">
			<use xlink:href="#SVGID_41_"  style="overflow:visible;"/>
		</clipPath>
		<g class="st22">
			<defs>
				<rect id="SVGID_43_" x="-89" y="-312" width="1488" height="386"/>
			</defs>
			<clipPath id="SVGID_44_">
				<use xlink:href="#SVGID_43_"  style="overflow:visible;"/>
			</clipPath>
			<rect x="-1" y="-2" class="st23" width="32" height="32"/>
		</g>
	</g>
</g>
</svg>
