<?xml version="1.0" encoding="utf-8"?>
<!-- Generator: Adobe Illustrator 21.1.0, SVG Export Plug-In . SVG Version: 6.00 Build 0)  -->
<svg version="1.1" id="Layer_1" xmlns="http://www.w3.org/2000/svg" xmlns:xlink="http://www.w3.org/1999/xlink" x="0px" y="0px"
	 viewBox="0 0 257.4 48.2" style="enable-background:new 0 0 257.4 48.2;" xml:space="preserve">
<style type="text/css">
	.st0{clip-path:url(#SVGID_2_);fill:#272727;}
	.st1{clip-path:url(#SVGID_4_);fill:#272727;}
	.st2{clip-path:url(#SVGID_6_);fill:#272727;}
	.st3{clip-path:url(#SVGID_8_);fill:#272727;}
	.st4{clip-path:url(#SVGID_10_);fill:#272727;}
	.st5{clip-path:url(#SVGID_12_);fill:#272727;}
	.st6{clip-path:url(#SVGID_14_);fill:#272727;}
</style>
<g>
	<g>
		<defs>
			<path id="SVGID_1_" d="M142.9,0.3c0,0.1,0,0.2,0,0.3v45v0.4c0.5,0.1,8.2,0.1,8.5,0v-0.5c0-6.1,0-12.2,0-18.4c0-1.2,0-2.4,0.3-3.6
				c0.4-1.8,1.5-3,3.4-3.5c0.2,0,0.4-0.1,0.6-0.1c1.8-0.3,3.7-0.3,5.5-0.1c0.7,0.1,1.4,0.2,2,0.5c1.2,0.5,1.9,1.4,2.1,2.5
				c0.2,0.9,0.2,1.7,0.2,2.6c0,6.7,0,13.5,0,20.2v0.5h8.6v-0.5v-19c0-1.2,0-2.4,0-3.6c0-1-0.2-2.1-0.5-3.1c-0.5-1.8-1.5-3.4-3.2-4.5
				c-0.9-0.6-1.8-1-2.8-1.4c-1.6-0.6-3.3-0.8-5-0.9c-2.1-0.1-4.2-0.1-6.2,0.3c-1.8,0.3-3.4,1-4.8,2c0,0-0.1,0.1-0.2,0.1V15
				c0-4.8,0-9.5,0-14.3c0-0.1,0-0.3,0-0.4L142.9,0.3L142.9,0.3z"/>
		</defs>
		<use xlink:href="#SVGID_1_"  style="overflow:visible;fill:#272727;"/>
		<clipPath id="SVGID_2_">
			<use xlink:href="#SVGID_1_"  style="overflow:visible;"/>
		</clipPath>
		<rect x="132.5" y="-10.1" class="st0" width="52.1" height="66.6"/>
	</g>
</g>
<g>
	<g>
		<defs>
			<path id="SVGID_3_" d="M3.4,2.4v43.7h7.9V15.5l0.1,0c3.2,6.1,6.4,12.2,9.6,18.3h6.6c3.2-6.2,6.3-12.5,9.5-18.7c0,0,0.1,0,0.1,0
				v31c0.4,0.1,7.6,0.1,7.9,0V2.4h-8.8c-3.9,7.9-7.8,15.8-11.8,23.8c-4.2-8-8.3-15.9-12.4-23.8H3.4z"/>
		</defs>
		<use xlink:href="#SVGID_3_"  style="overflow:visible;fill:#8C8C8C;"/>
		<clipPath id="SVGID_4_">
			<use xlink:href="#SVGID_3_"  style="overflow:visible;"/>
		</clipPath>
		<rect x="-7" y="-8" class="st1" width="62.5" height="64.5"/>
	</g>
</g>
<g>
	<g>
		<defs>
			<path id="SVGID_5_" d="M188.6,26.7c0.1,0,0.3,0,0.4,0c3.2,0,6.5,0,9.7,0c1,0,2,0.1,3,0.3c2.1,0.5,3.2,1.7,3.6,3.8
				c0.3,1.7,0.3,3.4-0.1,5.1c-0.1,0.3-0.2,0.6-0.3,1c-0.4,0.9-1,1.5-1.9,1.9c-0.7,0.3-1.5,0.5-2.3,0.6c-0.6,0.1-1.3,0.1-1.9,0.1
				c-3.2,0-6.5,0-9.7,0h-0.4L188.6,26.7L188.6,26.7z M188.6,20.1v-11h0.5h9.3c0.9,0,1.8,0,2.7,0.3c1.9,0.5,2.8,1.4,3.1,3.3
				c0.2,1.3,0.2,2.5-0.1,3.8c-0.3,1.9-1.5,3-3.3,3.4c-0.8,0.2-1.6,0.3-2.5,0.3c-3.1,0-6.2,0-9.4,0C188.8,20.2,188.7,20.1,188.6,20.1
				 M180.8,2.4c-0.1,0-0.3,0-0.4,0v43.7h0.5c6,0,11.9,0,17.9,0c1.5,0,3-0.1,4.5-0.3c1.8-0.3,3.4-0.7,5-1.6c2-1,3.5-2.5,4.4-4.6
				c0.5-1.1,0.7-2.3,0.9-3.5c0.1-1.6,0.2-3.2,0-4.7c-0.1-1.2-0.4-2.4-1-3.6c-1.1-2.2-2.9-3.7-5.2-4.5c-0.2-0.1-0.4-0.1-0.7-0.2
				c0.1-0.1,0.1-0.1,0.1-0.1c0.2-0.1,0.3-0.1,0.5-0.2c2.4-1.1,4-2.9,4.7-5.5c0.3-0.9,0.4-1.9,0.4-2.9c0.1-1.7,0-3.4-0.5-5.1
				c-0.7-2.7-2.3-4.6-4.9-5.7c-0.6-0.2-1.2-0.4-1.8-0.6c-1.9-0.5-3.9-0.7-5.9-0.7c-2.6,0-5.2,0-7.8,0C187.9,2.4,184.3,2.4,180.8,2.4
				"/>
		</defs>
		<use xlink:href="#SVGID_5_"  style="overflow:visible;fill:#272727;"/>
		<clipPath id="SVGID_6_">
			<use xlink:href="#SVGID_5_"  style="overflow:visible;"/>
		</clipPath>
		<rect x="170" y="-8" class="st2" width="54.1" height="64.5"/>
	</g>
</g>
<g>
	<g>
		<defs>
			<path id="SVGID_7_" d="M217.4,2.5c4.5,6.9,9.1,13.7,13.6,20.5c-5.1,7.7-10.1,15.3-15.3,23.1h0.5c2.6,0,5.3,0,7.9,0
				c0.4,0,0.6-0.1,0.7-0.4c3.4-5.4,6.8-10.7,10.1-16.1c0.1-0.1,0.2-0.3,0.3-0.4c0.3,0.5,0.5,0.9,0.8,1.3c3.2,5.1,6.5,10.2,9.7,15.3
				c0.1,0.2,0.2,0.4,0.5,0.4c2.9,0,5.7,0,8.6,0c0.1,0,0.2,0,0.3,0c-5.2-7.7-10.3-15.4-15.4-23c4.6-6.9,9.2-13.7,13.8-20.6h-8.9
				c-3,4.9-6.1,9.7-9.1,14.7c-3.1-4.9-6.3-9.8-9.4-14.6c-0.3,0-1.7,0-3.3,0C220.6,2.4,217.6,2.5,217.4,2.5"/>
		</defs>
		<use xlink:href="#SVGID_7_"  style="overflow:visible;fill:#272727;"/>
		<clipPath id="SVGID_8_">
			<use xlink:href="#SVGID_7_"  style="overflow:visible;"/>
		</clipPath>
		<rect x="205.3" y="-8" class="st3" width="60.4" height="64.5"/>
	</g>
</g>
<g>
	<g>
		<defs>
			<path id="SVGID_9_" d="M65.9,40.5c-0.8,0-1.5-0.1-2.3-0.3c-1.2-0.3-2-1.1-2.2-2.3c-0.2-1.2-0.2-2.5,0-3.7c0.2-1,0.9-1.7,2-2
				c0.8-0.2,1.7-0.4,2.5-0.4c1.3,0,2.7,0,4,0c0.9,0,1.8,0.1,2.6,0.4c0.4,0.1,0.7,0.3,1,0.5c0.7,0.4,1,1.1,1,1.9
				c0,0.4,0.1,0.8,0.1,1.1c0,1.5,0,3,0,4.5c0,0.1,0,0.2,0,0.3c-0.1,0-0.2,0-0.3,0C71.5,40.5,68.7,40.5,65.9,40.5 M66.3,14.9
				c-2.8,0-5.5,0.1-8.3,0.1c-0.1,0-0.2,0-0.4,0c-0.4,2.1-0.9,4.1-1.3,6.2c0.2,0,0.4,0,0.5,0c2.5,0,5.1-0.1,7.6-0.1
				c1.8,0,3.6,0,5.4,0.1c0.7,0,1.5,0.2,2.2,0.4c1.2,0.4,2,1.2,2.3,2.4c0.3,1.2,0.3,2.4,0.3,3.6c-0.4-0.2-0.7-0.3-1-0.5
				c-1.4-0.6-2.9-0.9-4.4-1c-2.5-0.2-5-0.2-7.5,0.1c-1.4,0.2-2.8,0.6-4.1,1.2c-1.5,0.8-2.7,1.9-3.4,3.4c-0.4,0.9-0.7,1.9-0.8,3
				s-0.1,2.1-0.1,3.1c0,0.9,0.1,1.8,0.3,2.6c0.7,2.6,2.3,4.5,5,5.4c1.1,0.4,2.2,0.6,3.3,0.7c1.4,0.2,2.8,0.2,4.1,0.2
				c3.1,0,6.1,0,9.2,0c0.6,0,1.2,0,1.8-0.1c0.8,0,1.5-0.2,2.3-0.4c1.4-0.4,2.3-1.3,2.7-2.7c0.2-0.8,0.3-1.7,0.3-2.6
				c0-4.9,0-9.8,0-14.8c0-0.9-0.1-1.8-0.2-2.7c-0.6-3.1-2.4-5.3-5.4-6.6C75,15.6,73,15.2,71,15c-1.5-0.1-3-0.1-4.5-0.1
				C66.4,14.9,66.3,14.9,66.3,14.9"/>
		</defs>
		<use xlink:href="#SVGID_9_"  style="overflow:visible;fill:#272727;"/>
		<clipPath id="SVGID_10_">
			<use xlink:href="#SVGID_9_"  style="overflow:visible;"/>
		</clipPath>
		<rect x="42.9" y="4.5" class="st4" width="50" height="52.1"/>
	</g>
</g>
<g>
	<g>
		<defs>
			<path id="SVGID_11_" d="M90.8,7.8v0.5c0,8.6,0,17.2,0,25.8c0,0.5,0,1.1,0,1.6c0.1,1.4,0.2,2.8,0.5,4.1c0.3,1.1,0.7,2.2,1.5,3.2
				c1,1.2,2.4,1.9,3.9,2.3c1.9,0.5,3.8,0.7,5.8,0.7c2.3,0,4.6,0,6.9,0.1h0.4c0.5-2.1,0.9-4.2,1.4-6.4h-0.5c-1.7,0-3.4,0-5.2,0
				c-0.9,0-1.9,0-2.8-0.1c-1.8-0.2-2.7-0.9-3.1-2.6c-0.2-0.8-0.2-1.6-0.2-2.4c0-4.3,0-8.5,0-12.8c0-0.1,0-0.2,0-0.4h10.9
				c0.5-2.1,0.9-4.2,1.4-6.4H99.4V6.6C96.5,7,93.7,7.4,90.8,7.8"/>
		</defs>
		<use xlink:href="#SVGID_11_"  style="overflow:visible;fill:#272727;"/>
		<clipPath id="SVGID_12_">
			<use xlink:href="#SVGID_11_"  style="overflow:visible;"/>
		</clipPath>
		<rect x="80.4" y="-3.8" class="st5" width="41.6" height="60.4"/>
	</g>
</g>
<g>
	<g>
		<defs>
			<path id="SVGID_13_" d="M123.9,15c-1.6,0.1-3.2,0.4-4.7,0.8c-3.5,1.1-5.8,3.3-6.8,6.6c-0.4,1.5-0.7,3-0.7,4.5
				c-0.1,2.1-0.1,4.3,0,6.4c0,1.7,0.2,3.4,0.7,5c0.6,2,1.6,3.7,3.3,5c1.2,0.9,2.5,1.5,4,1.8c2,0.5,4,0.8,6,0.8c3.1,0,6.2,0,9.4-0.1
				c0.1,0,0.2,0,0.3,0c0.4-2.1,0.9-4.1,1.3-6.2c-0.2,0-0.4,0-0.6,0c-2.8,0-5.7,0.1-8.5,0.1c-1.3,0-2.5,0-3.8-0.3
				c-1.7-0.3-2.8-1.2-3.3-2.8c0-0.1-0.1-0.2-0.1-0.3c-0.3-0.9-0.4-1.9-0.4-2.8c0-2.2,0-4.4,0-6.5c0-0.9,0.2-1.7,0.3-2.6
				c0.4-1.8,1.5-2.8,3.3-3.2c0.8-0.1,1.6-0.2,2.4-0.2c2.8-0.1,5.6,0,8.4,0.1c0.3,0,0.5,0,0.8,0c0.4-2.1,0.9-4.1,1.3-6.2
				c-0.2,0-0.4,0-0.5,0c-0.7,0-1.4,0-2.1-0.1c-2,0-4-0.1-6-0.1C126.5,14.9,125.2,14.9,123.9,15"/>
		</defs>
		<use xlink:href="#SVGID_13_"  style="overflow:visible;fill:#272727;"/>
		<clipPath id="SVGID_14_">
			<use xlink:href="#SVGID_13_"  style="overflow:visible;"/>
		</clipPath>
		<rect x="101.2" y="4.5" class="st6" width="45.8" height="52.1"/>
	</g>
</g>
</svg>
