<?xml version="1.0"?>
<svg xmlns="http://www.w3.org/2000/svg" height="512px" viewBox="0 0 475 475.88431" width="512px"><path d="m473.738281 328.542969c-3.132812-9.9375-12.398437-16.65625-22.816406-16.542969h-10.480469v-256c0-4.417969-3.582031-8-8-8h-112v-40c0-4.417969-3.582031-8-8-8h-304c-4.417968 0-8 3.582031-8 8v416c0 4.417969 3.582032 8 8 8h264.320313l-4 12.335938c-3.242188 9.898437.269531 20.753906 8.695312 26.878906 8.421875 6.125 19.832031 6.117187 28.25-.015625l41.933594-30.542969c2.832031-2.070312 6.679687-2.070312 9.511719 0l42.011718 30.558594c8.375 6.226562 19.84375 6.226562 28.222657 0 8.519531-6.046875 12.066406-16.96875 8.71875-26.871094l-16.0625-49.488281c-1.054688-3.277344.132812-6.863281 2.933593-8.863281l42.089844-30.558594c8.5-6.074219 12.019532-16.996094 8.671875-26.890625zm-49.296875-264.542969v248h-25.519531c-.839844-.003906-1.675781-.140625-2.472656-.40625-2.410157-.8125-4.300781-2.699219-5.117188-5.105469l-16.082031-49.449219c-3.238281-9.847656-12.433594-16.503906-22.800781-16.503906-10.367188 0-19.5625 6.65625-22.800781 16.503906l-9.207032 28.265626v-77.304688h64c4.417969 0 8-3.582031 8-8s-3.582031-8-8-8h-64v-32h64c4.417969 0 8-3.582031 8-8s-3.582031-8-8-8h-64v-32h64c4.417969 0 8-3.582031 8-8s-3.582031-8-8-8h-64v-32zm-408 352v-400h288v296h-50.480468c-10.410157-.027344-19.652344 6.667969-22.878907 16.566406-3.222656 9.902344.304688 20.753906 8.734375 26.867188l42.074219 30.550781c2.820313 2.007813 4.011719 5.609375 2.945313 8.902344l-6.867188 21.113281zm439.199219-73.503906-42.078125 30.558594c-8.429688 6.074218-11.964844 16.902343-8.738281 26.777343l16.082031 49.441407c1.097656 3.300781-.066406 6.9375-2.882812 8.988281-2.8125 2.050781-6.628907 2.042969-9.4375-.015625l-42.039063-30.582032c-8.441406-6.074218-19.824219-6.074218-28.265625 0l-41.992188 30.558594c-2.804687 2.0625-6.625 2.070313-9.441406.023438-2.816406-2.050782-3.984375-5.683594-2.886718-8.988282l16.074218-49.417968c3.238282-9.890625-.300781-20.738282-8.746094-26.816406l-42.046874-30.519532c-2.835938-2.03125-4.027344-5.664062-2.949219-8.980468 1.078125-3.316407 4.183593-5.550782 7.667969-5.523438h52c3.332031.027344 6.628906-.6875 9.648437-2.097656l.152344-.085938.144531-.046875c.113281-.050781.191406-.144531.304688-.203125 5.960937-2.769531 10.507812-7.886718 12.558593-14.132812l16.082031-49.433594c1.078126-3.28125 4.144532-5.503906 7.597657-5.503906 3.457031 0 6.523437 2.222656 7.601562 5.503906l16.085938 49.472656c3.230469 9.851563 12.417969 16.515625 22.785156 16.527344h52c3.484375-.027344 6.585937 2.207031 7.664063 5.519531 1.082031 3.3125-.105469 6.941407-2.9375 8.976563zm0 0" fill="#282583"/><path d="m72.441406 80h176c4.417969 0 8-3.582031 8-8s-3.582031-8-8-8h-176c-4.417968 0-8 3.582031-8 8s3.582032 8 8 8zm0 0" fill="#282583"/><path d="m72.441406 144h176c4.417969 0 8-3.582031 8-8s-3.582031-8-8-8h-176c-4.417968 0-8 3.582031-8 8s3.582032 8 8 8zm0 0" fill="#282583"/><path d="m72.441406 208h176c4.417969 0 8-3.582031 8-8s-3.582031-8-8-8h-176c-4.417968 0-8 3.582031-8 8s3.582032 8 8 8zm0 0" fill="#282583"/><path d="m256.441406 264c0-4.417969-3.582031-8-8-8h-176c-4.417968 0-8 3.582031-8 8s3.582032 8 8 8h176c4.417969 0 8-3.582031 8-8zm0 0" fill="#282583"/></svg>
