<?xml version="1.0" encoding="utf-8"?>
<!-- Generator: Adobe Illustrator 21.1.0, SVG Export Plug-In . SVG Version: 6.00 Build 0)  -->
<svg version="1.1" id="Layer_1" xmlns="http://www.w3.org/2000/svg" xmlns:xlink="http://www.w3.org/1999/xlink" x="0px" y="0px"
	 viewBox="0 0 762 166" style="enable-background:new 0 0 762 166;" xml:space="preserve">
<style type="text/css">
	.st0{fill:#4370B7;}
	.st1{fill:#3EC6EF;}
	.st2{fill:#499CD6;}
	.st3{fill:#FFFFFF;}
</style>
<path class="st0" d="M112.8,103.2L61.7,52.1L112.8,1l51.1,51.1L112.8,103.2z M82.8,52.1l30.1,30.1l30.1-30.1l-30.1-30.1L82.8,52.1z"
	/>
<path class="st1" d="M52,164L0.9,112.9L52,61.8l51.1,51.1L52,164z M22,112.9L52,143l30.1-30.1L52,82.9L22,112.9z"/>
<path class="st2" d="M173.6,164l-51.1-51.1l51.1-51.1l51.1,51.1L173.6,164z M143.6,112.9l30.1,30.1l30.1-30.1l-30.1-30.1
	L143.6,112.9z"/>
<path class="st3" d="M309.2,29.8c0,1.1-0.2,2.3-0.7,3.6c-0.5,1.3-1.1,2.4-1.9,3.5c-0.8,1.1-1.7,2-2.8,2.7c-1.1,0.7-2.3,1.1-3.6,1.2
	c1.4,0.1,2.7,0.5,4.1,1.2c1.3,0.7,2.5,1.6,3.6,2.8c1.1,1.2,1.9,2.5,2.6,4c0.7,1.5,1,3.1,1,4.8c0,3-0.5,5.6-1.4,7.7
	c-0.9,2.1-2.1,3.8-3.7,5.1c-1.6,1.3-3.4,2.2-5.5,2.8c-2.1,0.6-4.3,0.8-6.7,0.8h-25.6V14.4H293c2.2,0,4.3,0.2,6.3,0.6
	c2,0.4,3.7,1.2,5.1,2.4c1.5,1.1,2.6,2.7,3.5,4.7C308.7,24.1,309.2,26.7,309.2,29.8 M279.2,37h13c1.1,0,2-0.2,2.8-0.6
	c0.8-0.4,1.4-0.9,2-1.6c0.5-0.7,0.9-1.4,1.2-2.2c0.3-0.8,0.4-1.7,0.4-2.5s-0.2-1.6-0.5-2.4c-0.3-0.8-0.7-1.4-1.2-2
	c-0.5-0.6-1.1-1-1.8-1.4c-0.7-0.4-1.4-0.5-2.2-0.5h-13.8V37z M294.2,60.4c0.9,0,1.8-0.2,2.6-0.6c0.8-0.4,1.5-1,2.1-1.7
	c0.6-0.7,1.1-1.5,1.4-2.4c0.4-0.9,0.5-1.8,0.5-2.7c0-1.9-0.7-3.4-2.1-4.7c-1.4-1.3-3.3-1.9-5.7-1.9h-13.9v14.1H294.2z"/>
<polygon class="st3" points="358.1,60.4 358.1,69.8 318.2,69.8 318.2,14.4 328.8,14.4 328.8,60.4 "/>
<path class="st3" d="M384.5,70.9c-3.9,0-7.6-0.8-11.1-2.3c-3.5-1.5-6.5-3.6-9.1-6.2c-2.6-2.6-4.7-5.6-6.2-9.1
	c-1.5-3.5-2.3-7.2-2.3-11.2c0-3.9,0.8-7.7,2.3-11.2c1.5-3.5,3.6-6.6,6.2-9.2c2.6-2.6,5.6-4.7,9.1-6.2c3.5-1.5,7.2-2.3,11.1-2.3
	c4,0,7.7,0.8,11.2,2.3c3.5,1.5,6.5,3.6,9.1,6.2c2.6,2.6,4.7,5.7,6.2,9.2c1.5,3.5,2.3,7.2,2.3,11.2c0,4-0.8,7.7-2.3,11.2
	c-1.5,3.5-3.6,6.5-6.2,9.1c-2.6,2.6-5.6,4.7-9.1,6.2C392.2,70.1,388.5,70.9,384.5,70.9 M384.5,23.3c-2.5,0-4.9,0.5-7.1,1.6
	c-2.2,1-4.1,2.4-5.7,4.1c-1.6,1.7-2.9,3.7-3.9,6c-1,2.3-1.4,4.7-1.4,7.2c0,2.5,0.5,4.9,1.4,7.2c1,2.3,2.3,4.3,3.9,6
	c1.6,1.7,3.6,3.1,5.7,4.2c2.2,1,4.5,1.6,7.1,1.6c2.5,0,4.9-0.5,7.1-1.6c2.2-1,4.1-2.4,5.7-4.2c1.6-1.7,2.9-3.7,3.9-6
	c1-2.3,1.4-4.7,1.4-7.2c0-2.5-0.5-4.9-1.4-7.2c-1-2.3-2.3-4.3-3.9-6c-1.6-1.7-3.6-3.1-5.7-4.1C389.4,23.8,387.1,23.3,384.5,23.3"/>
<path class="st3" d="M470.4,56.2c-1.2,2.2-2.7,4.2-4.5,6c-1.8,1.8-3.7,3.3-5.9,4.6c-2.1,1.3-4.5,2.3-7,3c-2.5,0.7-5.1,1.1-7.8,1.1
	c-3.9,0-7.6-0.8-11.1-2.3c-3.5-1.5-6.5-3.6-9.1-6.2c-2.6-2.6-4.7-5.6-6.2-9.1c-1.5-3.5-2.3-7.2-2.3-11.1c0-3.9,0.8-7.6,2.3-11.1
	c1.5-3.5,3.6-6.5,6.2-9.1c2.6-2.6,5.6-4.7,9.1-6.2c3.5-1.5,7.2-2.3,11.1-2.3c2.7,0,5.3,0.4,7.8,1.1c2.5,0.7,4.8,1.7,7,3
	c2.1,1.3,4.1,2.8,5.9,4.6c1.8,1.8,3.3,3.8,4.5,5.9l-9.9,4c-0.8-1.2-1.8-2.3-2.8-3.4c-1.1-1.1-2.3-2-3.6-2.8
	c-1.3-0.8-2.7-1.4-4.2-1.9c-1.5-0.5-3-0.7-4.5-0.7c-2.5,0-4.9,0.5-7.1,1.6c-2.2,1-4.1,2.4-5.7,4.1c-1.6,1.7-2.9,3.7-3.9,6
	c-1,2.3-1.4,4.7-1.4,7.2c0,2.5,0.5,4.9,1.4,7.2c1,2.3,2.2,4.3,3.9,6c1.6,1.7,3.5,3.1,5.7,4.1c2.2,1,4.6,1.6,7.1,1.6
	c1.6,0,3.1-0.2,4.5-0.7c1.5-0.5,2.9-1.1,4.2-1.9c1.3-0.8,2.5-1.8,3.6-2.8c1.1-1.1,2-2.2,2.8-3.4L470.4,56.2z"/>
<polygon class="st3" points="509.4,69.8 486.1,44.6 486.1,69.8 475.5,69.8 475.5,14.4 486.1,14.4 486.1,42.6 508.2,14.5 521.2,14.5 
	498.4,43.1 523.4,69.8 "/>
<path class="st3" d="M574.2,56.2c-1.2,2.2-2.7,4.2-4.5,6c-1.8,1.8-3.7,3.3-5.9,4.6c-2.1,1.3-4.5,2.3-7,3c-2.5,0.7-5.1,1.1-7.8,1.1
	c-3.9,0-7.6-0.8-11.1-2.3c-3.5-1.5-6.5-3.6-9.1-6.2c-2.6-2.6-4.7-5.6-6.2-9.1c-1.5-3.5-2.3-7.2-2.3-11.1c0-3.9,0.8-7.6,2.3-11.1
	c1.5-3.5,3.6-6.5,6.2-9.1c2.6-2.6,5.6-4.7,9.1-6.2c3.5-1.5,7.2-2.3,11.1-2.3c2.7,0,5.3,0.4,7.8,1.1c2.5,0.7,4.8,1.7,7,3
	c2.1,1.3,4.1,2.8,5.9,4.6s3.3,3.8,4.5,5.9l-9.9,4c-0.8-1.2-1.8-2.3-2.8-3.4c-1.1-1.1-2.3-2-3.6-2.8c-1.3-0.8-2.7-1.4-4.2-1.9
	c-1.5-0.5-3-0.7-4.5-0.7c-2.5,0-4.9,0.5-7.1,1.6c-2.2,1-4.1,2.4-5.7,4.1c-1.6,1.7-2.9,3.7-3.9,6c-1,2.3-1.4,4.7-1.4,7.2
	c0,2.5,0.5,4.9,1.4,7.2c1,2.3,2.2,4.3,3.9,6c1.6,1.7,3.5,3.1,5.7,4.1c2.2,1,4.6,1.6,7.1,1.6c1.6,0,3.1-0.2,4.5-0.7
	c1.5-0.5,2.9-1.1,4.2-1.9c1.3-0.8,2.5-1.8,3.6-2.8c1.1-1.1,2-2.2,2.8-3.4L574.2,56.2z"/>
<polygon class="st3" points="627.9,14.4 627.9,69.8 617.3,69.8 617.3,47.8 589.9,47.8 589.9,69.8 579.3,69.8 579.3,14.4 589.9,14.4 
	589.9,38.4 617.3,38.4 617.3,14.4 "/>
<path class="st3" d="M631.3,69.8l28.3-55.4h1.1L689,69.8h-11.5l-4.3-8.7H647l-4.2,8.7H631.3z M652.2,51.9H668l-7.9-16.7L652.2,51.9z
	"/>
<rect x="692.8" y="14.5" class="st3" width="10.6" height="55.4"/>
<polygon class="st3" points="759.8,69.8 723.4,36.9 723.4,69.8 712.8,69.8 712.8,14.5 713.9,14.5 750.3,47.9 750.3,14.5 760.9,14.5 
	760.9,69.8 "/>
<polygon class="st3" points="341.7,98.5 321,153.8 320,153.8 305,121.5 289.8,153.9 288.8,153.9 268.4,98.5 279.7,98.5 290.5,128.8 
	304.6,98.5 305.3,98.5 319.4,128.9 330.4,98.5 "/>
<path class="st3" d="M330.9,153.8l28.3-55.4h1.1l28.3,55.4h-11.5l-4.3-8.7h-26.1l-4.2,8.7H330.9z M351.8,135.9h15.8l-7.9-16.7
	L351.8,135.9z"/>
<path class="st3" d="M403.4,153.8h-10.6V98.4H418c2.8,0,5.4,0.5,7.8,1.4c2.4,0.9,4.4,2.2,6,3.9c1.7,1.7,3,3.7,3.9,6.1
	c0.9,2.3,1.4,4.9,1.4,7.7c0,4.2-1,7.9-3.1,11c-2.1,3.1-4.9,5.4-8.4,6.7c4.7,6.2,9.3,12.4,13.8,18.6h-12.6c-2.2-2.9-4.4-5.8-6.5-8.7
	c-2.1-2.9-4.2-5.9-6.3-8.9h-10.5V153.8z M403.4,126.8H418c1,0,1.9-0.2,3-0.6c1-0.4,2-1,2.8-1.7c0.8-0.8,1.5-1.8,2-2.9
	c0.5-1.2,0.8-2.5,0.8-4.1c0-0.8-0.1-1.8-0.3-2.9c-0.2-1.1-0.6-2.2-1.2-3.2c-0.6-1-1.5-1.9-2.6-2.6c-1.1-0.7-2.6-1.1-4.5-1.1h-14.6
	V126.8z"/>
<polygon class="st3" points="457.3,107.8 457.3,121.6 484.1,121.6 484.1,131.2 457.3,131.2 457.3,144.3 487.5,144.3 487.5,153.8 
	446.7,153.8 446.7,98.4 487.5,98.4 487.5,107.8 "/>
<polygon class="st3" points="543.9,98.4 543.9,153.8 533.3,153.8 533.3,131.8 506,131.8 506,153.8 495.4,153.8 495.4,98.4 506,98.4 
	506,122.4 533.3,122.4 533.3,98.4 "/>
<path class="st3" d="M580.1,154.9c-3.9,0-7.6-0.8-11.1-2.3c-3.5-1.5-6.5-3.6-9.1-6.2c-2.6-2.6-4.7-5.6-6.2-9.1
	c-1.5-3.5-2.3-7.2-2.3-11.2c0-3.9,0.8-7.7,2.3-11.2c1.5-3.5,3.6-6.6,6.2-9.2c2.6-2.6,5.6-4.7,9.1-6.2c3.5-1.5,7.2-2.3,11.1-2.3
	c4,0,7.7,0.8,11.2,2.3c3.5,1.5,6.5,3.6,9.1,6.2c2.6,2.6,4.7,5.7,6.2,9.2c1.5,3.5,2.3,7.2,2.3,11.2c0,4-0.8,7.7-2.3,11.2
	c-1.5,3.5-3.6,6.5-6.2,9.1c-2.6,2.6-5.6,4.7-9.1,6.2C587.8,154.1,584,154.9,580.1,154.9 M580.1,107.2c-2.5,0-4.9,0.5-7.1,1.6
	c-2.2,1-4.1,2.4-5.7,4.1c-1.6,1.7-2.9,3.7-3.9,6c-1,2.3-1.4,4.7-1.4,7.2c0,2.5,0.5,4.9,1.4,7.2c1,2.3,2.3,4.3,3.9,6
	c1.6,1.7,3.6,3.1,5.7,4.2c2.2,1,4.5,1.6,7.1,1.6c2.5,0,4.9-0.5,7.1-1.6c2.2-1,4.1-2.4,5.7-4.2c1.6-1.7,2.9-3.7,3.9-6
	c1-2.3,1.4-4.7,1.4-7.2c0-2.5-0.5-4.9-1.4-7.2c-1-2.3-2.3-4.3-3.9-6c-1.6-1.7-3.6-3.1-5.7-4.1C585,107.8,582.6,107.2,580.1,107.2"/>
<path class="st3" d="M639,154.8c-3.6,0-6.8-0.6-9.8-1.7c-2.9-1.1-5.4-2.7-7.5-4.7c-2.1-2-3.7-4.5-4.8-7.3c-1.1-2.9-1.7-6.1-1.7-9.6
	v-33h10.6v33c0,2.8,0.5,5.1,1.4,6.9c0.9,1.8,2,3.3,3.4,4.3c1.3,1.1,2.8,1.8,4.3,2.2c1.5,0.4,2.9,0.6,4.1,0.6c1.2,0,2.6-0.2,4.1-0.6
	c1.5-0.4,3-1.1,4.3-2.2c1.3-1.1,2.5-2.5,3.4-4.3c0.9-1.8,1.4-4.1,1.4-6.9v-33h10.6v33c0,3.5-0.6,6.7-1.7,9.6
	c-1.1,2.9-2.7,5.3-4.8,7.3c-2.1,2-4.6,3.6-7.5,4.7C645.9,154.2,642.6,154.8,639,154.8"/>
<path class="st3" d="M669.6,146.5l5.8-8.5c2.8,1.9,5.6,3.6,8.6,5c3,1.4,6,2.1,9.3,2.1c1.7,0,3.2-0.2,4.5-0.6c1.3-0.4,2.4-1,3.3-1.7
	c0.9-0.7,1.6-1.5,2-2.3c0.5-0.9,0.7-1.8,0.7-2.6c0-1.1-0.3-2.1-1-2.8c-0.7-0.8-1.6-1.4-2.7-1.9c-1.1-0.5-2.5-0.9-4-1.3
	c-1.5-0.4-3.1-0.7-4.8-1c-1.1-0.2-2.4-0.4-3.9-0.7c-1.5-0.3-3-0.7-4.5-1.1c-1.6-0.5-3.1-1.1-4.6-1.9c-1.5-0.8-2.9-1.8-4.1-3
	c-1.2-1.2-2.2-2.6-2.9-4.2c-0.7-1.6-1.1-3.6-1.1-5.8c0-3.2,0.7-5.9,2-8.1c1.3-2.1,3-3.8,5-5.1c2-1.2,4.3-2.1,6.8-2.6
	c2.5-0.5,4.9-0.8,7.2-0.8c2.3,0,4.4,0.2,6.2,0.5c1.8,0.3,3.5,0.7,5.1,1.3c1.6,0.6,3.1,1.3,4.6,2.2c1.5,0.9,3.1,1.9,4.8,3.1L706,113
	c-2.6-1.8-5.1-3.2-7.6-4.2c-2.4-1-5-1.4-7.6-1.4c-0.9,0-1.9,0.1-3.1,0.3c-1.2,0.2-2.3,0.6-3.3,1.1c-1,0.5-1.9,1.1-2.6,1.9
	c-0.7,0.8-1,1.7-1,2.8c0,1.1,0.4,2,1.2,2.8c0.8,0.8,1.8,1.4,3.1,1.9c1.3,0.5,2.7,0.9,4.2,1.3c1.5,0.4,3,0.7,4.4,1.1
	c1.1,0.3,2.3,0.5,3.7,0.8c1.4,0.3,2.9,0.6,4.5,1.1c1.5,0.5,3.1,1.1,4.6,1.8c1.5,0.8,2.9,1.7,4.1,2.9c1.2,1.2,2.1,2.6,2.9,4.4
	c0.7,1.7,1.1,3.9,1.1,6.3c0,2.9-0.5,5.4-1.5,7.5c-1,2.1-2.4,3.9-4.3,5.3c-1.9,1.4-4.1,2.4-6.7,3.1c-2.6,0.7-5.4,1.1-8.6,1.1
	c-2.9,0-5.4-0.2-7.6-0.6c-2.2-0.4-4.2-1-6-1.7c-1.8-0.7-3.5-1.6-5.1-2.6C673,148.9,671.3,147.7,669.6,146.5"/>
<polygon class="st3" points="730.9,107.8 730.9,121.6 757.7,121.6 757.7,131.2 730.9,131.2 730.9,144.3 761.1,144.3 761.1,153.8 
	720.3,153.8 720.3,98.4 761.1,98.4 761.1,107.8 "/>
</svg>
