<?xml version="1.0" encoding="utf-8"?>
<!-- Generator: Adobe Illustrator 21.1.0, SVG Export Plug-In . SVG Version: 6.00 Build 0)  -->
<svg version="1.1" id="Layer_1" xmlns="http://www.w3.org/2000/svg" xmlns:xlink="http://www.w3.org/1999/xlink" x="0px" y="0px"
	 viewBox="0 0 19 29" style="enable-background:new 0 0 19 29;" xml:space="preserve">
<style type="text/css">
	.st0{display:none;}
	.st1{display:inline;}
	.st2{display:inline;clip-path:url(#SVGID_2_);}
	.st3{clip-path:url(#SVGID_4_);fill:#FFFFFF;}
	.st4{display:inline;clip-path:url(#SVGID_6_);fill:none;stroke:#DEDEDE;stroke-width:2;stroke-miterlimit:10;}
	.st5{display:inline;clip-path:url(#SVGID_8_);}
	.st6{clip-path:url(#SVGID_10_);enable-background:new    ;}
	.st7{clip-path:url(#SVGID_12_);}
	.st8{clip-path:url(#SVGID_14_);}
	.st9{clip-path:url(#SVGID_16_);fill:#B1B1B1;}
</style>
<g class="st0">
	<defs>
		<circle id="SVGID_1_" cx="81.3" cy="81.7" r="80"/>
	</defs>
	<clipPath id="SVGID_2_" class="st1">
		<use xlink:href="#SVGID_1_"  style="overflow:visible;"/>
	</clipPath>
	<g class="st2">
		<defs>
			<rect id="SVGID_3_" x="-638.7" y="-293.3" width="1440" height="1024"/>
		</defs>
		<clipPath id="SVGID_4_">
			<use xlink:href="#SVGID_3_"  style="overflow:visible;"/>
		</clipPath>
		<rect x="-3.7" y="-3.3" class="st3" width="170" height="170"/>
	</g>
</g>
<g class="st0">
	<defs>
		<rect id="SVGID_5_" x="-638.7" y="-293.3" width="1440" height="1024"/>
	</defs>
	<clipPath id="SVGID_6_" class="st1">
		<use xlink:href="#SVGID_5_"  style="overflow:visible;"/>
	</clipPath>
	<circle class="st4" cx="81.3" cy="81.7" r="80"/>
</g>
<g class="st0">
	<defs>
		<rect id="SVGID_7_" x="37.3" y="46.7" width="88" height="68"/>
	</defs>
	<clipPath id="SVGID_8_" class="st1">
		<use xlink:href="#SVGID_7_"  style="overflow:visible;"/>
	</clipPath>
	<g class="st5">
		<defs>
			<rect id="SVGID_9_" x="-638.7" y="-293.3" width="1440" height="1024"/>
		</defs>
		<clipPath id="SVGID_10_">
			<use xlink:href="#SVGID_9_"  style="overflow:visible;"/>
		</clipPath>
		<g class="st6">
			<g>
				<defs>
					<rect id="SVGID_11_" x="37.3" y="46.7" width="88" height="68"/>
				</defs>
				<clipPath id="SVGID_12_">
					<use xlink:href="#SVGID_11_"  style="overflow:visible;"/>
				</clipPath>
				<g class="st7">
					<defs>
						<path id="SVGID_13_" d="M117.3,46.7h-56c-4.4,0-8,3.6-8,8v2c0,1.1,0.9,2,2,2s2-0.9,2-2v-2c0-2.2,1.8-4,4-4h56c2.2,0,4,1.8,4,4
							v36c0,2.2-1.8,4-4,4h-2c-1.1,0-2,0.9-2,2c0,1.1,0.9,2,2,2h2c4.4,0,8-3.6,8-8v-36C125.3,50.2,121.8,46.7,117.3,46.7z
							 M101.3,62.7h-56c-4.4,0-8,3.6-8,8v36c0,4.4,3.6,8,8,8h56c4.4,0,8-3.6,8-8v-36C109.3,66.2,105.8,62.7,101.3,62.7z M45.3,66.7
							h56c1,0,1.9,0.4,2.6,1L76,95.5c-0.7,0.7-1.7,1.1-2.7,1.1s-2-0.4-2.7-1.1L42.7,67.6C43.4,67,44.3,66.7,45.3,66.7z M41.3,71.9
							l16.8,16.8l-16.8,16.8V71.9z M101.3,110.7h-56c-1,0-1.9-0.4-2.6-1l18.2-18.2l6.9,6.9c1.5,1.5,3.5,2.3,5.5,2.3
							c2,0,4-0.8,5.5-2.3l6.9-6.9l18.2,18.2C103.2,110.3,102.3,110.7,101.3,110.7z M105.3,105.4L88.6,88.7l16.8-16.8V105.4z"/>
					</defs>
					<clipPath id="SVGID_14_">
						<use xlink:href="#SVGID_13_"  style="overflow:visible;"/>
					</clipPath>
					<g class="st8">
						<defs>
							<rect id="SVGID_15_" x="37.3" y="46.7" width="88" height="68"/>
						</defs>
						<clipPath id="SVGID_16_">
							<use xlink:href="#SVGID_15_"  style="overflow:visible;"/>
						</clipPath>
						<rect x="32.3" y="41.7" class="st9" width="98" height="78"/>
					</g>
				</g>
			</g>
		</g>
	</g>
</g>
<image style="overflow:visible;" width="19" height="29" xlink:href="C:\Users\mck\Desktop\New folder (2)\indeed-logo_icon.png" >
</image>
</svg>
