<?xml version="1.0" encoding="utf-8"?>
<!-- Generator: Adobe Illustrator 21.1.0, SVG Export Plug-In . SVG Version: 6.00 Build 0)  -->
<svg version="1.1" id="Layer_1" xmlns="http://www.w3.org/2000/svg" xmlns:xlink="http://www.w3.org/1999/xlink" x="0px" y="0px"
	 viewBox="0 0 11.1 22" style="enable-background:new 0 0 11.1 22;" xml:space="preserve">
<style type="text/css">
	.st0{clip-path:url(#SVGID_2_);}
	.st1{clip-path:url(#SVGID_4_);fill:#19284A;}
</style>
<g>
	<defs>
		<path id="SVGID_1_" d="M1.3,11l9.5-10.1C10.9,0.8,11,0.7,11,0.6C11,0.2,10.8,0,10.5,0c-0.2,0-0.3,0.1-0.4,0.2L0.2,10.6
			C0.1,10.7,0,10.8,0,11s0.1,0.3,0.2,0.4l9.9,10.4c0.1,0.1,0.2,0.2,0.4,0.2c0.3,0,0.5-0.2,0.5-0.6c0-0.2-0.1-0.3-0.2-0.4L1.3,11z"/>
	</defs>
	<clipPath id="SVGID_2_">
		<use xlink:href="#SVGID_1_"  style="overflow:visible;"/>
	</clipPath>
	<g class="st0">
		<defs>
			<rect id="SVGID_3_" x="-488" y="-143" width="1440" height="1855"/>
		</defs>
		<clipPath id="SVGID_4_">
			<use xlink:href="#SVGID_3_"  style="overflow:visible;"/>
		</clipPath>
		<rect x="-5" y="-5" class="st1" width="21" height="32"/>
	</g>
</g>
</svg>
