<?xml version="1.0" encoding="utf-8"?>
<!-- Generator: Adobe Illustrator 21.1.0, SVG Export Plug-In . SVG Version: 6.00 Build 0)  -->
<svg version="1.1" xmlns="http://www.w3.org/2000/svg" xmlns:xlink="http://www.w3.org/1999/xlink" x="0px" y="0px"
	 viewBox="0 0 257.5 41.5" style="enable-background:new 0 0 257.5 41.5;" xml:space="preserve">
<style type="text/css">
	.st0{clip-path:url(#SVGID_2_);}
	.st1{clip-path:url(#SVGID_4_);fill:#00C6A3;}
	.st2{clip-path:url(#SVGID_6_);}
	.st3{clip-path:url(#SVGID_8_);fill:#F3F3F3;}
	.st4{clip-path:url(#SVGID_10_);}
	.st5{clip-path:url(#SVGID_12_);fill:#F3F3F3;}
	.st6{clip-path:url(#SVGID_14_);}
	.st7{clip-path:url(#SVGID_16_);fill:#F3F3F3;}
	.st8{clip-path:url(#SVGID_18_);}
	.st9{clip-path:url(#SVGID_20_);fill:#F3F3F3;}
	.st10{clip-path:url(#SVGID_22_);}
	.st11{clip-path:url(#SVGID_24_);fill:#F3F3F3;}
	.st12{clip-path:url(#SVGID_26_);}
	.st13{clip-path:url(#SVGID_28_);fill:#F3F3F3;}
	.st14{clip-path:url(#SVGID_30_);}
	.st15{clip-path:url(#SVGID_32_);fill:#F3F3F3;}
	.st16{clip-path:url(#SVGID_34_);}
	.st17{clip-path:url(#SVGID_36_);fill:#00C6A3;}
	.st18{clip-path:url(#SVGID_38_);}
	.st19{clip-path:url(#SVGID_40_);fill:#1F2136;}
	.st20{clip-path:url(#SVGID_42_);}
	.st21{clip-path:url(#SVGID_44_);fill:#1F2136;}
	.st22{clip-path:url(#SVGID_46_);}
	.st23{clip-path:url(#SVGID_48_);fill:#1F2136;}
	.st24{clip-path:url(#SVGID_50_);}
	.st25{clip-path:url(#SVGID_52_);fill:#1F2136;}
	.st26{clip-path:url(#SVGID_54_);}
	.st27{clip-path:url(#SVGID_56_);fill:#1F2136;}
	.st28{clip-path:url(#SVGID_58_);}
	.st29{clip-path:url(#SVGID_60_);fill:#1F2136;}
	.st30{clip-path:url(#SVGID_62_);}
	.st31{clip-path:url(#SVGID_65_);}
	.st32{display:none;}
	.st33{display:inline;}
	.st34{clip-path:url(#SVGID_68_);}
	.st35{clip-path:url(#SVGID_70_);fill:#00C6A3;}
	.st36{clip-path:url(#SVGID_72_);}
	.st37{clip-path:url(#SVGID_74_);fill:#1F2136;}
	.st38{clip-path:url(#SVGID_76_);}
	.st39{clip-path:url(#SVGID_78_);fill:#1F2136;}
	.st40{clip-path:url(#SVGID_80_);}
	.st41{clip-path:url(#SVGID_82_);fill:#1F2136;}
	.st42{clip-path:url(#SVGID_84_);}
	.st43{clip-path:url(#SVGID_86_);fill:#1F2136;}
	.st44{clip-path:url(#SVGID_88_);}
	.st45{clip-path:url(#SVGID_90_);fill:#1F2136;}
	.st46{clip-path:url(#SVGID_92_);}
	.st47{clip-path:url(#SVGID_94_);fill:#1F2136;}
	.st48{clip-path:url(#SVGID_96_);}
	.st49{clip-path:url(#SVGID_98_);fill:#1F2136;}
</style>
<g id="Layer_1">
	<g>
		<defs>
			<path id="SVGID_1_" d="M16.1,12.4c1.9,0,4.6-1.1,6.3-2.1l0.2-0.1L14.1,36c-0.5,1.7-2.3,2.9-4.1,2.9H2l8.8-26.6L16.1,12.4
				L16.1,12.4z M26.4,28.7c-1.9,0-4.7,1-6.4,2l-0.2,0.1l8.4-25.8C28.8,3.2,30.6,2,32.4,2l8,0L32,28.7L26.4,28.7L26.4,28.7z"/>
		</defs>
		<clipPath id="SVGID_2_">
			<use xlink:href="#SVGID_1_"  style="overflow:visible;"/>
		</clipPath>
		<g class="st0">
			<defs>
				<rect id="SVGID_3_" x="-591" y="-16" width="1440" height="77"/>
			</defs>
			<clipPath id="SVGID_4_">
				<use xlink:href="#SVGID_3_"  style="overflow:visible;"/>
			</clipPath>
			<rect x="-3" y="-3" class="st1" width="48.4" height="46.9"/>
		</g>
	</g>
	<g>
		<defs>
			<path id="SVGID_5_" d="M246.2,25.4c2.9,4.5,5.9,9,8.8,13.6c-0.1,0-0.1,0-0.2,0c-2.2,0-4.4,0-6.6,0c-0.2,0-0.3-0.1-0.3-0.2
				c-1.4-2.3-2.8-4.6-4.2-6.9c-0.5-0.8-1-1.6-1.4-2.4c0-0.1-0.1-0.1-0.2-0.3c-1.9,3.3-3.8,6.5-5.8,9.7h-6.5c0,0,0,0,0,0c0,0,0,0,0,0
				c0,0,0,0,0,0c0,0,0,0,0,0c2.9-4.4,5.8-8.8,8.7-13.3c0,0,0,0,0,0c0,0,0,0,0,0c-2.8-4.4-5.7-8.7-8.5-13.1c0.1,0,0.1,0,0.2,0
				c2.2,0,4.4,0,6.6,0c0.2,0,0.3,0.1,0.3,0.2c1.5,2.5,3,5,4.6,7.5c0.3,0.4,0.5,0.9,0.8,1.3c0,0.1,0.1,0.1,0.2,0.2
				c0.1-0.1,0.1-0.2,0.2-0.2c1.7-2.9,3.4-5.8,5.2-8.7c0-0.1,0.1-0.1,0.1-0.2c0-0.1,0.1-0.1,0.2-0.1c0,0,0.1,0,0.1,0c2,0,4,0,6.1,0
				c0.1,0,0.1,0,0.2,0c-0.4,0.6-0.8,1.3-1.2,1.9c-0.4,0.6-0.8,1.2-1.2,1.9c-0.4,0.6-0.8,1.2-1.2,1.9c-0.4,0.6-0.8,1.2-1.2,1.8
				c-0.4,0.6-0.8,1.2-1.2,1.9c-0.4,0.6-0.8,1.2-1.2,1.9C247.1,24.2,246.7,24.8,246.2,25.4"/>
		</defs>
		<clipPath id="SVGID_6_">
			<use xlink:href="#SVGID_5_"  style="overflow:visible;"/>
		</clipPath>
		<g class="st2">
			<defs>
				<rect id="SVGID_7_" x="-591" y="-16" width="1440" height="77"/>
			</defs>
			<clipPath id="SVGID_8_">
				<use xlink:href="#SVGID_7_"  style="overflow:visible;"/>
			</clipPath>
			<rect x="224.9" y="7.4" class="st3" width="35.2" height="36.6"/>
		</g>
	</g>
	<g>
		<defs>
			<path id="SVGID_9_" d="M203.3,39V12.4c0.2-0.1,18.8-0.1,19.1,0c0,0.2,0.1,4.5,0,4.9c-0.1,0-0.2,0-0.3,0c-4.2,0-8.4,0-12.6,0h-0.4
				v5.9h10.3v4.6h-10.2c-0.1,0.2-0.1,6,0,6.3h13.4V39L203.3,39L203.3,39z"/>
		</defs>
		<clipPath id="SVGID_10_">
			<use xlink:href="#SVGID_9_"  style="overflow:visible;"/>
		</clipPath>
		<g class="st4">
			<defs>
				<rect id="SVGID_11_" x="-591" y="-16" width="1440" height="77"/>
			</defs>
			<clipPath id="SVGID_12_">
				<use xlink:href="#SVGID_11_"  style="overflow:visible;"/>
			</clipPath>
			<rect x="198.3" y="7.4" class="st5" width="29.2" height="36.6"/>
		</g>
	</g>
	<g>
		<defs>
			<path id="SVGID_13_" d="M173.7,39l0-26.6c0.1,0,0.2,0,0.2,0c3.5,0,7.1,0,10.6,0c1.5,0,3.1,0.2,4.5,0.7c1.7,0.5,3.2,1.4,4.4,2.7
				c1,1.2,1.7,2.5,2,4c0.2,0.9,0.4,1.9,0.4,2.8c0,2.2,0,4.4,0,6.6c0,1.4-0.3,2.8-0.8,4.1c-0.9,2.2-2.6,3.8-4.8,4.7
				c-1.2,0.5-2.4,0.8-3.7,0.9c-0.9,0.1-1.8,0.1-2.6,0.1c-3.3,0-6.6,0-9.9,0L173.7,39L173.7,39z M179.7,17.1v17.1c0.1,0,0.2,0,0.2,0
				c1.4,0,2.7,0,4.1,0c0.6,0,1.1-0.1,1.7-0.2c1.4-0.3,2.5-1,3.2-2.2c0.2-0.4,0.4-0.8,0.5-1.2c0.2-0.8,0.3-1.6,0.3-2.4
				c0-1.6,0-3.2,0-4.8c0-0.4,0-0.8,0-1.2c-0.1-0.8-0.2-1.5-0.5-2.2c-0.6-1.4-1.7-2.3-3.2-2.7c-0.7-0.2-1.4-0.2-2.1-0.2
				c-1.3,0-2.7,0-4,0L179.7,17.1L179.7,17.1z"/>
		</defs>
		<clipPath id="SVGID_14_">
			<use xlink:href="#SVGID_13_"  style="overflow:visible;"/>
		</clipPath>
		<g class="st6">
			<defs>
				<rect id="SVGID_15_" x="-591" y="-16" width="1440" height="77"/>
			</defs>
			<clipPath id="SVGID_16_">
				<use xlink:href="#SVGID_15_"  style="overflow:visible;"/>
			</clipPath>
			<rect x="168.7" y="7.4" class="st7" width="32.2" height="36.6"/>
		</g>
	</g>
	<g>
		<defs>
			<path id="SVGID_17_" d="M147.5,34c-0.6,1.7-1.1,3.3-1.7,5h-6.2c3.3-8.9,6.5-17.8,9.7-26.6h7.1c3.2,8.9,6.5,17.7,9.7,26.6h-6.5
				c-0.6-1.7-1.1-3.3-1.7-5L147.5,34L147.5,34z M156.6,29.6c-0.1-0.4-3.6-10.7-3.8-10.9c-0.3,0.9-0.6,1.8-0.9,2.7
				c-0.3,0.9-0.6,1.8-0.9,2.7c-0.3,0.9-0.6,1.8-0.9,2.7c-0.3,0.9-0.6,1.8-0.9,2.7H156.6z"/>
		</defs>
		<clipPath id="SVGID_18_">
			<use xlink:href="#SVGID_17_"  style="overflow:visible;"/>
		</clipPath>
		<g class="st8">
			<defs>
				<rect id="SVGID_19_" x="-591" y="-16" width="1440" height="77"/>
			</defs>
			<clipPath id="SVGID_20_">
				<use xlink:href="#SVGID_19_"  style="overflow:visible;"/>
			</clipPath>
			<rect x="134.6" y="7.4" class="st9" width="36.6" height="36.6"/>
		</g>
	</g>
	<g>
		<defs>
			<path id="SVGID_21_" d="M135.2,39h-0.3c-2,0-4,0-5.9,0c-0.2,0-0.3-0.1-0.4-0.2c-1.7-3.1-3.5-6.1-5.2-9.2c0-0.1-0.1-0.1-0.1-0.2
				c0-0.1-0.1-0.1-0.2-0.1c0,0-0.1,0-0.1,0c-1.2,0-2.4,0-3.6,0H119c0,0.3,0,0.5,0,0.8c0,0.3,0,0.5,0,0.8v0.8v0.8v0.8v0.8v0.8v0.8
				v0.8v0.8v0.8V39h-6c0,0,0,0,0,0c0,0,0,0,0,0c0-0.1,0-0.1,0-0.2c0-8.8,0-17.6,0-26.3c0,0,0,0,0-0.1c0.1,0,0.2,0,0.2,0
				c4,0,8,0,12,0c1.4,0,2.7,0.1,4,0.6c1.7,0.5,3.1,1.5,4,3c0.5,0.8,0.8,1.8,0.9,2.7c0.1,0.6,0.1,1.2,0.1,1.8c0,0.5,0,1.1,0,1.6
				c-0.1,3-1.7,5.1-4.6,6.3c-0.2,0.1-0.3,0.1-0.5,0.2C131.2,32.1,133.2,35.5,135.2,39L135.2,39z M119,24.9h0.3c1.5,0,2.9,0,4.4,0
				c0.4,0,0.8,0,1.2,0c0.5,0,1-0.1,1.4-0.3c1.2-0.5,1.8-1.3,1.9-2.5c0.1-0.8,0.1-1.6,0-2.3c-0.1-1.1-0.7-2.2-2.2-2.6
				c-0.6-0.2-1.2-0.2-1.8-0.2c-1.7,0-3.3,0-5,0c-0.1,0-0.1,0-0.2,0L119,24.9L119,24.9z"/>
		</defs>
		<clipPath id="SVGID_22_">
			<use xlink:href="#SVGID_21_"  style="overflow:visible;"/>
		</clipPath>
		<g class="st10">
			<defs>
				<rect id="SVGID_23_" x="-591" y="-16" width="1440" height="77"/>
			</defs>
			<clipPath id="SVGID_24_">
				<use xlink:href="#SVGID_23_"  style="overflow:visible;"/>
			</clipPath>
			<rect x="108" y="7.4" class="st11" width="32.2" height="36.6"/>
		</g>
	</g>
	<g>
		<defs>
			<path id="SVGID_25_" d="M105.6,39h-6.5c0-0.1-0.1-0.2-0.1-0.2c-0.5-1.5-1-3-1.5-4.5C97.4,34,97.4,34,97.1,34c-3.3,0-6.7,0-10,0
				h-0.3c-0.6,1.7-1.1,3.3-1.7,5H79c0,0,0,0,0,0c0,0,0,0,0,0c0,0,0-0.1,0-0.1c3.2-8.8,6.5-17.6,9.7-26.4c0,0,0,0,0.1-0.1h7.1
				C99.1,21.2,102.3,30.1,105.6,39 M92.1,18.8c-0.1,0.1-3.7,10.6-3.8,10.8h7.5C94.6,26,93.4,22.4,92.1,18.8
				C92.2,18.8,92.1,18.8,92.1,18.8"/>
		</defs>
		<clipPath id="SVGID_26_">
			<use xlink:href="#SVGID_25_"  style="overflow:visible;"/>
		</clipPath>
		<g class="st12">
			<defs>
				<rect id="SVGID_27_" x="-591" y="-16" width="1440" height="77"/>
			</defs>
			<clipPath id="SVGID_28_">
				<use xlink:href="#SVGID_27_"  style="overflow:visible;"/>
			</clipPath>
			<rect x="74" y="7.4" class="st13" width="36.6" height="36.6"/>
		</g>
	</g>
	<g>
		<defs>
			<path id="SVGID_29_" d="M61.4,29.4V33v3c0,1,0,2,0,3h-6c-0.3-1,0.1-27.4,0-26.6c0.1,0,0.1,0,0.2,0c3.8,0,7.6,0,11.5,0
				c1.4,0,2.7,0.2,4,0.6c1.7,0.6,3.1,1.6,4,3.1c0.5,0.9,0.8,1.7,0.9,2.7c0.1,1.3,0.1,2.2,0,3.5c0,1-0.2,2-0.7,2.9
				c-0.8,1.7-2.2,2.9-4.1,3.6c-0.9,0.3-1.8,0.5-2.7,0.6c-0.7,0-1.3,0.1-2,0.1c-1.6,0-3.2,0-4.8,0L61.4,29.4L61.4,29.4z M61.4,24.8
				c0.1,0,0.1,0,0.2,0c1.5,0,3,0,4.4,0c0.5,0,1-0.1,1.5-0.2c1.1-0.3,1.9-0.9,2.2-2c0.1-0.4,0.2-0.7,0.2-1.1c0-0.6,0-0.8,0-1.4
				c0-0.2,0-0.5-0.1-0.7c-0.2-1.2-0.9-1.9-2.3-2.3C67,17,66.4,17,65.8,17c-1.4,0-2.8,0-4.2,0c-0.1,0-0.1,0-0.2,0L61.4,24.8
				L61.4,24.8z"/>
		</defs>
		<clipPath id="SVGID_30_">
			<use xlink:href="#SVGID_29_"  style="overflow:visible;"/>
		</clipPath>
		<g class="st14">
			<defs>
				<rect id="SVGID_31_" x="-591" y="-16" width="1440" height="77"/>
			</defs>
			<clipPath id="SVGID_32_">
				<use xlink:href="#SVGID_31_"  style="overflow:visible;"/>
			</clipPath>
			<rect x="50.3" y="7.4" class="st15" width="30.7" height="36.6"/>
		</g>
	</g>
	<g>
		<defs>
			<path id="SVGID_33_" d="M18.1-328.6c1.9,0,4.6-1.1,6.3-2.1l0.2-0.1L16.1-305c-0.5,1.7-2.3,2.9-4.1,2.9H4l8.8-26.6L18.1-328.6
				L18.1-328.6z M28.4-312.3c-1.9,0-4.7,1-6.4,2l-0.2,0.1l8.4-25.8c0.5-1.7,2.3-2.9,4.1-2.9l8,0L34-312.3L28.4-312.3L28.4-312.3z"/>
		</defs>
		<clipPath id="SVGID_34_">
			<use xlink:href="#SVGID_33_"  style="overflow:visible;"/>
		</clipPath>
		<g class="st16">
			<defs>
				<rect id="SVGID_35_" x="-589" y="-357" width="1440" height="1024"/>
			</defs>
			<clipPath id="SVGID_36_">
				<use xlink:href="#SVGID_35_"  style="overflow:visible;"/>
			</clipPath>
			<rect x="-1" y="-344" class="st17" width="48.4" height="46.9"/>
		</g>
	</g>
	<g>
		<defs>
			<path id="SVGID_37_" d="M248.2-315.6c2.9,4.5,5.9,9,8.8,13.6c-0.1,0-0.1,0-0.2,0c-2.2,0-4.4,0-6.6,0c-0.2,0-0.3-0.1-0.3-0.2
				c-1.4-2.3-2.8-4.6-4.2-6.9c-0.5-0.8-1-1.6-1.4-2.4c0-0.1-0.1-0.1-0.2-0.3c-1.9,3.3-3.8,6.5-5.8,9.7h-6.5c0,0,0,0,0,0c0,0,0,0,0,0
				c0,0,0,0,0,0c0,0,0,0,0,0c2.9-4.4,5.8-8.8,8.7-13.3c0,0,0,0,0,0c0,0,0,0,0,0c-2.8-4.4-5.7-8.7-8.5-13.1c0.1,0,0.1,0,0.2,0
				c2.2,0,4.4,0,6.6,0c0.2,0,0.3,0.1,0.3,0.2c1.5,2.5,3,5,4.6,7.5c0.3,0.4,0.5,0.9,0.8,1.3c0,0.1,0.1,0.1,0.2,0.2
				c0.1-0.1,0.1-0.2,0.2-0.2c1.7-2.9,3.4-5.8,5.2-8.7c0-0.1,0.1-0.1,0.1-0.2c0-0.1,0.1-0.1,0.2-0.1c0,0,0.1,0,0.1,0c2,0,4,0,6.1,0
				c0.1,0,0.1,0,0.2,0c-0.4,0.6-0.8,1.3-1.2,1.9c-0.4,0.6-0.8,1.2-1.2,1.9c-0.4,0.6-0.8,1.2-1.2,1.9c-0.4,0.6-0.8,1.2-1.2,1.8
				c-0.4,0.6-0.8,1.2-1.2,1.9c-0.4,0.6-0.8,1.2-1.2,1.9C249.1-316.8,248.7-316.2,248.2-315.6"/>
		</defs>
		<clipPath id="SVGID_38_">
			<use xlink:href="#SVGID_37_"  style="overflow:visible;"/>
		</clipPath>
		<g class="st18">
			<defs>
				<rect id="SVGID_39_" x="-589" y="-357" width="1440" height="1024"/>
			</defs>
			<clipPath id="SVGID_40_">
				<use xlink:href="#SVGID_39_"  style="overflow:visible;"/>
			</clipPath>
			<rect x="226.9" y="-333.6" class="st19" width="35.2" height="36.6"/>
		</g>
	</g>
	<g>
		<defs>
			<path id="SVGID_41_" d="M205.3-302v-26.6c0.2-0.1,18.8-0.1,19.1,0c0,0.2,0.1,4.5,0,4.9c-0.1,0-0.2,0-0.3,0c-4.2,0-8.4,0-12.6,0
				h-0.4v5.9h10.3v4.6h-10.2c-0.1,0.2-0.1,6,0,6.3h13.4v4.9L205.3-302L205.3-302z"/>
		</defs>
		<clipPath id="SVGID_42_">
			<use xlink:href="#SVGID_41_"  style="overflow:visible;"/>
		</clipPath>
		<g class="st20">
			<defs>
				<rect id="SVGID_43_" x="-589" y="-357" width="1440" height="1024"/>
			</defs>
			<clipPath id="SVGID_44_">
				<use xlink:href="#SVGID_43_"  style="overflow:visible;"/>
			</clipPath>
			<rect x="200.3" y="-333.6" class="st21" width="29.2" height="36.6"/>
		</g>
	</g>
	<g>
		<defs>
			<path id="SVGID_45_" d="M175.7-302l0-26.6c0.1,0,0.2,0,0.2,0c3.5,0,7.1,0,10.6,0c1.5,0,3.1,0.2,4.5,0.7c1.7,0.5,3.2,1.4,4.4,2.7
				c1,1.2,1.7,2.5,2,4c0.2,0.9,0.4,1.9,0.4,2.8c0,2.2,0,4.4,0,6.6c0,1.4-0.3,2.8-0.8,4.1c-0.9,2.2-2.6,3.8-4.8,4.7
				c-1.2,0.5-2.4,0.8-3.7,0.9c-0.9,0.1-1.8,0.1-2.6,0.1c-3.3,0-6.6,0-9.9,0L175.7-302L175.7-302z M181.7-323.9v17.1
				c0.1,0,0.2,0,0.2,0c1.4,0,2.7,0,4.1,0c0.6,0,1.1-0.1,1.7-0.2c1.4-0.3,2.5-1,3.2-2.2c0.2-0.4,0.4-0.8,0.5-1.2
				c0.2-0.8,0.3-1.6,0.3-2.4c0-1.6,0-3.2,0-4.8c0-0.4,0-0.8,0-1.2c-0.1-0.8-0.2-1.5-0.5-2.2c-0.6-1.4-1.7-2.3-3.2-2.7
				c-0.7-0.2-1.4-0.2-2.1-0.2c-1.3,0-2.7,0-4,0L181.7-323.9L181.7-323.9z"/>
		</defs>
		<clipPath id="SVGID_46_">
			<use xlink:href="#SVGID_45_"  style="overflow:visible;"/>
		</clipPath>
		<g class="st22">
			<defs>
				<rect id="SVGID_47_" x="-589" y="-357" width="1440" height="1024"/>
			</defs>
			<clipPath id="SVGID_48_">
				<use xlink:href="#SVGID_47_"  style="overflow:visible;"/>
			</clipPath>
			<rect x="170.7" y="-333.6" class="st23" width="32.2" height="36.6"/>
		</g>
	</g>
	<g>
		<defs>
			<path id="SVGID_49_" d="M149.5-307c-0.6,1.7-1.1,3.3-1.7,5h-6.2c3.3-8.9,6.5-17.8,9.7-26.6h7.1c3.2,8.9,6.5,17.7,9.7,26.6h-6.5
				c-0.6-1.7-1.1-3.3-1.7-5L149.5-307L149.5-307z M158.6-311.4c-0.1-0.4-3.6-10.7-3.8-10.9c-0.3,0.9-0.6,1.8-0.9,2.7
				c-0.3,0.9-0.6,1.8-0.9,2.7c-0.3,0.9-0.6,1.8-0.9,2.7c-0.3,0.9-0.6,1.8-0.9,2.7H158.6z"/>
		</defs>
		<clipPath id="SVGID_50_">
			<use xlink:href="#SVGID_49_"  style="overflow:visible;"/>
		</clipPath>
		<g class="st24">
			<defs>
				<rect id="SVGID_51_" x="-589" y="-357" width="1440" height="1024"/>
			</defs>
			<clipPath id="SVGID_52_">
				<use xlink:href="#SVGID_51_"  style="overflow:visible;"/>
			</clipPath>
			<rect x="136.6" y="-333.6" class="st25" width="36.6" height="36.6"/>
		</g>
	</g>
	<g>
		<defs>
			<path id="SVGID_53_" d="M137.2-302h-0.3c-2,0-4,0-5.9,0c-0.2,0-0.3-0.1-0.4-0.2c-1.7-3.1-3.5-6.1-5.2-9.2c0-0.1-0.1-0.1-0.1-0.2
				c0-0.1-0.1-0.1-0.2-0.1c0,0-0.1,0-0.1,0c-1.2,0-2.4,0-3.6,0H121c0,0.3,0,0.5,0,0.8c0,0.3,0,0.5,0,0.8v0.8v0.8v0.8v0.8v0.8v0.8
				v0.8v0.8v0.8v0.8h-6c0,0,0,0,0,0c0,0,0,0,0,0c0-0.1,0-0.1,0-0.2c0-8.8,0-17.6,0-26.3c0,0,0,0,0-0.1c0.1,0,0.2,0,0.2,0
				c4,0,8,0,12,0c1.4,0,2.7,0.1,4,0.6c1.7,0.5,3.1,1.5,4,3c0.5,0.8,0.8,1.8,0.9,2.7c0.1,0.6,0.1,1.2,0.1,1.8c0,0.5,0,1.1,0,1.6
				c-0.1,3-1.7,5.1-4.6,6.3c-0.2,0.1-0.3,0.1-0.5,0.2C133.2-308.9,135.2-305.5,137.2-302L137.2-302z M121-316.1h0.3
				c1.5,0,2.9,0,4.4,0c0.4,0,0.8,0,1.2,0c0.5,0,1-0.1,1.4-0.3c1.2-0.5,1.8-1.3,1.9-2.5c0.1-0.8,0.1-1.6,0-2.3
				c-0.1-1.1-0.7-2.2-2.2-2.6c-0.6-0.2-1.2-0.2-1.8-0.2c-1.7,0-3.3,0-5,0c-0.1,0-0.1,0-0.2,0L121-316.1L121-316.1z"/>
		</defs>
		<clipPath id="SVGID_54_">
			<use xlink:href="#SVGID_53_"  style="overflow:visible;"/>
		</clipPath>
		<g class="st26">
			<defs>
				<rect id="SVGID_55_" x="-589" y="-357" width="1440" height="1024"/>
			</defs>
			<clipPath id="SVGID_56_">
				<use xlink:href="#SVGID_55_"  style="overflow:visible;"/>
			</clipPath>
			<rect x="110" y="-333.6" class="st27" width="32.2" height="36.6"/>
		</g>
	</g>
	<g>
		<defs>
			<path id="SVGID_57_" d="M107.6-302h-6.5c0-0.1-0.1-0.2-0.1-0.2c-0.5-1.5-1-3-1.5-4.5c-0.1-0.2-0.1-0.2-0.4-0.2c-3.3,0-6.7,0-10,0
				h-0.3c-0.6,1.7-1.1,3.3-1.7,5H81c0,0,0,0,0,0c0,0,0,0,0,0c0,0,0-0.1,0-0.1c3.2-8.8,6.5-17.6,9.7-26.4c0,0,0,0,0.1-0.1h7.1
				C101.1-319.8,104.3-310.9,107.6-302 M94.1-322.2c-0.1,0.1-3.7,10.6-3.8,10.8h7.5C96.6-315,95.4-318.6,94.1-322.2
				C94.2-322.2,94.1-322.2,94.1-322.2"/>
		</defs>
		<clipPath id="SVGID_58_">
			<use xlink:href="#SVGID_57_"  style="overflow:visible;"/>
		</clipPath>
		<g class="st28">
			<defs>
				<rect id="SVGID_59_" x="-589" y="-357" width="1440" height="1024"/>
			</defs>
			<clipPath id="SVGID_60_">
				<use xlink:href="#SVGID_59_"  style="overflow:visible;"/>
			</clipPath>
			<rect x="76" y="-333.6" class="st29" width="36.6" height="36.6"/>
		</g>
	</g>
	<g>
		<defs>
			<path id="SVGID_61_" d="M63.4-311.6v3.5v3c0,1,0,2,0,3h-6c-0.3-1,0.1-27.4,0-26.6c0.1,0,0.1,0,0.2,0c3.8,0,7.6,0,11.5,0
				c1.4,0,2.7,0.2,4,0.6c1.7,0.6,3.1,1.6,4,3.1c0.5,0.9,0.8,1.7,0.9,2.7c0.1,1.3,0.1,2.2,0,3.5c0,1-0.2,2-0.7,2.9
				c-0.8,1.7-2.2,2.9-4.1,3.6c-0.9,0.3-1.8,0.5-2.7,0.6c-0.7,0-1.3,0.1-2,0.1c-1.6,0-3.2,0-4.8,0L63.4-311.6L63.4-311.6z
				 M63.4-316.2c0.1,0,0.1,0,0.2,0c1.5,0,3,0,4.4,0c0.5,0,1-0.1,1.5-0.2c1.1-0.3,1.9-0.9,2.2-2c0.1-0.4,0.2-0.7,0.2-1.1
				c0-0.6,0-0.8,0-1.4c0-0.2,0-0.5-0.1-0.7c-0.2-1.2-0.9-1.9-2.3-2.3c-0.6-0.2-1.2-0.2-1.8-0.2c-1.4,0-2.8,0-4.2,0
				c-0.1,0-0.1,0-0.2,0L63.4-316.2L63.4-316.2z"/>
		</defs>
		<clipPath id="SVGID_62_">
			<use xlink:href="#SVGID_61_"  style="overflow:visible;"/>
		</clipPath>
		<g class="st30">
			<defs>
				<rect id="SVGID_63_" x="52.3" y="-333.6" width="30.7" height="36.6"/>
			</defs>
			<defs>
				<rect id="SVGID_64_" x="-589" y="-357" width="1440" height="1024"/>
			</defs>
			<clipPath id="SVGID_65_">
				<use xlink:href="#SVGID_63_"  style="overflow:visible;"/>
			</clipPath>
			<clipPath id="SVGID_66_" class="st31">
				<use xlink:href="#SVGID_64_"  style="overflow:visible;"/>
			</clipPath>
		</g>
	</g>
</g>
<g id="Layer_2" class="st32">
	<g class="st33">
		<defs>
			<path id="SVGID_67_" d="M15.9,12.7c1.9,0,4.6-1.1,6.3-2.1l0.2-0.1L14,36.4c-0.5,1.7-2.3,2.9-4.1,2.9h-8l8.8-26.6L15.9,12.7
				L15.9,12.7z M26.2,29c-1.9,0-4.7,1-6.4,2l-0.2,0.1l8.4-25.8c0.5-1.7,2.3-2.9,4.1-2.9l8,0L31.8,29L26.2,29L26.2,29z"/>
		</defs>
		<clipPath id="SVGID_68_">
			<use xlink:href="#SVGID_67_"  style="overflow:visible;"/>
		</clipPath>
		<g class="st34">
			<defs>
				<rect id="SVGID_69_" x="-591.2" y="-15.6" width="1440" height="1024"/>
			</defs>
			<clipPath id="SVGID_70_">
				<use xlink:href="#SVGID_69_"  style="overflow:visible;"/>
			</clipPath>
			<rect x="-3.2" y="-2.6" class="st35" width="48.4" height="46.9"/>
		</g>
	</g>
	<g class="st33">
		<defs>
			<path id="SVGID_71_" d="M246.1,25.8c2.9,4.5,5.9,9,8.8,13.6c-0.1,0-0.1,0-0.2,0c-2.2,0-4.4,0-6.6,0c-0.2,0-0.3-0.1-0.3-0.2
				c-1.4-2.3-2.8-4.6-4.2-6.9c-0.5-0.8-1-1.6-1.4-2.4c0-0.1-0.1-0.1-0.2-0.3c-1.9,3.3-3.8,6.5-5.8,9.7h-6.5c0,0,0,0,0,0c0,0,0,0,0,0
				c0,0,0,0,0,0c0,0,0,0,0,0c2.9-4.4,5.8-8.8,8.7-13.3c0,0,0,0,0,0c0,0,0,0,0,0c-2.8-4.4-5.7-8.7-8.5-13.1c0.1,0,0.1,0,0.2,0
				c2.2,0,4.4,0,6.6,0c0.2,0,0.3,0.1,0.3,0.2c1.5,2.5,3,5,4.6,7.5c0.3,0.4,0.5,0.9,0.8,1.3c0,0.1,0.1,0.1,0.2,0.2
				c0.1-0.1,0.1-0.2,0.2-0.2c1.7-2.9,3.4-5.8,5.2-8.7c0-0.1,0.1-0.1,0.1-0.2c0-0.1,0.1-0.1,0.2-0.1c0,0,0.1,0,0.1,0c2,0,4,0,6.1,0
				c0.1,0,0.1,0,0.2,0c-0.4,0.6-0.8,1.3-1.2,1.9c-0.4,0.6-0.8,1.2-1.2,1.9c-0.4,0.6-0.8,1.2-1.2,1.9c-0.4,0.6-0.8,1.2-1.2,1.8
				c-0.4,0.6-0.8,1.2-1.2,1.9c-0.4,0.6-0.8,1.2-1.2,1.9C246.9,24.5,246.5,25.1,246.1,25.8"/>
		</defs>
		<clipPath id="SVGID_72_">
			<use xlink:href="#SVGID_71_"  style="overflow:visible;"/>
		</clipPath>
		<g class="st36">
			<defs>
				<rect id="SVGID_73_" x="-591.2" y="-15.6" width="1440" height="1024"/>
			</defs>
			<clipPath id="SVGID_74_">
				<use xlink:href="#SVGID_73_"  style="overflow:visible;"/>
			</clipPath>
			<rect x="224.7" y="7.7" class="st37" width="35.2" height="36.6"/>
		</g>
	</g>
	<g class="st33">
		<defs>
			<path id="SVGID_75_" d="M203.1,39.4V12.8c0.2-0.1,18.8-0.1,19.1,0c0,0.2,0.1,4.5,0,4.9c-0.1,0-0.2,0-0.3,0c-4.2,0-8.4,0-12.6,0
				H209v5.9h10.3v4.6H209c-0.1,0.2-0.1,6,0,6.3h13.4v4.9L203.1,39.4L203.1,39.4z"/>
		</defs>
		<clipPath id="SVGID_76_">
			<use xlink:href="#SVGID_75_"  style="overflow:visible;"/>
		</clipPath>
		<g class="st38">
			<defs>
				<rect id="SVGID_77_" x="-591.2" y="-15.6" width="1440" height="1024"/>
			</defs>
			<clipPath id="SVGID_78_">
				<use xlink:href="#SVGID_77_"  style="overflow:visible;"/>
			</clipPath>
			<rect x="198.1" y="7.7" class="st39" width="29.2" height="36.6"/>
		</g>
	</g>
	<g class="st33">
		<defs>
			<path id="SVGID_79_" d="M173.5,39.4l0-26.6c0.1,0,0.2,0,0.2,0c3.5,0,7.1,0,10.6,0c1.5,0,3.1,0.2,4.5,0.7c1.7,0.5,3.2,1.4,4.4,2.7
				c1,1.2,1.7,2.5,2,4c0.2,0.9,0.4,1.9,0.4,2.8c0,2.2,0,4.4,0,6.6c0,1.4-0.3,2.8-0.8,4.1c-0.9,2.2-2.6,3.8-4.8,4.7
				c-1.2,0.5-2.4,0.8-3.7,0.9c-0.9,0.1-1.8,0.1-2.6,0.1c-3.3,0-6.6,0-9.9,0L173.5,39.4L173.5,39.4z M179.6,17.5v17.1
				c0.1,0,0.2,0,0.2,0c1.4,0,2.7,0,4.1,0c0.6,0,1.1-0.1,1.7-0.2c1.4-0.3,2.5-1,3.2-2.2c0.2-0.4,0.4-0.8,0.5-1.2
				c0.2-0.8,0.3-1.6,0.3-2.4c0-1.6,0-3.2,0-4.8c0-0.4,0-0.8,0-1.2c-0.1-0.8-0.2-1.5-0.5-2.2c-0.6-1.4-1.7-2.3-3.2-2.7
				c-0.7-0.2-1.4-0.2-2.1-0.2c-1.3,0-2.7,0-4,0L179.6,17.5L179.6,17.5z"/>
		</defs>
		<clipPath id="SVGID_80_">
			<use xlink:href="#SVGID_79_"  style="overflow:visible;"/>
		</clipPath>
		<g class="st40">
			<defs>
				<rect id="SVGID_81_" x="-591.2" y="-15.6" width="1440" height="1024"/>
			</defs>
			<clipPath id="SVGID_82_">
				<use xlink:href="#SVGID_81_"  style="overflow:visible;"/>
			</clipPath>
			<rect x="168.5" y="7.7" class="st41" width="32.2" height="36.6"/>
		</g>
	</g>
	<g class="st33">
		<defs>
			<path id="SVGID_83_" d="M147.3,34.4c-0.6,1.7-1.1,3.3-1.7,5h-6.2c3.3-8.9,6.5-17.8,9.7-26.6h7.1c3.2,8.9,6.5,17.7,9.7,26.6h-6.5
				c-0.6-1.7-1.1-3.3-1.7-5L147.3,34.4L147.3,34.4z M156.4,30c-0.1-0.4-3.6-10.7-3.8-10.9c-0.3,0.9-0.6,1.8-0.9,2.7
				c-0.3,0.9-0.6,1.8-0.9,2.7c-0.3,0.9-0.6,1.8-0.9,2.7c-0.3,0.9-0.6,1.8-0.9,2.7H156.4z"/>
		</defs>
		<clipPath id="SVGID_84_">
			<use xlink:href="#SVGID_83_"  style="overflow:visible;"/>
		</clipPath>
		<g class="st42">
			<defs>
				<rect id="SVGID_85_" x="-591.2" y="-15.6" width="1440" height="1024"/>
			</defs>
			<clipPath id="SVGID_86_">
				<use xlink:href="#SVGID_85_"  style="overflow:visible;"/>
			</clipPath>
			<rect x="134.5" y="7.7" class="st43" width="36.6" height="36.6"/>
		</g>
	</g>
	<g class="st33">
		<defs>
			<path id="SVGID_87_" d="M135,39.4h-0.3c-2,0-4,0-5.9,0c-0.2,0-0.3-0.1-0.4-0.2c-1.7-3.1-3.5-6.1-5.2-9.2c0-0.1-0.1-0.1-0.1-0.2
				c0-0.1-0.1-0.1-0.2-0.1c0,0-0.1,0-0.1,0c-1.2,0-2.4,0-3.6,0h-0.3c0,0.3,0,0.5,0,0.8c0,0.3,0,0.5,0,0.8V32v0.8v0.8v0.8v0.8v0.8
				v0.8v0.8v0.8v0.8h-6c0,0,0,0,0,0c0,0,0,0,0,0c0-0.1,0-0.1,0-0.2c0-8.8,0-17.6,0-26.3c0,0,0,0,0-0.1c0.1,0,0.2,0,0.2,0
				c4,0,8,0,12,0c1.4,0,2.7,0.1,4,0.6c1.7,0.5,3.1,1.5,4,3c0.5,0.8,0.8,1.8,0.9,2.7c0.1,0.6,0.1,1.2,0.1,1.8c0,0.5,0,1.1,0,1.6
				c-0.1,3-1.7,5.1-4.6,6.3c-0.2,0.1-0.3,0.1-0.5,0.2C131,32.4,133,35.9,135,39.4L135,39.4z M118.9,25.2h0.3c1.5,0,2.9,0,4.4,0
				c0.4,0,0.8,0,1.2,0c0.5,0,1-0.1,1.4-0.3c1.2-0.5,1.8-1.3,1.9-2.5c0.1-0.8,0.1-1.6,0-2.3c-0.1-1.1-0.7-2.2-2.2-2.6
				c-0.6-0.2-1.2-0.2-1.8-0.2c-1.7,0-3.3,0-5,0c-0.1,0-0.1,0-0.2,0L118.9,25.2L118.9,25.2z"/>
		</defs>
		<clipPath id="SVGID_88_">
			<use xlink:href="#SVGID_87_"  style="overflow:visible;"/>
		</clipPath>
		<g class="st44">
			<defs>
				<rect id="SVGID_89_" x="-591.2" y="-15.6" width="1440" height="1024"/>
			</defs>
			<clipPath id="SVGID_90_">
				<use xlink:href="#SVGID_89_"  style="overflow:visible;"/>
			</clipPath>
			<rect x="107.8" y="7.7" class="st45" width="32.2" height="36.6"/>
		</g>
	</g>
	<g class="st33">
		<defs>
			<path id="SVGID_91_" d="M105.4,39.4h-6.5c0-0.1-0.1-0.2-0.1-0.2c-0.5-1.5-1-3-1.5-4.5c-0.1-0.2-0.1-0.2-0.4-0.2
				c-3.3,0-6.7,0-10,0h-0.3c-0.6,1.7-1.1,3.3-1.7,5h-6.1c0,0,0,0,0,0c0,0,0,0,0,0c0,0,0-0.1,0-0.1c3.2-8.8,6.5-17.6,9.7-26.4
				c0,0,0,0,0.1-0.1h7.1C98.9,21.6,102.2,30.5,105.4,39.4 M91.9,19.1c-0.1,0.1-3.7,10.6-3.8,10.8h7.5C94.5,26.4,93.2,22.8,91.9,19.1
				C92,19.2,92,19.2,91.9,19.1"/>
		</defs>
		<clipPath id="SVGID_92_">
			<use xlink:href="#SVGID_91_"  style="overflow:visible;"/>
		</clipPath>
		<g class="st46">
			<defs>
				<rect id="SVGID_93_" x="-591.2" y="-15.6" width="1440" height="1024"/>
			</defs>
			<clipPath id="SVGID_94_">
				<use xlink:href="#SVGID_93_"  style="overflow:visible;"/>
			</clipPath>
			<rect x="73.8" y="7.7" class="st47" width="36.6" height="36.6"/>
		</g>
	</g>
	<g class="st33">
		<defs>
			<path id="SVGID_95_" d="M61.2,29.8v3.5v3c0,1,0,2,0,3h-6c-0.3-1,0.1-27.4,0-26.6c0.1,0,0.1,0,0.2,0c3.8,0,7.6,0,11.5,0
				c1.4,0,2.7,0.2,4,0.6c1.7,0.6,3.1,1.6,4,3.1c0.5,0.9,0.8,1.7,0.9,2.7c0.1,1.3,0.1,2.2,0,3.5c0,1-0.2,2-0.7,2.9
				c-0.8,1.7-2.2,2.9-4.1,3.6c-0.9,0.3-1.8,0.5-2.7,0.6c-0.7,0-1.3,0.1-2,0.1c-1.6,0-3.2,0-4.8,0L61.2,29.8L61.2,29.8z M61.2,25.2
				c0.1,0,0.1,0,0.2,0c1.5,0,3,0,4.4,0c0.5,0,1-0.1,1.5-0.2c1.1-0.3,1.9-0.9,2.2-2c0.1-0.4,0.2-0.7,0.2-1.1c0-0.6,0-0.8,0-1.4
				c0-0.2,0-0.5-0.1-0.7c-0.2-1.2-0.9-1.9-2.3-2.3c-0.6-0.2-1.2-0.2-1.8-0.2c-1.4,0-2.8,0-4.2,0c-0.1,0-0.1,0-0.2,0L61.2,25.2
				L61.2,25.2z"/>
		</defs>
		<clipPath id="SVGID_96_">
			<use xlink:href="#SVGID_95_"  style="overflow:visible;"/>
		</clipPath>
		<g class="st48">
			<defs>
				<rect id="SVGID_97_" x="-591.2" y="-15.6" width="1440" height="1024"/>
			</defs>
			<clipPath id="SVGID_98_">
				<use xlink:href="#SVGID_97_"  style="overflow:visible;"/>
			</clipPath>
			<rect x="50.1" y="7.7" class="st49" width="30.7" height="36.6"/>
		</g>
	</g>
</g>
</svg>
